<svg width="320" height="230" version="1.1" viewBox="0 0 84.66668 60.85416" xmlns="http://www.w3.org/2000/svg">
  <g transform="translate(62.59917 -117.1034)">
    <path d="m-62.59917 117.1034h84.66667v60.85416h-84.66667z" fill="#6f6f6f" fill-opacity=".3333333" style="paint-order:fill markers stroke"/>
    <g transform="translate(-94.52226 -11.05035)" fill="#fcfef7" stroke-width=".2645834" aria-label="Soon">
      <path d="m62.52172 153.4925q0 0.45338-0.202572 0.71383-0.202571 0.26045-0.356912 0.26045-0.144694 0-1.533756-0.83923-0.848872-0.51125-1.78456-0.51125-0.926041 0-1.581987 0.47267-0.6463 0.46302-0.6463 1.30224 0 0.83923 0.704177 1.48553 0.356912 0.32797 2.17041 1.19613 1.813499 0.85852 2.50803 1.5627 0.964627 0.98392 0.964627 2.24758v0.32797q-0.0096 0.76206-0.376205 1.49517-0.704177 1.38907-2.382628 1.94855-0.868164 0.28939-1.929253 0.28939-3.289378 0-3.983909-1.40836-0.241157-0.49196-0.241157-0.8971 0-0.38585 0.212218-0.63665 0.212218-0.26045 0.482314-0.26045 0.270095 0 0.87781 0.5209 0.617361 0.52089 1.263661 0.83922 0.6463 0.30868 1.630219 0.30868 0.98392 0 1.659158-0.5209 0.684885-0.5209 0.684885-1.48552 0-0.96463-0.974273-1.70739-0.434082-0.32797-2.073947-1.09968-1.630219-0.78134-2.305458-1.50481-0.897103-0.95498-0.897103-2.29582 0-1.69774 1.254015-2.67201 1.254015-0.98392 3.086805-0.98392h0.33762q1.900314 0 2.66237 0.5016 0.771701 0.49196 0.771701 1.35048z"/>
      <path d="m66.5828 161.2674q0 1.26367 0.578776 2.10289 0.578776 0.83923 1.418001 0.83923h0.289388q0.993566 0 1.678451-1.00322 0.694531-1.00321 0.694531-2.67201v-0.63666q0-1.2926-0.569129-2.11253-0.559484-0.82958-1.446941-0.82958h-0.192925q-1.032151 0-1.736328 1.02251-0.694531 1.0225-0.694531 2.4405l-0.01929 0.22187zm2.180057 4.25401h-0.308681q-1.688097 0-2.749186-1.17685-1.06109-1.17684-1.06109-3.33761l0.0096-0.16398q0-2.37298 1.254014-3.74275 0.655947-0.72347 1.495172-1.06109 0.848871-0.34727 1.610926-0.34727h0.472668q0.848871 0 1.630219 0.37621 2.237934 1.08038 2.237934 4.07072v0.15434q-0.0096 0.97427-0.318327 1.97749-0.617361 1.97748-2.372982 2.79741-0.974273 0.45338-1.900314 0.45338z"/>
      <path d="m77.03936 161.2674q0 1.26367 0.578777 2.10289 0.578776 0.83923 1.418001 0.83923h0.289388q0.993565 0 1.67845-1.00322 0.694532-1.00321 0.694532-2.67201v-0.63666q0-1.2926-0.56913-2.11253-0.559484-0.82958-1.44694-0.82958h-0.192926q-1.03215 0-1.736328 1.02251-0.694531 1.0225-0.694531 2.4405l-0.01929 0.22187zm2.180057 4.25401h-0.308681q-1.688096 0-2.749186-1.17685-1.061089-1.17684-1.061089-3.33761l0.0096-0.16398q0-2.37298 1.254015-3.74275 0.655946-0.72347 1.495171-1.06109 0.848872-0.34727 1.610927-0.34727h0.472667q0.848872 0 1.630219 0.37621 2.237934 1.08038 2.237934 4.07072v0.15434q-0.0096 0.97427-0.318326 1.97749-0.617362 1.97748-2.372982 2.79741-0.974273 0.45338-1.900315 0.45338z"/>
      <path d="m94.66309 164.1805q0 0.71382-1.244369 0.71382-0.704177 0-0.945334-0.33762-0.115755-0.16399-0.115755-0.7717l-0.02894-0.61736q-0.06752-1.01286-0.06752-2.03536 0-2.209-0.385851-2.96141-0.376204-0.76205-1.273307-0.76205-0.598069 0-1.109321 0.35691-0.501606 0.35691-0.771701 0.99356-0.559484 1.30225-0.559484 4.81349 0 0.80064-0.30868 1.12862-0.299035 0.32797-0.771702 0.32797h-0.192925q-1.080382 0-1.080382-0.85852v-0.23151q0-0.10611 0.115755-0.46302l0.154341-0.44373q0.23151-0.78135 0.23151-3.34725l0.04823-2.86495q0-0.54983 0.598069-0.54983 0.598068 0 1.176845 0.39549 0.588422 0.3955 0.742762 0.3955 0.163987 0 0.56913-0.22186 1.360124-0.74277 2.180056-0.74277h0.250803q1.475879 0 2.073948 1.33119 0.289388 0.62701 0.289388 2.70095v0.0675q0 0.17363-0.0096 0.34726 0 0.47267 0 0.49196 0 0.18328 0 0.35692 0 0.13504 0 0.26044 0 0.74277 0.04823 1.01286 0.06752 0.36656 0.221864 0.76206 0.163987 0.43408 0.163987 0.75241z"/>
    </g>
  </g>
</svg>
