<svg width="80" height="32" version="1.1" viewBox="0 0 21.16667 8.466666" xmlns="http://www.w3.org/2000/svg">
  <g transform="translate(-28.63152 -187.4217)">
    <path transform="matrix(.2645833 0 0 .2645833 28.63152 187.4217)" d="m7 0c-3.878 0-7 3.122-7 7v18c0 3.878 3.122 7 7 7h66c3.878 0 7-3.122 7-7v-18c0-3.878-3.122-7-7-7h-66zm27.41992 6.8125c1.614584 0 2.531034 0.0359254 2.748047 0.1054688 0.546875 0.173606 0.820312 0.5983008 0.820312 1.275391v0.296875c0 0.4687622-0.091138 0.7812543-0.273437 0.9375-0.173607 0.1476535-0.363928 0.2226562-0.572266 0.2226562h-0.027344c-0.208327 0-0.546867-0.0912642-1.015625-0.2734375-0.47743-0.1909921-1.040365-0.2871095-1.691406-0.2871093-0.642361 0-1.116103 0.1121268-1.419922 0.3378906-0.295141 0.2257638-0.498481 0.5562686-0.611328 0.9902346-0.104164 0.425323-0.244355 2.217217-0.417969 5.376953-0.164938 3.151042-0.246093 4.931856-0.246093 5.339844 0 0.399294 0.086159 0.928161 0.259765 1.58789 0.173607 0.659729 0.259766 1.019329 0.259766 1.080078 0 0.425348-0.195313 0.755854-0.585938 0.990235-0.381944 0.23433-0.915797 0.351562-1.601562 0.351562s-1.214627-0.112127-1.587891-0.33789c-0.373263-0.234331-0.560547-0.556806-0.560547-0.964844 0-0.182425 0.1352-0.568068 0.404297-1.158203 0.277778-0.59898 0.455078-1.184912 0.533203-1.757813 0.329862-2.54342 0.496094-5.595292 0.496094-9.154297 0-1.067716-0.122185-1.77083-0.365234-2.109375-0.243049-0.3472126-0.667746-0.5195313-1.275391-0.5195313-0.60764 0-1.263671 0.1332666-1.966797 0.4023438-0.703123 0.2604346-1.132812 0.390625-1.289062 0.390625-0.425348 0-0.638672-0.4457335-0.638672-1.339844 0-0.894085 0.416667-1.411896 1.25-1.550781 0.833335-0.1476536 3.460505-0.2207031 7.878906-0.2207031h0.753906l0.742188-0.0117188zm30.23438 0.0800781h0.625c0.668404 0 1.186198 0.1351945 1.550781 0.4042969 0.373264 0.2604346 0.558594 0.5369005 0.558594 0.8320312 0 0.286463-0.104173 0.6820887-0.3125 1.185547-0.208328 0.4947906-0.346566 1.075744-0.416016 1.744141-0.27778 2.664945-0.416015 5.190975-0.416015 7.578125l-0.027344 0.638672-0.011719 0.96289c0 1.354155 0.151257 2.166445 0.455078 2.435547 0.303819 0.269102 1.032986 0.404297 2.1875 0.404297 1.154512 0 2.126085-0.12719 2.916016-0.378906 0.156246-0.052158 0.460715-0.16939 0.912109-0.351563 0.451389-0.182173 0.802954-0.271484 1.054688-0.271484 0.512153 0 0.767578 0.328577 0.767578 0.988281 0 0.859389-0.198352 1.427308-0.597656 1.705078-0.390627 0.27777-1.093751 0.417969-2.109375 0.417969v-0.003906h-1.992188l-0.326172-0.011719-3.970703-0.064453c-0.208327-0.007559-0.608935-0.011719-1.199219-0.011719-1.197916 0-1.799913-0.382591-1.808593-1.146484 0-0.138835 0.060116-0.347155 0.18164-0.625 0.130218-0.27777 0.229386-0.528218 0.298828-0.753907 0.078136-0.225763 0.208346-1.225334 0.390625-2.996093 0.1823-1.770835 0.273438-4.143658 0.273438-7.121094l0.027344-0.638672v-1.132812c0-0.451402-0.101122-0.9461958-0.300782-1.484375-0.190967-0.5468724-0.285156-0.9294639-0.285156-1.146484 0-0.2257637 0.125212-0.4731607 0.376953-0.7421874 0.251742-0.2777953 0.650396-0.4160157 1.197266-0.4160157zm-44.94727 0.1269531h0.46875c0.277778 0 0.538196 0.0861594 0.78125 0.2597657 0.251742 0.1736063 0.376953 0.3949601 0.376953 0.6640625 0 0.2691023-0.112202 0.6467148-0.33789 1.132812-0.225688 0.4774299-0.373907 1.089405-0.44336 1.835937-0.381944 4.366312-0.572265 7.795796-0.572265 10.28711 0 0.61634 0.057065 1.085091 0.169922 1.40625l0.167968 0.390625c0.173607 0.390627 0.261719 0.643028 0.261719 0.755859 0 0.47743-0.156248 0.805982-0.46875 0.988281-0.312499 0.173607-0.794271 0.261719-1.445312 0.261719-0.651044 0-1.168838-0.130215-1.550782-0.390625-0.373263-0.269102-0.558593-0.542542-0.558593-0.820312s0.099168-0.790577 0.298828-1.53711c0.19966-0.755225 0.298828-1.752843 0.298828-2.99414 0-1.241323-0.164279-1.975459-0.494141-2.201172-0.329862-0.234331-1.423612-0.351563-3.28125-0.351563-1.848957 0-3.002821 0.226358-3.46289 0.677735-0.4600718 0.451401-0.6914062 1.84767-0.6914062 4.191406 0 0.329877 0.0180131 0.62936 0.0527344 0.898437l0.0644531 0.390625c0.0694425 0.399295 0.1054687 0.638662 0.1054687 0.716797 0 0.894085-0.8122829 1.341797-2.435547 1.341797-0.546875 0-0.9375018-0.101222-1.171875-0.300781-0.2256882-0.208378-0.3378907-0.437762-0.3378907-0.689453 0-0.26041 0.1171814-0.625013 0.3515625-1.09375 0.2430488-0.47743 0.3992999-0.972224 0.46875-1.484375 0.355903-2.777802 0.5332032-6.314459 0.5332032-10.61133 0-0.512152-0.1091515-1.01998-0.3261719-1.523438-0.2083276-0.5121512-0.3125-0.8166136-0.3125-0.9121093 0-0.7812536 0.6219609-1.171875 1.863281-1.171875 0.6684019 0 1.179253 0.1092269 1.535156 0.3261718 0.3645833 0.2169449 0.5468746 0.4543587 0.5468746 0.7148438 0 0.2517165-0.047082 0.5561786-0.142578 0.9121094-0.0954949 0.35588-0.1736251 0.7204832-0.2343748 1.09375-0.0607745 0.373266-0.0917968 1.076379-0.0917968 2.109375 0 1.032995 0.1922751 1.692078 0.5742186 1.978515 0.390624 0.286463 1.544488 0.429688 3.462891 0.429688 1.927085 0 3.028863-0.237414 3.30664-0.714844 0.33854-0.590286 0.507813-1.845284 0.507813-3.763672l-0.259766-1.626953c0-0.5208189 0.229382-0.9114403 0.689453-1.171875 0.46875-0.2690771 1.04666-0.4042967 1.732422-0.4042969zm37.86524 0.3261719c0.815972 0 1.222656 0.2994832 1.222656 0.8984375l-0.078125 0.4296875-0.117188 0.5195313c-0.095496 0.5295118-0.160591 1.711385-0.195312 3.542969-0.034721 1.822917-0.086808 3.653864-0.15625 5.494141l-0.064453 2.05664c0 0.876725 0.047082 1.493704 0.142578 1.84961l0.183594 0.507812c0.173606 0.468737 0.259765 0.820307 0.259765 1.054688 0 0.225764-0.125211 0.439087-0.376953 0.638672-0.251742 0.199559-0.53516 0.298828-0.847656 0.298828h-0.494141c-0.442708 0-0.841362-0.179251-1.197265-0.535157-0.355903-0.355904-0.535157-0.728513-0.535157-1.11914 0-0.399295 0.039052-0.993257 0.117188-1.783203 0.086803-0.789922 0.130859-2.479597 0.130859-5.066407 0-2.595476-0.078129-3.892578-0.234375-3.892578-0.234381 0-1.046663 1.476352-2.435547 4.427735-1.380208 2.951382-2.260634 4.71223-2.642578 5.285156s-0.806641 0.859375-1.27539 0.859375c-0.46007 0-0.860677-0.325502-1.199219-0.976562-0.130217-0.251717-0.745234-1.900387-1.847656-4.947266-1.09375-3.055572-1.770836-4.583985-2.03125-4.583984-0.112857 0-0.222008 0.153207-0.326172 0.457031-0.095496 0.295156-0.272796 1.665382-0.533203 4.113281-0.251742 2.447924-0.378907 4.098523-0.378907 4.949219 0 0.842003-0.138238 1.475042-0.416015 1.90039-0.277778 0.416681-0.75955 0.625-1.445313 0.625-0.685765 0-1.029297-0.330505-1.029297-0.990234 0-0.086677 0.127165-0.459286 0.378907-1.119141 0.251741-0.659729 0.421011-1.39389 0.507812-2.201172 0.416665-3.828131 0.625-7.000236 0.625-9.517578l-0.222656-2.330078c0-0.1821731 0.117181-0.3644749 0.351562-0.546875 0.234381-0.190992 0.582905-0.2871093 1.042969-0.2871093 1.050346 0 1.896699 0.4817849 2.539063 1.445312 0.651041 0.9635527 1.656684 3.151048 3.019531 6.5625 0.590276 1.440983 0.938802 2.258252 1.042969 2.449219l0.285156 0.376953c0.190967 0 1.042312-1.414282 2.552734-4.24414 1.510418-2.838552 2.452909-4.518219 2.826172-5.039063 0.746527-1.041663 1.697048-1.5625 2.851563-1.5625z" fill="#ff5e87" style="paint-order:fill markers stroke"/>
  </g>
</svg>
