<svg width="55" height="32" version="1.1" viewBox="0 0 14.55208 8.466667" xmlns="http://www.w3.org/2000/svg">
  <g transform="translate(-28.63152 -187.9509)">
    <path transform="matrix(.2645833 0 0 .2645833 28.63152 187.9509)" d="m7 0c-3.878 0-7 3.122-7 7v18c0 3.878 3.122 7 7 7h41c3.878 0 7-3.122 7-7v-18c0-3.878-3.122-7-7-7zm19.875 5.263672h0.728516c1.09375 0 2.135416 0.2183028 3.125 0.6523437 1.822916 0.7986142 3.09592 2.15278 3.816406 4.0625 0.399304 1.085052 0.597656 2.348079 0.597656 3.789062v0.703125c0 2.439232-0.580946 4.647791-1.74414 6.626953-0.737848 1.249991-1.107422 1.9451-1.107422 2.083985 0 0.329877 0.403645 0.840705 1.210937 1.535156 0.807292 0.694425 1.210938 1.103085 1.210938 1.224609 0 0.130268-0.164279 0.294531-0.494141 0.494141-0.32986 0.199559-0.816623 0.300781-1.458984 0.300781h-0.3125c-0.911459 0-2.351782-0.416664-4.322266-1.25-3.133682-1.319458-5.156901-2.38715-6.068359-3.203125-0.902778-0.815975-1.621962-1.862628-2.160157-3.138672-0.538192-1.267351-0.808593-2.64756-0.808593-4.140625 0-4.453115 1.585505-7.4529 4.753906-8.998047 1.006944-0.4947906 2.017576-0.7421875 3.033203-0.7421875zm-15.8457 0.078125h0.455078c1.71007 0 2.907987 0.2263328 3.59375 0.6777343 0.694445 0.4427089 1.041016 1.049705 1.041016 1.822266 0 0.4079874-0.09114 0.7304626-0.273438 0.9648437-0.182299 0.2343307-0.341586 0.3515625-0.480469 0.3515625-0.130217 0-0.820322-0.3775873-2.070312-1.132812-0.763888-0.4600693-1.568141-0.6914062-2.410156-0.6914062-0.833333 0-1.54449 0.2133238-2.134766 0.6386718-0.5815987 0.4166806-0.8730469 1.002612-0.8730469 1.757813s0.3174913 1.42424 0.9511719 2.005859c0.3211817 0.295131 1.297743 0.832028 2.929687 1.613281 1.631947 0.772561 2.759766 1.4757 3.384766 2.109375 0.868054 0.885418 1.302734 1.897998 1.302734 3.035157v0.441406c-0.0086 0.685783-0.177839 1.359827-0.507812 2.019531-0.633681 1.250016-1.706379 2.125448-3.216797 2.628906-0.781251 0.260435-1.648656 0.390625-2.603515 0.390625-2.960072 0-4.751953-0.633014-5.376954-1.90039-0.2170205-0.442709-0.3261719-0.846365-0.3261719-1.210938 0-0.347238 0.096142-0.633687 0.2871094-0.859375 0.1909669-0.23433 0.4073292-0.351562 0.6503906-0.351562 0.2430488 0 0.6386644 0.234363 1.185547 0.703125 0.5555552 0.468737 1.123482 0.846349 1.705078 1.132812 0.5815987 0.27777 1.315758 0.416016 2.201172 0.416016 0.885418 0 1.630642-0.234388 2.238282-0.703125 0.616317-0.468762 0.925781-1.135875 0.925781-2.003906 0-0.868057-0.439672-1.636266-1.316406-2.304688-0.390625-0.295131-1.323132-0.789924-2.798828-1.484375-1.467014-0.703118-2.503688-1.380214-3.111328-2.03125-0.8072895-0.859389-1.210938-1.893008-1.210938-3.099609 0-1.527762 0.5629351-2.730672 1.691406-3.607422 1.128471-0.8854173 2.518661-1.328125 4.167969-1.328125zm29.71289 0.2265625h0.625c0.668401 0 1.184244 0.1332414 1.548828 0.4023437 0.373263 0.2604095 0.560546 0.5388537 0.560546 0.8339844 0 0.286463-0.104172 0.6820634-0.3125 1.185547-0.208327 0.4947905-0.346565 1.075744-0.416015 1.744141-0.277778 2.66492-0.417969 5.19095-0.417969 7.578125l-0.02539 0.638672-0.01367 0.96289c0 1.35418 0.15321 2.166445 0.457031 2.435547 0.303818 0.269078 1.032985 0.402344 2.1875 0.402344 1.154512 0 2.126084-0.125236 2.916015-0.376953 0.156246-0.05216 0.460716-0.169389 0.91211-0.351562 0.451387-0.182426 0.802949-0.273438 1.054685-0.273438 0.512152 0 0.767579 0.328552 0.767579 0.988281-1e-6 0.859364-0.200305 1.429236-0.59961 1.707031-0.390627 0.277771-1.09375 0.416016-2.109375 0.416016v-0.0039h-1.992187l-0.324219-0.0098-3.972656-0.06641c-0.208328-0.0076-0.606982-0.0098-1.197266-0.0098-1.197916 0-1.801867-0.382616-1.810547-1.146484 0-0.138835 0.06207-0.347154 0.183594-0.625 0.130217-0.27777 0.229385-0.530146 0.298828-0.755859 0.07814-0.225764 0.208343-1.223382 0.390625-2.994141 0.182299-1.770835 0.273437-4.145636 0.273437-7.123047l0.02539-0.636719v-1.132746c0-0.4513764-0.09917-0.9461703-0.298828-1.484375-0.190967-0.5468725-0.287109-0.9294639-0.287109-1.146484 0-0.2257638 0.127164-0.4731607 0.378906-0.7421875 0.251742-0.2777701 0.650396-0.4160156 1.197267-0.4160156zm-13.47656 1.648438c-1.475694 0-2.707682 0.6510526-3.697266 1.953125-0.468749 0.6163149-0.846354 1.433584-1.132812 2.449219-0.286458 1.015634-0.429688 1.956162-0.429688 2.824218l-0.02734 0.457032v0.455078c0 1.093745 0.135199 2.065319 0.404296 2.916015 0.277779 0.850696 0.590278 1.511707 0.9375 1.980469 0.355902 0.460069 0.81163 0.863725 1.367188 1.210938 0.555555 0.338545 1.141495 0.507812 1.757812 0.507812h0.572266c0.659722 0 1.359809-0.247397 2.097656-0.742187 0.746528-0.494791 1.39757-1.145843 1.953125-1.953125 0.920139-1.35418 1.378907-2.973756 1.378907-4.857422v-0.44336c0-0.980888-0.130211-1.918389-0.390625-2.8125-0.486116-1.66667-1.270403-2.794504-2.355472-3.384765-0.668402-0.3732663-1.332466-0.5605469-1.992188-0.5605469z" fill="#4191ff" style="paint-order:fill markers stroke"/>
  </g>
</svg>
