<svg width="135" height="32" version="1.1" viewBox="0 0 35.71875 8.466667" xmlns="http://www.w3.org/2000/svg">
  <g transform="translate(-28.63152 -187.9509)">
    <path transform="matrix(.2645833 0 0 .2645833 28.63152 187.9509)" d="m7 0c-3.878 0-7 3.122-7 7v18c0 3.878 3.122 7 7 7h121c3.878 0 7-3.122 7-7v-18c0-3.878-3.122-7-7-7zm61.33398 3.982422h0.455078c1.710068 0 2.90799 0.2244048 3.59375 0.6757812 0.694446 0.4427087 1.041016 1.051658 1.041016 1.824219 0 0.4079874-0.09114 0.7285095-0.273437 0.9628906-0.1823 0.2343307-0.341587 0.3515625-0.480469 0.3515625-0.130217 0-0.820322-0.3775873-2.070313-1.132812-0.763888-0.4600693-1.56814-0.6894531-2.410156-0.6894531-0.833333 0-1.544494 0.2113707-2.134765 0.6367187-0.581599 0.4166803-0.873047 1.002612-0.873047 1.757812 0 0.7552252 0.317496 1.424266 0.951171 2.005859 0.321182 0.295131 1.297743 0.833981 2.929688 1.615234 1.631945 0.772561 2.759768 1.4757 3.384766 2.109375 0.868056 0.885418 1.302734 1.896049 1.302734 3.033203v0.44336c-0.0086 0.685783-0.177842 1.357874-0.507812 2.017578-0.633681 1.250016-1.706382 2.127401-3.216797 2.630859-0.781251 0.260435-1.648656 0.390625-2.603516 0.390625-2.960071 0-4.751953-0.634967-5.376953-1.902343-0.217021-0.442709-0.326172-0.846365-0.326172-1.210938 0-0.347212 0.09614-0.633661 0.287109-0.859375 0.190967-0.234331 0.40733-0.351562 0.650391-0.351562 0.243049 0 0.638667 0.234388 1.185547 0.703125 0.555558 0.468762 1.123482 0.846374 1.705078 1.132812 0.581596 0.277795 1.315755 0.417969 2.201172 0.417969s1.630644-0.234363 2.238281-0.703125c0.61632-0.468737 0.925781-1.137808 0.925781-2.005859 0-0.868057-0.439671-1.636266-1.316406-2.304688-0.390627-0.295131-1.323134-0.789925-2.798828-1.484375-1.467014-0.703118-2.503688-1.380214-3.111328-2.03125-0.807292-0.859389-1.210938-1.893033-1.210938-3.099609 0-1.527786 0.562933-2.728744 1.691407-3.605469 1.128471-0.8854173 2.518663-1.328125 4.167968-1.328125zm-51.69336 0.1445312c1.614584 0 2.531031 0.033972 2.748047 0.1035157 0.546875 0.1736053 0.820312 0.6002539 0.820312 1.277344v0.296875c0 0.468737-0.09114 0.7812291-0.273437 0.9375-0.173606 0.1476535-0.365879 0.2207031-0.574219 0.2207031h-0.02539c-0.208328 0-0.546871-0.089311-1.015626-0.2714844-0.477423-0.1909912-1.042318-0.2871093-1.693359-0.2871093-0.642361 0-1.11415 0.1121268-1.417969 0.3378906-0.295138 0.2257638-0.500432 0.5562942-0.613281 0.9902344-0.104164 0.425348-0.242411 2.217218-0.416015 5.376953-0.164939 3.151043-0.248047 4.931856-0.248047 5.339844 0 0.399294 0.08811 0.928161 0.261718 1.58789 0.173607 0.65973 0.259766 1.019329 0.259766 1.080079 0 0.425339-0.195322 0.755853-0.585937 0.990234-0.381944 0.234331-0.915798 0.351562-1.601563 0.351562-0.685763 0-1.214627-0.112126-1.587891-0.33789-0.373263-0.234331-0.560546-0.556831-0.560546-0.964844 0-0.182425 0.135199-0.568042 0.404296-1.158203 0.277778-0.598954 0.455078-1.184887 0.533204-1.757813 0.32985-2.543395 0.49414-5.595267 0.49414-9.154296 0-1.067691-0.120232-1.77083-0.363281-2.109375-0.243049-0.3472378-0.669699-0.5195312-1.277344-0.5195313-0.6076397 0-1.261721 0.1332414-1.964844 0.4023438-0.7031257 0.2604094-1.132812 0.390625-1.289062 0.390625-0.4253455 0-0.6386719-0.4457587-0.6386719-1.339844 0-0.8941093 0.4166671-1.411896 1.25-1.550781 0.8333329-0.1476535 3.458552-0.2207031 7.876953-0.2207031h0.75586zm85.85938 0.0625h0.25977l0.36523 0.052734c0.22569 0 0.44704 0.1140802 0.66406 0.3398437 0.22569 0.2169449 0.33789 0.5374671 0.33789 0.9628907v0.15625c0 0.4427086-0.1302 0.8203211-0.39062 1.132812-0.25174 0.3038236-0.64237 0.4550781-1.17188 0.4550781h-0.20703l-0.4043-0.052734c-0.23436 0-0.46072-0.1072738-0.67773-0.3242187-0.21702-0.2169449-0.32422-0.5424712-0.32422-0.9765625v-0.15625l0.0644-0.46875c0-0.1824252 0.10916-0.408758 0.32618-0.6777344 0.22569-0.2691024 0.51214-0.4042969 0.85937-0.4042969zm22.52539 1.667969h0.20899c0.37326 0 0.63867 0.1432245 0.79492 0.4296875 0.0608 0.1128819 0.15191 0.5195633 0.27343 1.222656 0.13022 0.6944252 0.27649 1.142137 0.44141 1.341797 0.16494 0.1995591 0.57857 0.4209129 1.23828 0.6640625 0.66841 0.2343307 1.00195 0.486707 1.00196 0.755859v0.142578c0 0.347238-0.3826 0.641717-1.14649 0.884766-0.75521 0.234331-1.24002 0.611943-1.45703 1.132813-0.42535 1.050356-0.63867 2.76107-0.63867 5.130859 0 1.111106 0.19032 1.866305 0.57226 2.265625 0.23438 0.24315 0.70314 0.412417 1.40625 0.507813 0.70313 0.0955 1.05469 0.342893 1.05469 0.742187 0 0.347213-0.21137 0.65973-0.63672 0.9375-0.41666 0.269102-0.98654 0.404297-1.70703 0.404297-1.34549 0-2.29102-0.499773-2.83789-1.498047-0.33854-0.624983-0.50781-2.088325-0.50781-4.388672 0-2.300346-0.039-3.636499-0.11719-4.009765-0.0781-0.373267-0.2945-0.737845-0.65039-1.09375-0.3559-0.355906-0.53516-0.629346-0.53516-0.820313 0-0.06954 0.42166-0.52526 1.26368-1.367188 0.18229-0.1821732 0.36459-0.5858288 0.54687-1.210938 0.19097-0.6250079 0.32617-1.036694 0.4043-1.236328 0.26041-0.6250079 0.60199-0.9375 1.02734-0.9375zm-42.55078 3.683594h0.285157c1.032987 0 1.889324 0.2052935 2.566406 0.6132814 0.677085 0.407987 1.015625 0.905807 1.015625 1.496094 0 0.685757-0.33051 1.029297-0.990235 1.029297-0.12152 0-0.546221-0.190307-1.27539-0.572266-0.729167-0.373241-1.328126-0.560547-1.796875-0.560547h-0.02734c-1.024307 0-1.826607 0.442708-2.408203 1.328125-0.572916 0.885417-0.859375 2.039294-0.859375 3.462891 0 1.423622 0.304472 2.478305 0.912109 3.164062 0.61632 0.685758 1.470704 1.029297 2.564454 1.029297 0.451384 0 1.071396-0.125237 1.861328-0.376953 0.789928-0.26041 1.271701-0.390625 1.445312-0.390625 0.355903 0 0.535156 0.185327 0.535156 0.558594 0 0.503483-0.499787 1.011286-1.498046 1.523437-0.998264 0.512151-1.97982 0.769531-2.94336 0.769531-2.578126 0-4.283854-1.015605-5.117187-3.046875-0.329864-0.807282-0.494145-1.645619-0.494145-2.513671v-0.59961c0-1.09377 0.169277-2.06034 0.507812-2.902344 0.651044-1.631949 1.648657-2.761736 2.994141-3.386718 0.876737-0.4166823 1.785157-0.6250004 2.722656-0.6250004zm-28.03516 0.0273438h0.560547c1.137151 0 2.095702 0.3806359 2.876953 1.144532 0.789929 0.7552 1.185547 1.731753 1.185547 2.929687v0.261719c0 0.850696-0.338543 1.452688-1.015625 1.808594-0.46875 0.251716-1.5625 0.504117-3.28125 0.755859-1.71875 0.251717-2.656249 0.402971-2.8125 0.455078-0.520831 0.182425-0.78125 0.530944-0.78125 1.042969 0 0.711811 0.304472 1.318813 0.912109 1.822265 0.60764 0.503484 1.422961 0.75586 2.447266 0.75586 0.47743 0 1.12847-0.13019 1.953125-0.390625 0.824653-0.26041 1.301433-0.390625 1.431641-0.390625 0.442708 0 0.664062 0.190306 0.664062 0.572266 0 0.512145-0.49783 1.024958-1.496094 1.537109s-2.03993 0.767578-3.125 0.767578h-0.287109c-1.657986 0-2.978081-0.525816-3.958984-1.576172-0.980904-1.059023-1.470704-2.468302-1.470703-4.230469v-0.574218c0-0.842004 0.164278-1.696397 0.49414-2.564454 0.668402-1.736107 1.759114-2.93402 3.269531-3.59375 0.79861-0.355902 1.608939-0.5332026 2.433594-0.5332026zm-13.0332 0.0507812c1.371528 0 2.483291 0.4817594 3.333984 1.445312 0.850694 0.95486 1.275391 2.243931 1.275391 3.867188v0.326171c0 1.093745-0.182292 2.101346-0.546875 3.021485-0.746527 1.901052-1.991537 3.128053-3.736328 3.683594-0.494793 0.15622-1.158855 0.265454-1.992188 0.326171-0.824652 0.06072-1.410589 0.169952-1.757812 0.326172-0.529512 0.24315-0.794922 0.680879-0.794922 1.314454 0 0.269095 0.04708 0.63368 0.142578 1.09375 0.104164 0.460062 0.15625 0.884763 0.15625 1.27539s-0.221354 0.773225-0.664062 1.146484c-0.442709 0.381934-0.992623 0.572266-1.652344 0.572266h-0.273438c-0.781251 0-1.171875-0.286474-1.171875-0.859375v-0.246094c0-0.121448 0.08116-0.464988 0.246094-1.029297 0.173606-0.555558 0.295792-1.154513 0.365235-1.796874 0.06943-0.633676 0.181644-2.217226 0.33789-4.751954 0.156246-2.534727 0.234375-4.266506 0.234375-5.195312 0-0.937499-0.06012-1.723746-0.181641-2.357422-0.112849-0.633676-0.169921-0.97719-0.169921-1.029297 0-0.460069 0.538845-0.689453 1.615234-0.689453l1.822266 0.3125c0.190967 0 0.638668-0.125237 1.341797-0.3769531 0.703118-0.2517166 1.393227-0.3789063 2.070312-0.3789063zm73.22852 0c1.37152 0 2.48329 0.4817594 3.33398 1.445312 0.8507 0.95486 1.27539 2.243931 1.27539 3.867188v0.326171c0 1.093745-0.18229 2.101346-0.54687 3.021485-0.74653 1.901052-1.99154 3.128053-3.73633 3.683594-0.49479 0.15622-1.15886 0.265448-1.99219 0.326171-0.82465 0.06072-1.41059 0.169952-1.75781 0.326172-0.52952 0.24315-0.79492 0.680879-0.79492 1.314454 0 0.269101 0.049 0.63368 0.14453 1.09375 0.10416 0.460068 0.15625 0.884763 0.15625 1.27539s-0.22136 0.773219-0.66407 1.146484c-0.4427 0.381934-0.99457 0.572266-1.65429 0.572266h-0.27344c-0.78125 0-1.17187-0.286474-1.17188-0.859375v-0.246094c0-0.121448 0.0831-0.464988 0.24805-1.029297 0.17361-0.555564 0.29384-1.154507 0.36328-1.796874 0.0695-0.633676 0.1836-2.217226 0.33985-4.751954 0.15624-2.534727 0.23437-4.266506 0.23437-5.195312 0-0.937499-0.0621-1.723746-0.18359-2.357422-0.11286-0.633676-0.16797-0.97719-0.16797-1.029297 0-0.460069 0.53689-0.689453 1.61328-0.689453l1.82422 0.3125c0.19097 0 0.63671-0.125237 1.33984-0.3769531 0.70313-0.2517166 1.39323-0.3789063 2.07032-0.3789063zm-84.14063 0.1445313c0.772568 0 1.160156 0.2994831 1.160156 0.8984371 0 0.425348-0.156251 0.993267-0.46875 1.705079-0.312502 0.711777-0.608941 1.485023-0.886719 2.318359-1.58854 4.756964-2.737413 7.759783-3.449219 9.009765-0.711806 1.258684-1.463977 2.24828-2.253906 2.96875-0.789931 0.729172-1.584201 1.093751-2.382812 1.09375-0.789932 0-1.183594-0.226332-1.183594-0.677734 0-0.399294 0.403645-0.763898 1.210937-1.09375 0.815973-0.329877 1.383905-0.710515 1.705078-1.144531 0.590277-0.789947 0.884766-1.597233 0.884766-2.421875 0-0.451377-0.307511-1.242603-0.923828-2.371094-0.61632-1.137134-1.13216-2.194868-1.548828-3.175781-1.42361-3.34201-2.136719-5.274078-2.136719-5.794922 0-0.234331 0.135202-0.447655 0.404297-0.638672 0.27778-0.190992 0.738498-0.285156 1.380859-0.285156s1.093099 0.27344 1.353516 0.820312c0.02603 0.06073 0.117175 0.438337 0.273437 1.132813 1.180554 4.314255 1.91775 6.574875 2.212891 6.783203 0.451389 0 1.068369-1.054683 1.849609-3.164063 0.529515-1.432281 0.855036-2.635201 0.976563-3.607421 0.130217-0.972221 0.23439-1.53211 0.3125-1.679688 0.243049-0.4513755 0.74587-0.6757811 1.509766-0.6757811zm71.49805 0.064453h0.46875c0.44271 0 0.72917 0.1172308 0.85937 0.3515631 0.13022 0.225761 0.19532 0.512214 0.19531 0.859374l-0.14257 3.501954-0.0274 0.351562-0.0391 1.06836v0.507812c0 1.250016 0.036 2.070336 0.10547 2.460938 0.0781 0.390624 0.22136 0.773218 0.42969 1.146484 0.20832 0.364598 0.3125 0.628055 0.3125 0.792969v0.117187c0 0.425348-0.21832 0.763883-0.65235 1.015625-0.43403 0.251717-1.023 0.378906-1.76953 0.378906h-0.32617c-0.43403 0-0.76454-0.09612-0.99023-0.287109-0.22569-0.199559-0.33789-0.412883-0.3379-0.638672v-0.285156c0-0.112882 0.0992-0.513487 0.29883-1.199219 0.19966-0.69445 0.30078-1.635003 0.30078-2.824219 0.026-0.338545 0.0391-0.572907 0.0391-0.703125l0.0391-0.716797 0.0254-0.351562c0.0434-0.607622 0.0644-1.081377 0.0644-1.419922l0.0137-0.519531c0-0.651036-0.10916-1.228964-0.32618-1.732422-0.20832-0.503483-0.3125-0.815976-0.3125-0.9375 0-0.625008 0.59093-0.9375001 1.77149-0.9375001zm-5.820315 0.1425781h0.195313c0.425345 0 0.763891 0.104122 1.015624 0.3125 0.251742 0.199559 0.376954 0.446956 0.376954 0.742188v0.169921c0 0.355906-0.125212 0.613286-0.376954 0.769532-0.243045 0.15622-0.633675 0.232422-1.171874 0.232422-1.223958 0-2.117403 0.429698-2.681641 1.289062-0.555555 0.859389-0.833984 2.379772-0.833985 4.558594 1e-6 0.312491 0.05209 0.794276 0.15625 1.445312 0.112857 0.651062 0.169922 1.140852 0.169922 1.470704 0 0.329848-0.179253 0.647348-0.535156 0.951171-0.355903 0.303824-0.806641 0.455078-1.353516 0.455079h-0.443359c-0.477432 0-0.845054-0.112127-1.105469-0.337891-0.251741-0.234331-0.378906-0.517754-0.378906-0.847656 0-0.338545 0.06207-0.680106 0.183594-1.027344 0.329862-0.937499 0.494142-1.971146 0.49414-3.099609 0.03472-0.625008 0.05273-1.075746 0.05273-1.353516v-1.003906c0-1.206602-0.06509-2.087016-0.195313-2.642578-0.130217-0.564234-0.195312-0.959859-0.195312-1.185547 0-0.529512 0.385632-0.792969 1.158203-0.792969 0.772568 0 1.332468 0.143224 1.679687 0.429687 0.0955 0.07811 0.217682 0.229365 0.365235 0.455079 0.156246 0.22576 0.294487 0.33789 0.416015 0.33789 0.02603 0 0.403634-0.221354 1.132813-0.664062 0.729167-0.442709 1.354166-0.664063 1.875-0.664063zm-41.81055 1.251953-0.07813 0.01172c-0.842013 0-1.57921 0.356548-2.212891 1.068359-0.633674 0.711811-0.951171 1.462032-0.951171 2.251954v0.208984c0 0.260435 0.239367 0.390625 0.716797 0.390625h0.3125l0.07812-0.01172 0.638672-0.05273c0.668402-0.0955 1.101127-0.142578 1.300782-0.142578 0.946179 0 1.659288-0.177298 2.136718-0.533204 0.225689-0.1736 0.337891-0.483047 0.337891-0.925781v-0.142578c0-0.651036-0.216362-1.168822-0.650391-1.550781-0.425348-0.381934-0.938152-0.572266-1.537109-0.572266zm-13.93164 0.03711c-0.9375 0-1.679688 0.374561-2.226563 1.121093-0.546875 0.73784-0.820312 1.826596-0.820313 3.267579l-0.02539 0.259765-0.05273 1.355469v0.910156c0 0.946167 0.190319 1.615233 0.572265 2.00586 0.390624 0.381952 0.942491 0.572265 1.654297 0.572265h0.248047c0.980901 0 1.801213-0.450745 2.460937-1.353515 0.659722-0.902778 0.988282-2.001518 0.988282-3.294922l0.02734-0.285157v-0.859375c0-1.154519-0.244358-2.057948-0.730468-2.708984-0.477433-0.659729-1.050348-0.990234-1.71875-0.990234zm73.22851 0c-0.9375 0-1.67968 0.374561-2.22656 1.121093-0.54687 0.73784-0.82031 1.826596-0.82031 3.267579l-0.0254 0.259765-0.0527 1.355469v0.910156c0 0.946167 0.19228 1.615233 0.57422 2.00586 0.39063 0.381958 0.94054 0.572265 1.65235 0.572265h0.24804c0.98091 0 1.80122-0.450739 2.46094-1.353515 0.65972-0.902778 0.99023-2.001518 0.99023-3.294922l0.0254-0.285157v-0.859375c0-1.154519-0.24241-2.057948-0.72852-2.708984-0.47743-0.659729-1.05035-0.990234-1.71875-0.990234z" fill="#4191ff" style="paint-order:fill markers stroke"/>
  </g>
</svg>
