<svg width="1070.502" height="1284.922" version="1.1" viewBox="0 0 283.2369 339.969" xmlns="http://www.w3.org/2000/svg" xmlns:xlink="http://www.w3.org/1999/xlink">
  <defs>
    <filter id="c" x="-.08816299" y="-.03768443" width="1.176326" height="1.075369" color-interpolation-filters="sRGB">
      <feGaussianBlur stdDeviation="0.23547934"/>
    </filter>
    <filter id="b" x="-.04203576" y="-.08567716" width="1.084072" height="1.171354" color-interpolation-filters="sRGB">
      <feGaussianBlur stdDeviation="0.19424438"/>
    </filter>
    <linearGradient id="a" x1="-193.1888" x2="-136.9008" y1="303.5341" y2="267.724" gradientTransform="matrix(-1 0 -1.085309 .9984482 153.4861 19.11205)" gradientUnits="userSpaceOnUse">
      <stop stop-color="#4191ff" offset="0"/>
      <stop stop-color="#84b8ff" offset="1"/>
    </linearGradient>
  </defs>
  <g transform="translate(119.3908 -103.0605)">
    <g transform="matrix(-1 0 0 1 44.45537 0)">
      <g fill="#474bc9">
        <path d="m-95.36306 408.6163c4.396058-1.31926 13.51296-2.99161 13.51296-2.99161 4.250067-0.94091 7.965177 1.51076 7.910705 3.38598l-0.309087 10.64039c-0.05447 1.87521-3.219088 8.28133-7.601618 8.28133 0 0-20.68761 2.31369-30.51273 0-2.48077-0.58419-5.73603-1.28257-6.67436-3.38598-1.14752-2.57237 0.68783-5.86115 2.78178-7.92075 5.06473-4.98163 13.70261-5.85172 20.89234-8.00936z" style="paint-order:fill markers stroke"/>
        <path d="m-86.02619 415.1473c4.607252-1.31926 14.16215-2.99161 14.16215-2.99161 4.454245-0.94091 8.347835 1.51076 8.290746 3.38598l-0.323935 10.64039c-0.05709 1.87521-3.373738 8.28133-7.966811 8.28133 0 0-21.68147 2.31369-31.9786 0-2.59995-0.58419-6.0116-1.28257-6.99501-3.38598-1.20265-2.57237 0.72088-5.86115 2.91543-7.92075 5.30804-4.98163 14.3609-5.85172 21.89604-8.00936z" style="paint-order:fill markers stroke"/>
        <rect x="111.3132" y="329.7116" width="9.230769" height="113.3179" rx="5.384614" ry="8.756347" style="paint-order:fill markers stroke"/>
        <rect x="83.07692" y="320.8461" width="80.76923" height="13.07691" rx="5.384615" ry="3.269229" style="paint-order:fill markers stroke"/>
      </g>
      <g>
        <path d="m15.81449 287.8462 133.5167-13.37444c1.75142-0.17544 2.43675 1.56611 3.18077 3.23587 7.47112 16.76713 4.98074 26.43762 0 35.56222-0.88266 1.61701-1.41862 3.23587-3.18077 3.23587h-139.3253c-1.762151 0-3.275075-1.44554-3.180772-3.23587l0.8955462-17.00177c0.094304-1.79034 6.342405-8.24644 8.093833-8.42188z" fill="#0d73ff" style="paint-order:fill markers stroke"/>
        <path transform="matrix(.2645833 0 0 .2645833 -66.90307 103.0605)" d="m10.49609 645.5664c-5.814688 0-10.49609 2.20486-10.49609 4.94336v0.16211c0 2.73849 4.681406 4.94335 10.49609 4.94335h675.291c5.81469 0 10.49609-2.20486 10.49609-4.94335v-0.16211c0-2.7385-4.6814-4.94336-10.49609-4.94336zm-60.49945 508.3645c-2.59711 3.2706-13.36251 16.2557-13.36251 16.2557l50.90884 41.7646c3.648525 2.7191 8.218257 2.8508 11.14648-0.127l401.8398-408.664c3.56536-3.62594 6.95163-3.39902 8.67382-2.85938-1.49207-0.9324-4.50615-3.18439-9.7539-8.23633 0 0-17.3968-98.04885-66.17534-94.11085-27.48116 2.90093-23.40585-1.29658-48.94073 29.1297-106.1378 126.4693-237.1724 296.7482-334.3365 426.8476zm459.2065-353.6301c1.65477 1.03407 1.39831 0.43815 0 0z" fill="#0d73ff" style="paint-order:fill markers stroke"/>
        <path transform="matrix(.2645833 0 0 .2645833 -66.90307 103.0605)" d="m841.5957 668.459c-0.37777-0.0176-0.76987-9e-3 -1.17773 0.0273 0 0-333.6791 19.69941-508.832 44.74609-0.49637 0.071-1.4822 0.56008-2.1156 1.02026-22.15178 16.09355-38.76945 38.73288-56.80037 59.33845-111.5471 127.475-317.2227 396.9928-317.2227 396.9928-2.597114 3.2705-2.568444 8.3767 1.080078 11.0957l60.19336 44.8613c3.648526 2.7192 8.220211 2.8508 11.14844-0.1269l351.5447-375.7177 461.0041-23.34275c6.54916-0.33161 8.55322-6.11699 11.83789-12.22852 18.53495-34.48668 27.80247-71.03833 0-134.4102-2.59569-5.91647-4.99362-11.99226-10.66016-12.25586z" fill="#4191ff" style="paint-order:fill markers stroke"/>
        <path transform="matrix(.2645833 0 0 .2645833 0 86.99999)" d="m198.8301 608.1445s-5.84612 0.53193-7.26953 1.0293c-6.87644 2.40279-10.53234 6.07681-12.66993 12.66797 0 0 0.0283 0.16786 0 0.24414-5.13641 13.8224-16.13085 42.33594-16.13085 42.33594l7.73437-3.03516 5.11524-8.96094-4.64063 9.80664h4.80469l8.16406-13.10547c0.10545 0.0794 0.21804 0.15599 0.32617 0.23438l-4.73633 12.05664 5.08789-1.45508 6.81446-8.27344c0.0439-6e-3 0.0869-4e-3 0.13086-0.0117l57.3125-9.61132c6.922-1.1608 29.14648 3.96202 29.14648-3.05664v-17.16799c0-7.01867-5.6521-12.55933-12.66992-12.66797z" fill="#f1a4ad" style="paint-order:fill markers stroke"/>
        <path d="m118.4386 194.5168 5.15835 3.71614c4.27636 3.08075 5.66496 9.34546 2.15813 13.27996l-34.61358 38.83485c-3.506829 3.93448-6.036206 6.9379-9.796898 3.24529l-1.812859-1.78004c-3.760692-3.69261-3.216008-5.68032-0.560875-10.23315l26.18777-44.90492c2.65514-4.55285 9.00362-5.23888 13.27996-2.15813z" fill="#ff3b6e" style="paint-order:fill markers stroke"/>
        <path transform="matrix(.2645833 0 0 .2645833 0 86.99999)" d="m485.5098 347.6953c-63.76439 0-115.0996 73.28146-115.0996 164.3086 0 64.33268 35.81688 136.4207 0 192.998-41.04319 64.83301 254.808 101.3773 230.1973 0-29.26114-120.5335 0-128.6654 0-192.998 0-91.02714-51.33327-164.3086-115.0976-164.3086z" fill="#ff3b6e" style="paint-order:fill markers stroke"/>
      </g>
      <rect x="88.63541" y="110.7333" width="44.18542" height="60.06041" rx="6.153838" ry="2.38497" fill-opacity="0" stroke="#fad0cf" stroke-linecap="round" stroke-linejoin="round" stroke-width=".05291667" style="paint-order:fill markers stroke"/>
      <g>
        <path d="m111.7456 108.4018c-0.66643-9e-3 -1.33169 0.0936-1.97581 0.32125l-31.32177 11.07134c-3.43527 1.21425-4.926377 5.49337-3.343719 9.5948l5.423712 13.46387c-0.0041 0.0163-0.0097 0.0318-0.01355 0.0483l-2.992628 12.57681c-0.302588 1.27163 0.284304 2.46223 1.315819 2.66991l8.231414 1.65742s3.304252 7.27307 6.026098 10.09098c2.390292 2.47466 5.260421 5.15795 8.672965 5.59612 10.49922 1.34813 30.16792-9.91748 30.16792-9.91748 3.43527-1.21426 4.92638-5.49386 3.34372-9.59528l-16.4524-42.04521c-1.28591-3.33241-4.1939-5.49151-7.08177-5.53277z" fill="#f6a7b0" style="paint-order:fill markers stroke"/>
        <path d="m126.0453 149.1553c6.15633 0 11.1125 4.95784 11.1125 11.11623v18.89884 3.84786s-4.95617 11.11624-11.1125 11.11624c-6.15632 0-10.49124-4.95926-10.62358-11.11624 0 0 1.04064-4.02429 0.84252-6.05113-0.56937-5.82491-1.33144-16.69557-1.33144-16.69557-0.48957-6.1389 4.95618-11.11623 11.1125-11.11623z" fill="#f6a7b0" style="paint-order:fill markers stroke"/>
        <path transform="matrix(.2645833 0 0 .2645833 0 86.99999)" d="m518.3906 354.459v8.44532s-2.42136 5.38794-6.55273 12.27734c31.91547 29.14286 52.99414 80.17057 52.99414 138.4941 0 64.3327-29.26114 72.46449 0 192.998 9.05157 37.28554-25.25931 55.89555-70.20117 61.32226 60.49806 1.16716 117.3282-16.23409 105.9766-62.99414-29.26114-120.5335 0-128.6654 0-192.998 0-74.7017-34.57451-137.4395-82.2168-157.5449z" fill="#4d4d4d" opacity=".105" style="paint-order:fill markers stroke"/>
      </g>
      <path transform="matrix(.2645833 0 0 .2645833 0 86.99999)" d="m463.8613 310.2402-26.25 9.14649c0.61221 7.48611 1.23545 14.74301 1.8125 20.64648 0.71612 7.32624-2.76555 21.20756-3.07813 22.43555 3.85134-3.56104 8.28382-7.87919 13.38868-13.10156 13.20245-11.73589 15.95099-26.08445 14.12695-39.12696z" fill="#282f39" fill-opacity=".07843137"/>
      <ellipse transform="matrix(.5667062 -.82392 .6045214 .7965889 0 0)" cx="-18.89171" cy="161.4859" rx="5.624986" ry="8.621309" fill-opacity="0" stroke="#282f39" stroke-linecap="round" stroke-linejoin="round" stroke-width="1.357634" style="paint-order:fill markers stroke"/>
      <g>
        <path transform="matrix(.2645833 0 0 .2645833 0 86.99999)" d="m476.3906 234.918c-8.98882 43.65376-37.94865 78.47667-70.01757 94.67773l72.96093-25.78906zm-93.68359 103.043c-0.37277 0.0751-0.74665 0.16672-1.11914 0.23633l-0.0801 0.1875z" fill="#e69da6"/>
        <path d="m103.0552 103.0605c-12.05402 0.42473-36.66046 12.44568-31.37586 24.59798 0.902608 1.82666 3.995883 0.89086 6.030605 0.99712 5.185548 0.27081 13.28945-3.71295 15.55027-0.92648 4.105016 4.66043 13.80438 20.37257 23.49893 32.77736 2.624 3.35757 1.2789 7.00201 3.79117 9.59025 6.76947 6.9742 16.69899 9.5926 19.67885 3.34293 3.17567-6.66034 0.88254-16.02016-1.17623-25.16853-4.88787-21.71986-19.49586-44.70145-35.99773-45.21063z" fill="#282f39" style="paint-order:fill markers stroke"/>
        <rect transform="matrix(.9493913 -.3140957 .1277899 .9918013 0 0)" x="73.97035" y="166.3052" width="19.73768" height="1.412011" rx=".6853358" ry="1.412011" fill="#282f39" style="paint-order:fill markers stroke"/>
        <ellipse cx="109.1406" cy="143.8062" rx="5.953125" ry="8.202083" fill="#f6a7b0" style="paint-order:fill markers stroke"/>
        <rect x="-113.3062" y="270.0592" width="231.172" height="5.378116" rx="3.484703" ry="2.645833" fill="#474bc9" style="paint-order:fill markers stroke"/>
      </g>
      <path d="m106.3084 189.1359z" fill="none" stroke="#000" stroke-width=".2645833px"/>
      <path d="m106.3084 189.1359" fill="none" stroke="#000" stroke-width=".2645833px"/>
      <g>
        <rect transform="matrix(1 0 .535418 .8445872 0 0)" x="-198.2132" y="255.4842" width="74.78767" height="57.71939" ry="4.864795" fill="#84b8ff" style="paint-order:fill markers stroke"/>
        <rect transform="matrix(1 0 .5420672 .8403352 0 0)" x="-201.0772" y="258.666" width="73.6214" height="56.12232" ry="4.730188" fill="url(#a)" style="paint-order:fill markers stroke"/>
        <rect x="-26.64442" y="264.5277" width="115.4699" height="5.531495" ry="0" fill="#4191ff" style="paint-order:fill markers stroke"/>
        <rect x="43.1907" y="264.5277" width="45.63482" height="5.531495" ry="0" fill="#84b8ff" style="paint-order:fill markers stroke"/>
        <path transform="matrix(.2645833 0 0 .2645833 0 86.99999)" d="m532.5957 407.707c-7.18604-3e-3 -14.10646 1.49906-19.76172 4.81445-18.0969 10.60925-19.73735 12.45847-21.00976 16.63477-1.01764 3.34004-37.81824 124.1311-55.21875 181.2441l-156.748-7.92383c-9.73427-0.49217-23.90714-4.81736-26.2539 5.12696l-6.33985 26.85937c-2.34676 9.94432 10.97774 11.70555 20.50391 13.10938l159.2754 23.47265c1.65017 1.37528 3.66223 2.48675 6.01758 3.23633l30.78906 9.79883c8.59601 2.73573 18.94788-1.37428 22.47656-9.42774 0 0 93.30994-212.9616 95.07422-216.9883 1.7644-4.02678 3.07655-14.81936-8.16992-31.3125-7.73195-11.33901-24.82547-18.63757-40.63477-18.64453z" fill="#ff3b6e" style="paint-order:fill markers stroke"/>
        <rect transform="rotate(-28.60511)" x="-72.52201" y="195.4285" width="13.84615" height="19.23077" ry="6.730769" fill="#f1a4ad" style="paint-order:fill markers stroke"/>
        <path d="m65.87269 221.8078 25.62757 14.92695c2.16108 1.25874 2.431574 5.06149 0.906109 8.06549l-2.362484 4.65228c-1.525464 3.004-4.385746 4.24353-6.413193 2.77923 0 0-27.86227-20.12319-41.79349-30.18467-2.027441-1.46427 3.267806-3.05457 5.119723-5.26648 1.063794-1.27059 0.728095-4.68855 1.973528-3.77946 1.367412 0.99812 2.697401 0.50966 16.94223 8.80666z" fill="#ff3b6e" style="paint-order:fill markers stroke"/>
        <path transform="matrix(.2645833 0 0 .2645833 0 86.99999)" d="m581.4004 457.6641c2.09881-15.92766-12.93444-53.4598-20.28541-39.00883-18.33912 59.93685-53.73809 199.105-93.03437 238.4013 0 0-40.52507 1.45279-47.97157 1.45279-24.52849 0-75.54975-14.12405-98.84848-17.4441 0 0-51.97931 6.72972-71.22931-14.5359-0.55298 0.69122-0.99612 1.3615-1.37305 2.02148l-1.22851 5.21094c0.77654 5.93366 9.47957 10.40963 21.85156 14.0332l157.7617 23.25c1.65017 1.37528 3.66223 2.48675 6.01758 3.23633l30.78906 9.79883c8.59601 2.73573 18.94788-1.37428 22.47656-9.42774 0 0 93.30994-212.9616 95.07422-216.9883 1.7644-4.02678 11.24647 16.49314 0 0-1.18229-1.73384 1.582 1.53328 0 0z" fill="#282f39" opacity=".09800002"/>
      </g>
      <g transform="matrix(.7654309 0 0 .7654309 9.747011 51.62324)" stroke-width="1.306454">
        <path d="m21.53846 185.8462h25l-6.346154 34.23077h-11.92308z" fill="#7cb3ff" style="paint-order:fill markers stroke"/>
        <path transform="matrix(.2645833 0 0 .2645833 0 86.99999)" d="m81.4043 373.5918 2.429687 12.35547h89.76758l2.29102-12.35547z" fill="#282f39" opacity=".203" style="paint-order:fill markers stroke"/>
        <rect x="20.38462" y="180.0769" width="27.88462" height="7.692308" fill="#7cb3ff" style="paint-order:fill markers stroke"/>
      </g>
      <g>
        <path d="m38.2285 207.367s3.613159-1.16375 5.373016-0.67477c1.040662 0.28915 1.929634 3.75943 1.346106 4.49204-0.332432 0.38134-0.940306-8e-3 -1.410388 0-3.078131 0.0502-6.377527 1.62438-9.231601 0.3009-0.113364-0.0526-0.245976-0.16115-0.256436-0.3009-0.07887-1.05373 0.575375-1.91386 1.568083-2.61365 0.886025-0.62459 0.935289-0.65295 2.61122-1.20362z" fill="#1a1a1a" filter="url(#b)" opacity=".115" style="paint-order:fill markers stroke"/>
        <path d="m38.2285 206.5977s3.613159-1.16375 5.373016-0.67477c1.040662 0.28915 1.929634 3.75943 1.346106 4.49204-0.332432 0.38134-1.900425 0.1536-2.852696 0.19231-2.594541 0.10546-5.424186 1.18052-7.789293 0.10859-0.12003-0.0544-0.245976-0.16115-0.256436-0.3009-0.07887-1.05373 0.575375-1.91386 1.568083-2.61365 0.886025-0.62459 0.935289-0.65295 2.61122-1.20362z" fill="#f1a4ad" style="paint-order:fill markers stroke"/>
        <path d="m27.24978 198.7844c-0.169717-5e-3 -0.327915 0.0243-0.459919 0.1049-0.416311 0.25424-0.602406 2.79803-0.368969 3.44217 0.132988 0.33529 0.205595 0.4065 0.394808 0.50746 0.166103 0.0886 0.342904 0.18247 0.523999 0.27544-0.150405 5e-3 -0.291353 0.0308-0.411345 0.0915-0.453593 0.22929-0.656385 2.52377-0.402042 3.10472 0.144897 0.3024 0.22379 0.36628 0.429947 0.45734 0.236942 0.10466 0.493033 0.21704 0.756542 0.32453-0.396166 0.3727-0.560171 2.11482-0.321426 2.5771 0.144896 0.25635 0.224306 0.31038 0.430464 0.38758 0.3214 0.12034 0.673936 0.25384 1.040246 0.36948-0.107984 0.01-0.209502 0.0296-0.299204 0.0641-0.453594 0.17443-0.656386 1.91968-0.402045 2.36161 0.144899 0.23003 0.22379 0.27903 0.429948 0.3483 1.185675 0.3984 2.780041 0.97976 4.024045 0.18139 0.04941-0.0317 0.107061-0.0971 0.11162-0.18139 0.03438-0.63564-0.250989-1.15451-0.683678-1.57665-0.386191-0.37675-0.407429-0.39386-1.137915-0.72605 0 0-0.209767-0.0926-0.509013-0.19585 0.504891-2e-3 1.000231-0.12103 1.449522-0.44235 0.04941-0.0353 0.107064-0.10864 0.111623-0.20257 0.03438-0.70837-0.250473-1.28658-0.683162-1.757-0.386191-0.41987-0.407948-0.43908-1.138434-0.80926 0 0-0.04943-0.022-0.05943-0.0269 0.313516-0.0746 0.618059-0.21625 0.903822-0.45733 0.04941-0.0417 0.10758-0.12793 0.112139-0.23875 0.03438-0.8356-0.250992-1.51781-0.683681-2.07274-0.386191-0.49529-0.407429-0.51779-1.137915-0.95447 0 0-0.07657-0.0401-0.108519-0.0579 0.469109 7.6e-4 0.929426-0.15403 1.346687-0.5793 0.04535-0.0462 0.09865-0.1417 0.102836-0.26458 0.03155-0.92648-0.230227-1.68277-0.627351-2.29805-0.354449-0.54917-0.374452-0.57416-1.044898-1.05833 0 0-0.953857-0.67545-1.689304-0.69815z" fill="#1a1a1a" filter="url(#c)" opacity=".105" style="paint-order:fill markers stroke"/>
        <path transform="matrix(.2645833 0 0 .2645833 0 86.99999)" d="m100.084 422.1289c-0.641451-0.0198-1.239366 0.0918-1.738277 0.39648-1.573459 0.96091-2.276813 10.57522-1.394531 13.00977 0.502632 1.26723 0.777052 1.53638 1.492187 1.91796 0.627792 0.335 1.296018 0.68964 1.980471 1.04102-0.568462 0.0191-1.101178 0.11645-1.554689 0.3457-1.714368 0.86661-2.480828 9.53866-1.519532 11.73438 0.547643 1.14293 0.845821 1.38435 1.625 1.72851 0.895529 0.39557 1.863431 0.82032 2.859371 1.22657-1.49732 1.40865-2.117182 7.99304-1.21484 9.74023 0.54764 0.96888 0.84777 1.17307 1.62695 1.46485 1.21474 0.45484 2.54716 0.95942 3.93164 1.39648-0.40813 0.0376-0.79182 0.11181-1.13085 0.24219-1.71437 0.65926-2.48083 7.25549-1.51954 8.92578 0.54765 0.8694 0.84582 1.0546 1.625 1.3164 4.48129 1.50577 10.50724 3.70301 15.20899 0.68555 0.18674-0.11981 0.40464-0.36689 0.42187-0.68555 0.12994-2.40241-0.94862-4.36349-2.58398-5.95898-1.45962-1.42397-1.53989-1.48862-4.30078-2.74414 0 0-0.79282-0.34993-1.92383-0.74023 1.90825-8e-3 3.7804-0.45742 5.47851-1.67188 0.18675-0.13342 0.40465-0.41058 0.42188-0.76562 0.12994-2.67727-0.94667-4.86266-2.58203-6.64063-1.45962-1.58691-1.54185-1.65949-4.30274-3.05859 0 0-0.18683-0.0833-0.22461-0.10157 1.18494-0.28179 2.33597-0.81732 3.41602-1.72851 0.18675-0.15761 0.4066-0.4835 0.42383-0.90235 0.12994-3.15817-0.94863-5.73661-2.58399-7.83398-1.45962-1.87196-1.53989-1.95698-4.30078-3.60742 0 0-0.2894-0.15165-0.41015-0.21875 1.77301 3e-3 3.51279-0.58215 5.08984-2.18946 0.1714-0.17461 0.37286-0.53557 0.38867-1 0.11925-3.50165-0.87015-6.36007-2.37109-8.68554-1.33965-2.07561-1.41525-2.17007-3.94922-4 0 0-3.60513-2.55287-6.38477-2.63867z" fill="#f1a4ad" style="paint-order:fill markers stroke"/>
        <rect x="70.71068" y="275.2429" width="15.22999" height="165.1058" rx="2.777014" ry="3.150756" fill="#474bc9" style="paint-order:fill markers stroke"/>
        <rect x="78.01837" y="275.2429" width="7.922299" height="164.558" rx="1.44454" ry="3.1403" fill="#1c1d5e" style="paint-order:fill markers stroke"/>
      </g>
    </g>
  </g>
</svg>
