<svg width="200" height="200" version="1.1" viewBox="0 0 52.91666 52.91667" xmlns="http://www.w3.org/2000/svg">
  <g transform="translate(-96.78336 -178.712)">
    <g transform="translate(25.34586 -30.97549)">
      <g transform="translate(71.4375 -34.39583)">
        <rect y="244.0833" width="52.91666" height="52.91666" fill="#b0b7ff" style="paint-order:fill markers stroke"/>
        <g transform="translate(-10.58334 42.33332)">
          <rect x="10.58334" y="201.75" width="52.91666" height="5.291666" fill="#474bc9" style="paint-order:fill markers stroke"/>
          <g transform="translate(37.24519 -14.55209)" fill="#fcfef7">
            <circle cx="11.90625" cy="218.9479" r="1.322917" style="paint-order:fill markers stroke"/>
            <circle cx="17.09616" cy="218.9479" r="1.322917" style="paint-order:fill markers stroke"/>
            <circle cx="22.28606" cy="218.9479" r="1.322917" style="paint-order:fill markers stroke"/>
          </g>
        </g>
      </g>
      <g transform="translate(-1.737362 1.563481)">
        <g transform="translate(50.54008 206.4732)">
          <path d="m50.99481 9.113188-0.547769 1.889805-0.01034 0.283188 0.12609 1.566313-2.525945 0.399975-0.363802-1.52859-0.09767-0.266134-1.105357-1.627806-1.722893 0.5596566 0.06304 1.966804 0.07752 0.272335 0.604097 1.450557-2.278415 1.161169-0.818554-1.341519-0.175184-0.222726-1.553908-1.207162-1.465546 1.065051 0.667145 1.851049 0.15813 0.23513 1.022676 1.193207-1.808157 1.80816-1.19321-1.022678-0.235128-0.158128-1.851051-0.66766-1.064533 1.465543 1.206643 1.554427 0.222727 0.174667 1.341519 0.819071-1.160653 2.277895-1.451073-0.603578-0.272335-0.07751-1.966804-0.06305-0.559658 1.722893 1.62781 1.10536 0.266133 0.09715 1.528588 0.364318-0.399976 2.525427-1.566312-0.12609-0.283186 0.01085-1.889807 0.547772v1.811774l1.889807 0.547773 0.283186 0.01033 1.566312-0.12609 0.399976 2.525427-1.528588 0.364318-0.266133 0.09767-1.62781 1.104842 0.559658 1.722893 1.966804-0.06253 0.272335-0.07751 1.451073-0.604097 1.160653 2.278415-1.341519 0.818554-0.222727 0.175184-1.206643 1.553908 1.064533 1.465546 1.851051-0.667661 0.235128-0.157612 1.19321-1.022678 1.808157 1.80816-1.022676 1.192691-0.15813 0.235643-0.667145 1.850536 1.465546 1.065051 1.553908-1.206645 0.175184-0.223243 0.818554-1.341003 2.278415 1.160653-0.604097 1.450557-0.07752 0.272851-0.06304 1.966804 1.722893 0.559658 1.105357-1.628326 0.09767-0.265618 0.363802-1.528587 2.525945 0.399976-0.12609 1.566312 0.01034 0.283186 0.547769 1.889807h1.811777l0.54777-1.889807 0.01085-0.283186-0.12609-1.566312 2.525427-0.399976 0.363802 1.528587 0.09767 0.265618 1.105361 1.628326 1.722892-0.559658-0.06304-1.966804-0.07752-0.272851-0.604099-1.450557 2.278415-1.160653 0.818554 1.341003 0.175183 0.223243 1.553912 1.206645 1.465543-1.065051-0.667142-1.850536-0.158131-0.235643-1.022675-1.192691 1.808157-1.80816 1.19321 1.022678 0.235127 0.157612 1.851049 0.667661 1.064535-1.465546-1.206645-1.553908-0.222724-0.175184-1.341522-0.818554 1.160653-2.278415 1.451075 0.604097 0.272333 0.07751 1.966807 0.06253 0.559654-1.722893-1.627806-1.104842-0.266134-0.09767-1.52859-0.364318 0.399975-2.525427 1.566315 0.12609 0.283186-0.01033 1.889808-0.547773v-1.811774l-1.889808-0.547772-0.283186-0.01085-1.566315 0.12609-0.399975-2.525427 1.52859-0.364318 0.266134-0.09715 1.627806-1.10536-0.559654-1.722893-1.966807 0.06305-0.272333 0.07751-1.451075 0.603578-1.160653-2.277896 1.341522-0.81907 0.222724-0.174668 1.206645-1.554427-1.064535-1.465543-1.851049 0.667661-0.235127 0.158128-1.19321 1.022678-1.808157-1.80816 1.022675-1.193207 0.158131-0.23513 0.667142-1.851049-1.465543-1.065051-1.553912 1.207161-0.175183 0.222727-0.818554 1.341519-2.278415-1.161169 0.604099-1.450557 0.07752-0.272335 0.06304-1.966804-1.722892-0.5596576-1.105361 1.627807-0.09767 0.266134-0.363802 1.52859-2.525427-0.399976 0.12609-1.566312-0.01085-0.283189-0.54777-1.889805zm0.905889 7.131862a13.22917 13.22917 0 0 1 13.22917 13.22917 13.22917 13.22917 0 0 1-13.22917 13.22917 13.22917 13.22917 0 0 1-13.22917-13.22917 13.22917 13.22917 0 0 1 13.22917-13.22917z" fill="#ff5e87" stroke="#ff5e87" stroke-width=".2645833"/>
        </g>
        <g transform="translate(69.58619 42.13489)" stroke="#4191ff" stroke-width=".79375">
          <g transform="translate(.3976486)" fill="#474bc9" stroke-linecap="round" stroke-linejoin="round">
            <path d="m33.20366 193.8125a13.22917 13.22917 0 0 1-13.22917 13.22917 13.22917 13.22917 0 0 1-13.22917-13.22917 13.22917 13.22917 0 0 1 13.22917-13.22917 13.22917 13.22917 0 0 1 13.22917 13.22917z" style="paint-order:fill markers stroke"/>
            <path d="m10.58333 184.51a13.22917 13.22917 0 0 0-3.838008 9.30279 13.22917 13.22917 0 0 0 3.831291 9.30228 13.22917 13.22917 0 0 0 3.838008-9.30228 13.22917 13.22917 0 0 0-3.831291-9.30279z" style="paint-order:fill markers stroke"/>
            <path d="m29.37237 184.51a13.22917 13.22917 0 0 0-3.838008 9.30279 13.22917 13.22917 0 0 0 3.831291 9.30228 13.22917 13.22917 0 0 0 3.838008-9.30228 13.22917 13.22917 0 0 0-3.831291-9.30279z" style="paint-order:fill markers stroke"/>
          </g>
          <g transform="translate(-.7945255)" fill="none">
            <path d="m21.16667 180.5833v26.45834"/>
            <path d="m34.39583 193.8125-26.45833-1e-5"/>
          </g>
        </g>
      </g>
    </g>
  </g>
</svg>
