<svg width="75" height="32" version="1.1" viewBox="0 0 19.84375 8.466667" xmlns="http://www.w3.org/2000/svg">
  <g transform="translate(-28.63152 -187.9509)">
    <path transform="matrix(.2645833 0 0 .2645833 28.63152 187.9509)" d="m8.076172 0c-4.474616 0-8.076172 3.122-8.076172 7v18c0 3.878 3.601556 7 8.076172 7h58.84766c4.474615 0 8.076172-3.122 8.076172-7v-18c0-3.878-3.601557-7-8.076172-7zm58.34375 6.390625h0.234375c0.494793 0 0.833333 0.1220848 1.015625 0.3652344 0.182299 0.2343307 0.273437 0.6930984 0.273437 1.378906l-0.105468 1.941406c-0.02603 0.303823-0.03906 0.468112-0.03906 0.49414l-0.02539 0.494141c-0.01739 0.321159-0.0354 0.646685-0.05273 0.976563l-0.03906 0.496093-0.03906 0.742188c-0.138885 2.638891-0.207031 4.58702-0.207031 5.845703 0 1.249991 0.05511 2.14844 0.167969 2.695312 0.112856 0.546898 0.29211 1.010645 0.535156 1.392579 0.243049 0.381933 0.363281 0.634335 0.363281 0.755859v0.15625c0 0.381934-0.190322 0.686421-0.572265 0.912109-0.37328 0.225764-0.88109 0.337891-1.523451 0.337891h-0.677734c-0.399305 0-0.750869-0.112127-1.054688-0.337891-0.295141-0.23433-0.441406-0.49974-0.441406-0.794921v-0.351563l0.07813-0.546875c0.104164-0.7552 0.16428-1.31814 0.181641-1.691406 0.02605-0.381959 0.06511-0.907775 0.117187-1.576172 0.05208-0.67709 0.13519-2.114364 0.248047-4.310547 0.121524-2.20485 0.18164-3.389749 0.18164-3.554687l0.05273-0.976563 0.02539-0.962891c0-0.9201382-0.08311-1.576195-0.248047-1.966796-0.156246-0.3993197-0.234375-0.7198418-0.234375-0.9628906 0-0.6336756 0.59592-0.9511719 1.785157-0.9511719zm-28.39844 0.1699219h0.259766c0.703126 0 1.150825 0.1692676 1.341797 0.5078125 0.190967 0.3298519 0.285156 0.9448783 0.285156 1.847656l-0.06445 2.070312-0.02539 0.585938v0.769531c0 0.329877 0.05209 0.577249 0.15625 0.742187 0.112857 0.164788 0.402355 0.246094 0.871094 0.246094 0.0086 0 0.291988-0.06504 0.847656-0.195312 0.564236-0.130268 1.145182-0.195313 1.744141-0.195313 1.293402 0 2.374129 0.512807 3.242188 1.537109 0.868056 1.024305 1.302734 2.274297 1.302734 3.75v0.9375c0 0.729174-0.143227 1.500432-0.429688 2.316407-0.295138 0.815975-0.711805 1.524092-1.25 2.123047-1.10243 1.215294-2.461586 1.822265-4.076172 1.822265h-0.287109c-0.451386 0-1.03233-0.08616-1.744141-0.259765-0.711805-0.173607-1.175565-0.259766-1.392578-0.259766l-0.873046 0.07813c-0.8941 0-1.341797-0.447712-1.341797-1.341797v-0.533203c0-0.529512 0.104172-2.46158 0.3125-5.794922 0.21702-3.333342 0.326171-5.458768 0.326171-6.378906 0-0.920139-0.07313-1.685347-0.220703-2.292969-0.147578-0.6076472-0.222656-0.9361993-0.222656-0.9882812 0-0.7291717 0.413629-1.09375 1.238281-1.09375zm-25.18359 0.5761719c4.060585 0 6.091838 1.423038 6.09375 4.267578v4e-3c-9.94e-4 1.378436-0.516837 2.52606-1.548829 3.445313-0.503473 0.442708-0.755859 0.682075-0.755859 0.716796 0 0.03478 0.299481 0.251147 0.898438 0.650391 1.414931 0.928832 2.123047 2.261934 2.123047 3.998047 0 1.72742-0.750216 3.081587-2.251954 4.0625-1.197913 0.789921-3.103946 1.185547-5.716796 1.185547h-0.3125l-0.3125-0.01172h-0.3125c-1.944446 0-3.13737-0.04708-3.580079-0.142578-0.4427087-0.104156-0.6640625-0.278428-0.6640625-0.521577v-0.208985c0-0.208378 0.130208-0.572981 0.390625-1.09375 0.1215244-0.347238 0.2126627-0.806005 0.2734375-1.378906 0.2430488-2.282986 0.3632812-4.892125 0.3632812-7.826172l0.066406-1.849609 0.025391-0.597656 0.013672-0.91211c0-0.815975-0.062069-1.440984-0.1835938-1.875l-0.1289064-0.4296875c-0.06075-0.2083779-0.091797-0.4036887-0.091797-0.5859375 0-0.3211842 0.2343754-0.5425381 0.703125-0.6640625 0.4687497-0.1214488 1.375215-0.1816406 2.720704-0.1816406l0.300781-0.011719c0.208327-0.00756 0.41666-0.011719 0.625-0.011719zm-0.611329 1.701172c-0.668404 0-1.116103 0.078155-1.341796 0.234375-0.225689 0.1562205-0.337891 0.4656868-0.337891 0.9257813-0.03472 0.2777701-0.05273 0.4500891-0.05273 0.5195311l-0.128907 2.410156v0.220704l-0.03906 0.65039v0.222656l-0.01367 0.207032c0 0.338545 0.07312 0.559898 0.220703 0.664062 0.156246 0.104063 0.455726 0.15625 0.898438 0.15625h0.535156l0.103515-0.0098h0.103516l0.326164-0.011684 0.650391-0.05274c0.902778 0 1.644966-0.320547 2.226562-0.96289 0.590279-0.642369 0.886719-1.397569 0.886719-2.265625v-0.238276c0-0.876749-0.304466-1.540811-0.91211-1.992187-0.598954-0.4514026-1.393228-0.6777354-2.382812-0.6777354zm15.0918 3.451171h0.650391c0.876734 0 1.649955 0.164264 2.318359 0.494141 0.668402 0.321184 1.176215 0.760866 1.523438 1.316406 0.355903 0.555566 0.572262 1.27974 0.650391 2.173829 0.01739 0.208377 0.02539 1.219004 0.02539 3.033203 0 1.814248 0.02302 2.860901 0.06641 3.138671 0.05208 0.269106 0.19032 0.599608 0.416016 0.990235 0.234381 0.390627 0.351562 0.711171 0.351562 0.962891 0 0.251716-0.122185 0.468066-0.365234 0.65039-0.234381 0.173606-0.575962 0.261719-1.027344 0.261719-0.451389 0-0.943142-0.109227-1.472656-0.326172-0.529514-0.225764-0.915147-0.337891-1.158203-0.337891-0.02605 0-0.460734 0.156259-1.302734 0.46875-0.842014 0.303824-1.553167 0.455082-2.134766 0.455078h-0.287109c-0.972223 0-1.800566-0.307513-2.486328-0.923828-0.677088-0.616315-1.015626-1.4937-1.015626-2.630859s0.372611-2.022574 1.119141-2.65625c0.746527-0.642368 1.654947-1.080097 2.722656-1.314453 0.32118-0.06954 0.855036-0.160556 1.601563-0.273438 0.74653-0.112882 1.25434-0.230113 1.523437-0.351562 0.46875-0.216945 0.703125-0.625577 0.703125-1.22461 0-0.607622-0.200302-1.081376-0.599609-1.419921-0.399305-0.347238-0.876085-0.519532-1.431641-0.519532-0.546875 0-1.268011 0.203338-2.162109 0.611329-0.894098 0.407987-1.462022 0.611328-1.705078 0.611328-0.581596 0-0.873047-0.372609-0.873047-1.119141 0-0.55554 0.468751-1.037322 1.40625-1.445313 0.946182-0.41668 1.927735-0.624996 2.943359-0.625zm29.16602 0.248047h0.560547c1.137151 0 2.095702 0.380639 2.876953 1.144532 0.789929 0.7552 1.185547 1.731753 1.185547 2.929687v0.261719c0 0.850696-0.338543 1.452688-1.015625 1.808594-0.46875 0.251716-1.5625 0.504117-3.28125 0.755859-1.71875 0.251717-2.656249 0.402971-2.8125 0.455078-0.520832 0.182425-0.78125 0.530944-0.78125 1.042969 0 0.711811 0.302519 1.318807 0.910156 1.822265 0.60764 0.503485 1.424914 0.75586 2.449219 0.75586 0.477432 0 1.128472-0.13019 1.953125-0.390625 0.824652-0.26041 1.301432-0.390625 1.431641-0.390625 0.442708 0 0.664062 0.190305 0.664062 0.572266 0 0.512151-0.499783 1.024958-1.498047 1.537109s-2.03993 0.767578-3.125 0.767578h-0.285156c-1.657986 0-2.97808-0.525816-3.958985-1.576172-0.980903-1.059023-1.470703-2.468302-1.470703-4.230469v-0.574218c0-0.842004 0.164279-1.696396 0.494141-2.564454 0.668402-1.736113 1.757161-2.934019 3.267578-3.59375 0.798612-0.355905 1.610894-0.533203 2.435547-0.533203zm-0.07813 1.654297-0.07813 0.01172c-0.842013 0-1.57921 0.356548-2.212891 1.068359-0.63368 0.711811-0.95117 1.462031-0.951172 2.251954v0.208984c0 0.260435 0.239365 0.390625 0.716797 0.390625h0.3125l0.07813-0.01172 0.636719-0.05273c0.668402-0.0955 1.103079-0.142578 1.302735-0.142578 0.946179 0 1.657335-0.179251 2.134765-0.535157 0.225688-0.173606 0.339844-0.481094 0.339844-0.923828v-0.142578c0-0.651036-0.218316-1.168822-0.652344-1.550781-0.425348-0.381934-0.936199-0.572266-1.535156-0.572266zm-13.9707 0.05078c-0.425348 0-0.894099 0.146275-1.40625 0.441406-0.503474 0.295156-0.860029 0.643674-1.068359 1.042968-0.460072 0.868059-0.689454 2.238283-0.689454 4.113282v1.199218c0.02605 0.260412 0.03906 0.476785 0.03906 0.650391 0 0.625008 0.190322 1.132811 0.572265 1.523438 0.390627 0.381933 0.9375 0.572265 1.640626 0.572265v2e-3h0.390624c0.946182 0 1.740452-0.46875 2.382813-1.40625 0.651041-0.946167 0.97656-2.232212 0.976563-3.855468v-0.416016l-0.01367-0.142578-0.01172-0.273438c-0.0086-0.0955-0.01367-0.188461-0.01367-0.27539 0-0.842003-0.234375-1.579215-0.703125-2.212891-0.468747-0.642368-1.041665-0.96289-1.71875-0.96289zm-30.53516 2.36914c-0.260417 0.02595-0.533855 0.03906-0.820313 0.03906-0.60764 0-0.910156 0.447682-0.910156 1.341797-0.03472 0.329851-0.05273 0.533192-0.05273 0.611328l-0.103516 1.980468v0.246094l-0.052734 1.341797v0.482422c0 0.364573 0.117181 0.61197 0.351562 0.742187 0.243049 0.130268 0.828986 0.195313 1.757812 0.195313h0.248047c1.493055 0 2.581809-0.270389 3.267579-0.808594 0.859373-0.67709 1.289062-1.591599 1.289062-2.746094v-0.261718c0-0.972221-0.338543-1.740455-1.015625-2.304688-0.668402-0.572901-1.618919-0.859375-2.851563-0.859375zm16.57617 2.552734-0.0918 0.01172-0.507813 0.03906c-0.243049 0.03477-0.415357 0.05078-0.519531 0.05078-0.703126 0-1.354166 0.26541-1.953125 0.794922-0.416668 0.373266-0.625 0.90213-0.625 1.587891v0.261718c0 0.581594 0.18533 1.040362 0.558594 1.378906 0.381946 0.338548 0.850694 0.507813 1.40625 0.507813v2e-3h0.339843c0.711804 0 1.336803-0.237414 1.875-0.714844 0.546875-0.486122 0.820313-1.046012 0.820313-1.679687l0.02539-0.169922v-0.169922l0.02539-0.402344v-0.742187c0-0.503484-0.255427-0.75586-0.767578-0.75586z" fill="#474bc9" style="paint-order:fill markers stroke"/>
  </g>
</svg>
