<svg width="95" height="32" version="1.1" viewBox="0 0 25.13542 8.466667" xmlns="http://www.w3.org/2000/svg">
  <g transform="translate(-28.63152 -187.9509)">
    <path transform="matrix(.2645833 0 0 .2645833 28.63152 187.9509)" d="m8.867188 0c-4.912134 0-8.867188 3.122-8.867188 7v18c0 3.878 3.955054 7 8.867188 7h77.26562c4.912134 0 8.867188-3.122 8.867188-7v-18c0-3.878-3.955054-7-8.867188-7zm39.375 3.916016h0.259765c0.407988 0 0.712461 0.096117 0.912109 0.2871094 0.19966 0.1909921 0.298829 0.5896436 0.298829 1.197266v1.210938l-0.025391 0.6132813c-0.0086 0.2083779-0.01367 0.5109121-0.01367 0.9101562 0 0.3906268-0.06509 1.650605-0.195312 3.777343-0.130218 2.126741-0.195313 3.588105-0.195313 4.386719l-0.01172 0.3125c-0.0086 0.208378-0.01367 0.408693-0.01367 0.59961l-0.01172 0.298828v1.015625c0 0.876724 0.06815 1.53776 0.207031 1.980468 0.138885 0.442709 0.208984 0.758227 0.208984 0.949219s-0.109155 0.391307-0.326171 0.59961c-0.217021 0.208373-0.555564 0.312499-1.015626 0.3125-0.451384 0-0.889105-0.07305-1.314453-0.220704-0.425345-0.15622-0.737845-0.234375-0.9375-0.234375-0.199659 0-0.460078 0.06019-0.78125 0.181641-0.972223 0.35588-1.862634 0.533203-2.669921 0.533203h-0.351561c-1.310765 0-2.334419-0.476781-3.072266-1.431641-0.729166-0.963523-1.09375-2.226555-1.09375-3.789062v-0.326172c0-0.902778 0.159287-1.822266 0.480469-2.759766 0.321179-0.937495 0.773873-1.73678 1.355469-2.396484 0.581599-0.668422 1.235677-1.150182 1.964844-1.445312 0.729166-0.303824 1.593533-0.455078 2.591797-0.455078 1.00694 0 1.631943-0.1823023 1.875-0.5468755 0.243044-0.3732661 0.365234-1.193586 0.365234-2.460938 0-0.2343307-0.03905-0.5468228-0.117188-0.9375-0.07814-0.3906268-0.117187-0.6169596-0.117187-0.6777344 0-0.3732661 0.159289-0.7118265 0.480469-1.015625 0.321181-0.3125165 0.74284-0.46875 1.263672-0.46875zm27.64258 0.6894532h0.195312c0.399305 0 0.698783 0.1301903 0.898438 0.390625 0.208327 0.2517164 0.3125 0.5562038 0.3125 0.9121093v0.390625c-0.02603 0.104063-0.03906 0.1950753-0.03906 0.2734375 0 0.3645985-0.156248 0.6770906-0.46875 0.9375-0.303818 0.2517166-0.694445 0.3789063-1.171875 0.3789063h-0.15625c-0.3559 0-0.655381-0.096117-0.898437-0.2871094-0.243052-0.1995591-0.363285-0.5250853-0.363285-0.9765625v-0.4550781c0-0.4340158 0.14323-0.7955683 0.429688-1.082031 0.28646-0.286463 0.588977-0.4296875 0.910156-0.4296875 0.05208-0.017638 0.101117-0.025391 0.144531-0.025391zm-68.44922 0.3925781c1.180556 0 2.235246 0.520837 3.164062 1.5625 0.9375 1.03297 2.346788 3.077243 4.230469 6.132812 1.883681 3.055547 2.899307 4.582032 3.046875 4.582032l0.183594-0.05078c0.05208-0.07811 0.104168-0.356529 0.15625-0.833984 0.321179-3.012132 0.480469-5.655369 0.480469-7.929688 0-0.1995591-0.02107-0.5040212-0.06445-0.9121094l-0.05273-0.4160156c-0.06077-0.425348-0.08984-0.6857791-0.08984-0.78125 0-0.8941102 0.64106-1.341797 1.925782-1.341797 0.295138 0 0.581597 0.11408 0.859375 0.3398438 0.277777 0.2257638 0.417968 0.5382559 0.417968 0.9375 0 0.3992945-0.127164 0.9281615-0.378906 1.587891s-0.407993 1.284713-0.46875 1.875c-0.06077 0.590261-0.194021 2.639536-0.402344 6.146484-0.208327 3.506948-0.343527 5.389982-0.404297 5.650391-0.121518 0.520844-0.376948 0.78125-0.767578 0.78125-0.772568 0-1.553818-0.507809-2.34375-1.523437-0.182311-0.234333-1.37719-2.156418-3.582043-5.767581-2.19618-3.619779-3.485243-5.429687-3.867187-5.429687l-0.1679687 0.1035156c-0.069443 0.104063-0.1315119 0.3644685-0.1835938 0.7812505-0.2777776 2.37845-0.4160156 4.951594-0.4160156 7.720703 0 0.29513 0.018013 0.617631 0.052734 0.964843l0.050781 0.441407c0.052082 0.434015 0.078125 0.70443 0.078125 0.808593 0 0.598955-0.2033432 1.080714-0.6113281 1.445313-0.3993065 0.364573-0.8680573 0.546875-1.406249 0.546875h-0.4433594c-0.5468749 0-0.8203125-0.205294-0.8203125-0.613281 0-0.416655 0.1171814-0.880427 0.3515625-1.392579 0.2343811-0.512145 0.3906322-1.093104 0.46875-1.74414 0.3732636-3.133682 0.5605469-6.498046 0.5605469-10.0918 0-0.6163402-0.044056-1.129147-0.1308594-1.537109l-0.1171875-0.4414062-0.1289062-0.4042969c-0.0694425-0.2431496-0.1054688-0.4825166-0.1054688-0.7167969 0-0.321159 0.3094613-0.4804687 0.9257813-0.4804687zm77.60352 4.712891h0.337891c1.137152 0 2.04058 0.1612376 2.708985 0.4824215 0.677082 0.321185 1.015624 0.80297 1.015624 1.445313 0 0.633701-0.281467 0.949219-0.845703 0.949219-0.147578 0-0.564245-0.172294-1.25-0.519532-0.685765-0.355905-1.333769-0.535156-1.941406-0.535156-0.60764 0-1.097439 0.140174-1.470703 0.417969-0.364583 0.269077-0.546875 0.641711-0.546875 1.11914 0 0.47743 0.255427 0.894095 0.767578 1.25 0.295141 0.208378 0.990235 0.538884 2.083985 0.990235 1.10243 0.451401 1.888672 0.884126 2.357421 1.300781 0.755208 0.668397 1.132813 1.524743 1.132813 2.566406 0 1.041689-0.442708 1.935134-1.328125 2.681641-0.885415 0.737865-2.03624 1.107422-3.451172 1.107422h-0.337891c-1.423612 0-2.491319-0.205294-3.203125-0.613281-0.711806-0.416681-1.068359-0.953578-1.068359-1.613282 0-0.668422 0.278427-1.003906 0.833984-1.003906 0.1823 0 0.654089 0.234363 1.417969 0.703125 0.772568 0.468737 1.527776 0.703125 2.265625 0.703125 0.746527 0 1.306424-0.156259 1.679688-0.46875 0.373263-0.321184 0.560547-0.719836 0.560546-1.197266 0-0.486097-0.234375-0.910792-0.703124-1.27539-0.251742-0.199559-0.972879-0.561112-2.16211-1.082031-1.189236-0.529512-2.051649-1.058379-2.589844-1.587891-0.529514-0.538205-0.794922-1.293405-0.794922-2.265625s0.434678-1.80555 1.302735-2.5c0.868054-0.703118 1.943794-1.054688 3.228515-1.054688zm-55.24805 0.064453h0.638672c0.763882 0 1.498046 0.1692933 2.201171 0.5078125 2.013889 0.972221 3.019532 2.805121 3.019532 5.496094v0.207031c-0.0086 0.876725-0.151797 1.767144-0.429688 2.669922-0.555555 1.779502-1.623265 3.037526-3.203125 3.775391-0.876737 0.407987-1.73112 0.613281-2.564453 0.613281h-0.416016c-1.519098 0-2.756077-0.53082-3.710937-1.589844-0.954862-1.059049-1.433594-2.559465-1.433594-4.503906l0.01367-0.222656c0-2.135433 0.564886-3.818152 1.693359-5.050782 0.590277-0.651036 1.262371-1.12977 2.017579-1.433593 0.763885-0.3124938 1.488065-0.4687505 2.173828-0.4687505zm28.94531 0.1171875h0.560547c1.137154 0 2.095705 0.382595 2.876953 1.146484 0.789931 0.755201 1.185547 1.731754 1.185547 2.929688v0.259766c0 0.850696-0.33854 1.454644-1.015625 1.810546-0.46875 0.251717-1.5625 0.504118-3.28125 0.75586-1.718748 0.251716-2.656249 0.402971-2.8125 0.455078-0.520834 0.182425-0.78125 0.52899-0.78125 1.041016 0 0.711811 0.30447 1.32076 0.912109 1.824218 0.607638 0.503484 1.422959 0.753907 2.447266 0.753907 0.47743 0 1.128472-0.130191 1.953125-0.390625 0.824653-0.26041 1.301433-0.390625 1.431641-0.390625 0.442708 0 0.664062 0.192259 0.664062 0.574218 0 0.512152-0.49783 1.023005-1.496094 1.535157-0.998264 0.512151-2.03993 0.769531-3.125 0.769531h-0.287109c-1.657986 0-2.978081-0.525816-3.958984-1.576172-0.980901-1.059024-1.470704-2.470255-1.470704-4.232422v-0.572265c0-0.842004 0.164282-1.696397 0.494141-2.564454 0.668405-1.736113 1.759116-2.93402 3.269531-3.59375 0.798612-0.355905 1.608942-0.535156 2.433594-0.535156zm16.58984 0.261719h0.220703c0.529514 0 0.902128 0.229384 1.119141 0.689453 0.138885 0.286463 0.208984 0.776253 0.208984 1.470703v1.171875l-0.05273 1.445313c-0.01739 0.329877-0.02539 0.574223-0.02539 0.730468l-0.02539 0.480469c-0.01739 0.321184-0.02734 0.560551-0.02734 0.716797l-0.07813 1.693359c0 3.333342-0.346573 5.693156-1.041016 7.082032-0.347223 0.69445-0.855036 1.277356-1.523438 1.746093-0.659723 0.468763-1.370877 0.703125-2.134765 0.703125h-0.429688c-0.75521 0-1.132812-0.26541-1.132812-0.794922 0-0.407986 0.143227-0.725483 0.429687-0.951171 0.121525-0.0955 0.324869-0.189661 0.611328-0.285157l0.78125-0.261718c0.451389-0.199559 0.797962-0.577172 1.041016-1.132813 0.555558-1.293405 0.833985-3.598081 0.833984-6.914062l0.06445-1.210938c0.02603-0.486123 0.03906-1.111132 0.03906-1.875 0-0.772586-0.03407-1.296449-0.103516-1.574219-0.06077-0.27777-0.169926-0.626288-0.326171-1.042968-0.147578-0.416655-0.220704-0.745208-0.220703-0.988282 0-0.243149 0.135199-0.451494 0.404296-0.625 0.269095-0.182425 0.724824-0.273437 1.367188-0.273437zm-45.50781 1.328125c-0.928821 0-1.710069 0.458768-2.34375 1.378906-0.625 0.920139-0.9375 2.018878-0.9375 3.294922l-0.02734 0.298828v0.847656c0 1.137159 0.260416 2.082691 0.78125 2.837891s1.158855 1.132812 1.914062 1.132813h0.390625c0.894098 0 1.649308-0.450738 2.265625-1.353516 0.625-0.902778 0.9375-2.10569 0.9375-3.607422v-0.859375c0-1.163213-0.255427-2.113723-0.767578-2.851563-0.503473-0.746527-1.154513-1.11914-1.953125-1.11914zm28.83984 0.06641-0.07813 0.01172c-0.842013 0-1.579213 0.354595-2.21289 1.066406-0.633681 0.711811-0.951172 1.463985-0.951172 2.253906v0.207032c0 0.260434 0.23937 0.390625 0.716796 0.390625h0.3125l0.07813-0.0098 0.638671-0.05273c0.668405-0.0955 1.101129-0.144532 1.300782-0.144532 0.946179 0 1.659286-0.177297 2.136718-0.533203 0.225689-0.173606 0.337891-0.481094 0.337891-0.923828v-0.144531c0-0.651036-0.216362-1.166869-0.650391-1.548828-0.425344-0.381909-0.938149-0.572241-1.537108-0.572241zm-14.76562 0.02344c-0.920138 0-1.701389 0.465725-2.34375 1.394531-0.633681 0.928831-0.949219 2.100696-0.949219 3.515625v0.988281c0 1.03297 0.234376 1.897347 0.703125 2.591797 0.477433 0.685757 1.037327 1.029297 1.679688 1.029297h0.363281c0.989584 0 1.754774-0.395626 2.292969-1.185547 0.546875-0.789921 0.820312-1.96679 0.820312-3.529297 0.01739-0.190992 0.02539-0.329242 0.02539-0.416015l0.02539-0.259766 0.01367-0.546875v-0.925781c-1e-6 -1.770835-0.708116-2.65625-2.123047-2.65625zm23.89453 8.085937h0.351563c0.946179 0 1.417969 0.494794 1.417969 1.484375v0.183594l-0.05078 0.441406c0 0.399295-0.153212 0.708761-0.457031 0.925781-0.295141 0.208378-0.636719 0.3125-1.027344 0.3125h-0.404296c-0.434029 0-0.772572-0.101222-1.015626-0.300781-0.234381-0.199565-0.351564-0.462997-0.351564-0.792975-0.01739-0.06954-0.02539-0.126585-0.02539-0.169921l-0.02734-0.220704v-0.234375l0.01367-0.05273v-0.117187c0.01738-0.06954 0.02539-0.126584 0.02539-0.169922 0-0.390627 0.130208-0.693136 0.390625-0.910157 0.269097-0.225763 0.56554-0.339843 0.886719-0.339843z" fill="#ff5e87" style="paint-order:fill markers stroke"/>
  </g>
</svg>
