<svg width="130" height="32" version="1.1" viewBox="0 0 34.39583 8.466667" xmlns="http://www.w3.org/2000/svg">
  <g transform="translate(-28.63152 -187.9509)">
    <path transform="matrix(.2645833 0 0 .2645833 28.63152 187.9509)" d="m7 0c-3.877999 0-7 3.122001-7 7v18c0 3.878 3.122001 7 7 7h116c3.878 0 7-3.122 7-7v-18c0-3.877999-3.122-7-7-7zm57.41406 3.982422h0.455079c1.71007 0 2.907987 0.2244048 3.59375 0.6757812 0.694445 0.4427087 1.042968 1.051658 1.042968 1.824219 0 0.4079874-0.09114 0.7285095-0.273437 0.9628906-0.182299 0.2343307-0.343539 0.3515625-0.482422 0.3515625-0.130217 0-0.820327-0.3775873-2.070312-1.132812-0.763888-0.4600693-1.566188-0.6894531-2.408204-0.6894531-0.833333 0-1.546442 0.2113707-2.136718 0.6367187-0.581599 0.4166803-0.871094 1.002612-0.871094 1.757812 0 0.7552252 0.315538 1.424266 0.949219 2.005859 0.321181 0.295131 1.297743 0.833981 2.929687 1.615234 1.631945 0.772561 2.761719 1.4757 3.386719 2.109375 0.868054 0.885418 1.300781 1.896049 1.300781 3.033203v0.44336c-0.0086 0.685783-0.177837 1.357874-0.507812 2.017578-0.633681 1.250016-1.704429 2.127401-3.214844 2.630859-0.781251 0.260435-1.650609 0.390625-2.605469 0.390625-2.96007 0-4.751953-0.634967-5.376953-1.902343-0.21702-0.442709-0.326172-0.846365-0.326172-1.210938 0-0.347212 0.09614-0.633661 0.28711-0.859375 0.190961-0.234331 0.407329-0.351562 0.65039-0.351562 0.243049 0 0.638664 0.234388 1.185547 0.703125 0.555555 0.468762 1.123482 0.846374 1.705078 1.132812 0.581596 0.277795 1.315755 0.417969 2.201172 0.417969s1.632595-0.234363 2.240234-0.703125c0.616318-0.468737 0.923829-1.137808 0.923829-2.005859 0-0.868057-0.437719-1.636266-1.314454-2.304688-0.390626-0.295131-1.325087-0.789925-2.800781-1.484375-1.467013-0.703118-2.503688-1.380214-3.111328-2.03125-0.807289-0.859389-1.210937-1.893033-1.210937-3.099609 0-1.527785 0.564888-2.728744 1.693359-3.605469 1.128471-0.8854173 2.516715-1.328125 4.166015-1.328125zm-52.05664 0.1816406h0.285156c0.48611 0 0.915796 0.1482287 1.289063 0.4433594 0.381944 0.286463 0.574218 0.588972 0.574218 0.9101562v0.1835938c0 0.1647874-0.05209 0.4853347-0.15625 0.9628906-0.164938 0.7725858-0.409294 3.772346-0.730468 8.998046-0.130218 2.039912-0.416677 3.649505-0.859375 4.830079-0.434029 1.180539-1.101129 2.092015-2.003907 2.734374-0.902774 0.651037-1.954427 0.976563-3.152343 0.976563-0.6944428 0-1.309462-0.130216-1.847656-0.390625-0.5295144-0.251717-0.7949219-0.572239-0.7949219-0.962891v-0.234375c0-0.460069 0.2424054-0.803592 0.7285156-1.029296 0.260417-0.121449 0.7261294-0.181641 1.394531-0.181641 0.6684044 0 1.231337-0.192285 1.691406-0.574219 1.414929-1.17188 2.123047-4.283868 2.123047-9.335937 0-1.484397-0.05707-2.516063-0.169922-3.097657-0.112857-0.5815937-0.303179-1.141508-0.572266-1.679688-0.2690973-0.5382047-0.4042969-0.8997321-0.4042969-1.082031 0-0.4774299 0.2523979-0.8420082 0.7558589-1.09375 0.512154-0.2517165 1.129124-0.3769531 1.84961-0.3769531zm86.19727 0.025391h0.259765l0.365235 0.052734c0.225686 0 0.447042 0.1140802 0.664062 0.3398437 0.22569 0.2169449 0.33789 0.5374671 0.33789 0.9628907v0.15625c0 0.4427086-0.13021 0.8203211-0.390624 1.132812-0.251742 0.3038236-0.642369 0.4550781-1.171875 0.4550781h-0.207032l-0.404297-0.052734c-0.234379 0-0.460726-0.1072738-0.677734-0.3242187-0.21702-0.2169449-0.324219-0.5424712-0.324219-0.9765625v-0.15625l0.06445-0.46875c0-0.1824252 0.109152-0.408758 0.326172-0.6777344 0.225689-0.2691024 0.512148-0.4042969 0.859375-0.4042969zm22.52539 1.667969h0.20898c0.37327 0 0.63867 0.1432245 0.79492 0.4296875 0.0608 0.1128819 0.15192 0.5195633 0.27344 1.222656 0.13022 0.6944252 0.27649 1.142137 0.44141 1.341797 0.16494 0.1995591 0.57857 0.4209129 1.23828 0.6640625 0.6684 0.2343307 1.00195 0.4867066 1.00195 0.7558586v0.142578c0 0.347238-0.38259 0.641717-1.14648 0.884766-0.75521 0.234331-1.24002 0.611943-1.45703 1.132813-0.42535 1.050356-0.63867 2.76107-0.63867 5.130859 0 1.111106 0.19032 1.866305 0.57226 2.265625 0.23438 0.24315 0.70313 0.412417 1.40625 0.507813 0.70313 0.0955 1.05469 0.342893 1.05469 0.742187 0 0.347213-0.21137 0.65973-0.63672 0.9375-0.41667 0.269102-0.98655 0.404297-1.70703 0.404297-1.34549 0-2.29102-0.499773-2.83789-1.498047-0.33854-0.624983-0.50781-2.088325-0.50782-4.388672 0-2.300346-0.0391-3.636499-0.11718-4.009765-0.0781-0.373267-0.2945-0.737845-0.65039-1.09375-0.35591-0.355906-0.53516-0.629346-0.53516-0.820313 0-0.06954 0.42166-0.52526 1.26367-1.367187 0.1823-0.1821732 0.36459-0.5858288 0.54688-1.210938 0.19096-0.6250079 0.32616-1.036694 0.40429-1.236328 0.26042-0.6250079 0.602-0.9375 1.02735-0.9375zm-98.9961 3.46289h0.650391c0.876737 0 1.649957 0.1642635 2.318359 0.4941406 0.668405 0.3211839 1.176218 0.7608659 1.523438 1.316406 0.355903 0.555566 0.572273 1.279743 0.65039 2.173829 0.01739 0.208369 0.02539 1.219004 0.02539 3.033203 0 1.814248 0.02299 2.860909 0.06641 3.138671 0.05208 0.269103 0.19032 0.599608 0.416016 0.990235 0.234381 0.390627 0.351563 0.711174 0.351563 0.962891 0 0.251708-0.122186 0.468066-0.365235 0.65039-0.234381 0.173606-0.57596 0.261719-1.027344 0.261719-0.451389 0-0.943142-0.109227-1.472656-0.326172-0.529512-0.225764-0.915147-0.337891-1.158203-0.337891-0.02603 0-0.460706 0.156259-1.302734 0.46875-0.842014 0.303824-1.55317 0.455078-2.134766 0.455078h-0.287109c-0.972223 0-1.800563-0.307513-2.486329-0.923828-0.677074-0.616315-1.015624-1.4937-1.015624-2.630859s0.372613-2.022574 1.11914-2.65625c0.746527-0.642369 1.654947-1.080097 2.722656-1.314453 0.321182-0.06954 0.855036-0.160556 1.601563-0.273438s1.25434-0.230113 1.523437-0.351562c0.46875-0.216945 0.703125-0.62558 0.703125-1.22461 0-0.607614-0.200304-1.081376-0.599609-1.419921-0.399307-0.347238-0.876085-0.519532-1.431641-0.519532-0.546875 0-1.268011 0.203341-2.162109 0.611329-0.894095 0.407979-1.462022 0.611328-1.705078 0.611328-0.581596 0-0.873047-0.372609-0.873047-1.119141 0-0.55554 0.468751-1.037325 1.40625-1.445312 0.94618-0.4166803 1.927735-0.625 2.943359-0.625zm26.82227 0h0.650391c0.876734 0 1.649955 0.1642635 2.318359 0.4941406 0.668402 0.3211839 1.176215 0.7608659 1.523438 1.316406 0.355896 0.555566 0.572265 1.279743 0.65039 2.173829 0.01739 0.208371 0.02734 1.219004 0.02734 3.033203 0 1.814248 0.02104 2.860907 0.06445 3.138671 0.05208 0.269103 0.19032 0.599608 0.416016 0.990235 0.234381 0.390627 0.351562 0.711174 0.351562 0.962891 0 0.25171-0.120232 0.468066-0.363281 0.65039-0.234381 0.173606-0.577916 0.261719-1.029297 0.261719-0.451389 0-0.941189-0.109227-1.470703-0.326172-0.529514-0.225764-0.917103-0.337891-1.160156-0.337891-0.02605 0-0.458778 0.156259-1.300782 0.46875-0.842013 0.303824-1.55512 0.455078-2.136718 0.455078h-0.285157c-0.97222 0-1.802516-0.307513-2.488281-0.923828-0.677082-0.616315-1.015625-1.4937-1.015625-2.630859s0.374567-2.022574 1.121094-2.65625c0.746527-0.642369 1.652994-1.080097 2.720703-1.314453 0.321179-0.06954 0.855039-0.160556 1.601562-0.273438 0.746528-0.112882 1.254341-0.230113 1.523438-0.351562 0.46875-0.216945 0.703125-0.62558 0.703125-1.22461 0-0.607616-0.200302-1.081376-0.599609-1.419921-0.399305-0.347238-0.876086-0.519532-1.431641-0.519532-0.546875 0-1.268012 0.203341-2.162109 0.611329-0.894098 0.407981-1.462031 0.611328-1.705078 0.611328-0.581599 0-0.873047-0.372609-0.873047-1.119141 0-0.55554 0.468748-1.037325 1.40625-1.445312 0.946179-0.4166803 1.927734-0.625 2.943359-0.625zm29.62305 0.2207031h0.285156c1.032988 0 1.889324 0.2052935 2.566406 0.6132814 0.677083 0.407987 1.015625 0.905807 1.015625 1.496094 0 0.685757-0.330512 1.029296-0.990234 1.029297-0.121524 0-0.546221-0.190307-1.275391-0.572266-0.729166-0.373241-1.328125-0.560547-1.796875-0.560547h-0.02734c-1.024305 0-1.826611 0.442708-2.408203 1.328125-0.572916 0.885417-0.859376 2.039294-0.859376 3.462891 0 1.423622 0.304473 2.478305 0.91211 3.164062 0.61632 0.685758 1.470703 1.029297 2.564453 1.029297 0.451389 0 1.071397-0.125237 1.861328-0.376953 0.789929-0.26041 1.271701-0.390625 1.445313-0.390625 0.355903 0 0.535156 0.185327 0.535156 0.558594 0 0.503483-0.499783 1.011286-1.498047 1.523437s-1.979819 0.769531-2.943359 0.769531c-2.578127 0-4.283855-1.015605-5.117188-3.046875-0.329862-0.807282-0.49414-1.645619-0.49414-2.513671v-0.59961c0-1.09377 0.16927-2.06034 0.507812-2.902344 0.651041-1.631949 1.648654-2.761736 2.994141-3.386718 0.876737-0.4166823 1.785157-0.6250004 2.722656-0.6250004zm32.16015 0.078125c1.37153 0 2.48329 0.4817594 3.33399 1.445312 0.85069 0.95486 1.27539 2.243931 1.27539 3.867188v0.326171c0 1.093745-0.18229 2.101346-0.54688 3.021485-0.74653 1.901052-1.99153 3.128053-3.73633 3.683594-0.49478 0.15622-1.15885 0.265448-1.99218 0.326171-0.82466 0.06072-1.41059 0.169952-1.75782 0.326172-0.5295 0.24315-0.79492 0.680879-0.79492 1.314454 0 0.269101 0.049 0.63368 0.14453 1.09375 0.10417 0.460068 0.15625 0.884763 0.15625 1.27539s-0.22135 0.773219-0.66406 1.146484c-0.44271 0.381934-0.99457 0.572266-1.6543 0.572266h-0.27343c-0.78125 0-1.17188-0.286474-1.17188-0.859375v-0.246094c0-0.121448 0.0831-0.464988 0.24805-1.029297 0.17361-0.555564 0.29384-1.154507 0.36328-1.796874 0.0694-0.633676 0.1836-2.217226 0.33984-4.751954 0.15625-2.534727 0.23438-4.266506 0.23438-5.195312 0-0.937499-0.0621-1.723746-0.18359-2.357422-0.11286-0.633676-0.16797-0.97719-0.16797-1.029297 0-0.460069 0.53689-0.689453 1.61328-0.689453l1.82422 0.3125c0.19096 0 0.63671-0.125237 1.33984-0.3769531 0.70312-0.2517166 1.39323-0.3789063 2.07031-0.3789063zm-69.66015 0.1054688h0.259765c0.590277 0 0.884766 0.2994836 0.884766 0.8984376 0 0.425348-0.13021 0.858072-0.390625 1.300781-0.260417 0.442709-0.86741 1.806858-1.822265 4.089844-0.94618 2.274318-1.644315 3.818791-2.095704 4.634766-0.451389 0.807274-0.825955 1.310105-1.121093 1.509765-0.286461 0.199559-0.633031 0.300781-1.041016 0.300781-0.633681 0-1.141501-0.40363-1.523437-1.210937-0.286458-0.607622-0.799263-2.06291-1.53711-4.363281-0.729166-2.309015-1.210936-3.684245-1.445312-4.126954-0.581597-1.10243-0.871094-1.805558-0.871094-2.109374 0-0.312492 0.09419-0.53885 0.285156-0.6777349 0.190967-0.1476535 0.594613-0.2207031 1.210938-0.2207031 0.989581 0 1.645622 0.364578 1.966796 1.09375 0.06077 0.130268 0.156918 0.533923 0.28711 1.210938 0.130217 0.668415 0.260425 1.259333 0.390625 1.771484l0.259765 1.144531c0.651042 2.86458 1.150825 4.296875 1.498047 4.296875 0.234381 0 0.893454-1.461364 1.978516-4.386719 0.494793-1.336793 0.812284-2.38845 0.951172-3.152343 0.147578-0.772586 0.241767-1.20226 0.285156-1.289063 0.251742-0.4774291 0.782557-0.7148436 1.589844-0.7148436zm57.01758 0.1035156h0.46875c0.442709 0 0.729168 0.1172308 0.859375 0.351563 0.130217 0.225761 0.195313 0.512214 0.195312 0.859374l-0.142578 3.501954-0.02734 0.351562-0.03906 1.06836v0.507812c0 1.250016 0.03603 2.070336 0.105469 2.460938 0.07814 0.390624 0.221365 0.773218 0.429687 1.146484 0.20833 0.364598 0.3125 0.628055 0.3125 0.792969v0.117187c0 0.425348-0.218315 0.763883-0.652343 1.015625-0.434026 0.251717-1.023002 0.378906-1.769532 0.378906h-0.326171c-0.434029 0-0.764542-0.09612-0.990235-0.287109-0.225688-0.199559-0.33789-0.412883-0.337891-0.638672v-0.285156c0-0.112882 0.09917-0.513487 0.298829-1.199219 0.199659-0.69445 0.300781-1.635003 0.300781-2.824219 0.02603-0.338545 0.03906-0.572907 0.03906-0.703125l0.03906-0.716797 0.02539-0.351562c0.04341-0.607622 0.06445-1.081377 0.06445-1.419922l0.01367-0.519531c0-0.651036-0.109151-1.228964-0.326171-1.732422-0.208328-0.503483-0.3125-0.815976-0.3125-0.9375 0-0.625008 0.590928-0.9375 1.771484-0.9375zm-5.820313 0.1425781h0.195313c0.425348 0 0.763888 0.1041219 1.015625 0.3124999 0.251742 0.199559 0.376953 0.446956 0.376953 0.742188v0.169921c0 0.355906-0.125211 0.613286-0.376953 0.769532-0.243049 0.15622-0.633673 0.232422-1.171875 0.232422-1.223957 0-2.117403 0.429698-2.681641 1.289062-0.555555 0.859389-0.833984 2.379772-0.833984 4.558594 0 0.312491 0.05209 0.794276 0.15625 1.445312 0.112857 0.651062 0.169922 1.140852 0.169922 1.470704 0 0.329848-0.179253 0.647348-0.535156 0.951171-0.355903 0.303824-0.806641 0.455078-1.353516 0.455079h-0.443359c-0.477433 0-0.845052-0.112127-1.105469-0.337891-0.251742-0.234331-0.378906-0.517754-0.378906-0.847656 0-0.338545 0.06207-0.680106 0.183593-1.027344 0.329862-0.937499 0.494141-1.971146 0.494141-3.099609 0.03472-0.625008 0.05273-1.075746 0.05273-1.353516v-1.003906c0-1.206602-0.06509-2.087016-0.195312-2.642578-0.130217-0.564234-0.195313-0.959859-0.195313-1.185547 0-0.529512 0.385636-0.792969 1.158203-0.792969 0.772569 0 1.332465 0.143224 1.679688 0.429687 0.0955 0.07811 0.217682 0.229365 0.365234 0.455079 0.156246 0.22576 0.294484 0.33789 0.416016 0.33789 0.02603 0 0.403636-0.221354 1.132812-0.664062 0.729167-0.442709 1.354169-0.6640629 1.875-0.6640629zm17.48633 1.289063c-0.9375 0-1.67969 0.374561-2.22656 1.121093-0.54688 0.73784-0.82031 1.826596-0.82031 3.267579l-0.0254 0.259765-0.0527 1.355469v0.910156c0 0.946167 0.19228 1.615233 0.57422 2.00586 0.39062 0.381958 0.94054 0.572265 1.65234 0.572265h0.24805c0.9809 0 1.80122-0.450739 2.46094-1.353515 0.65972-0.902778 0.99023-2.001518 0.99023-3.294922l0.0254-0.285157v-0.859375c0-1.154519-0.2424-2.057948-0.72851-2.708984-0.47743-0.659729-1.05035-0.990234-1.71875-0.990234zm-86.4707 4.935546-0.0918 0.01172-0.507813 0.03906c-0.243049 0.03477-0.415357 0.05078-0.519531 0.05078-0.703126 0-1.354166 0.26541-1.953125 0.794922-0.416665 0.373266-0.625 0.902133-0.625 1.587891v0.261718c0 0.581594 0.18533 1.04037 0.558594 1.378906 0.381944 0.338545 0.850694 0.507813 1.40625 0.507813v2e-3h0.339843c0.711806 0 1.336808-0.237414 1.875-0.714844 0.546875-0.486122 0.820313-1.046012 0.820313-1.679687l0.02539-0.169922v-0.169922l0.02539-0.402344v-0.742187c0-0.503484-0.255424-0.75586-0.767578-0.75586zm26.82226 0-0.08984 0.01172-0.507812 0.03906c-0.243049 0.03477-0.417311 0.05078-0.521485 0.05078-0.703117 0-1.354171 0.26541-1.953124 0.794922-0.416668 0.373266-0.625 0.902133-0.625 1.587891v0.261718c0 0.581594 0.18728 1.040368 0.560546 1.378906 0.381944 0.338545 0.850695 0.507813 1.40625 0.507813v2e-3h0.337891c0.711806 0 1.336805-0.237414 1.875-0.714844 0.546875-0.486122 0.820311-1.046012 0.820313-1.679687l0.02539-0.169922v-0.169922l0.02734-0.402344v-0.742187c0-0.503484-0.25738-0.75586-0.769531-0.75586z" fill="#ff5e87" style="paint-order:fill markers stroke"/>
  </g>
</svg>
