<svg width="40" height="32" version="1.1" viewBox="0 0 10.58333 8.466667" xmlns="http://www.w3.org/2000/svg">
  <g transform="translate(-15.875 -138.2501)">
    <path transform="matrix(.2645833 0 0 .2645833 0 86.99999)" d="m67 193.7012c-3.877999 0-7 3.12202-7 7v18c0 3.87802 3.122001 7 7 7h26c3.877999 0 7-3.12198 7-7v-18c0-3.87798-3.122001-7-7-7zm15.58398 3.86524h0.261719l0.363281 0.0508c0.225689 0 0.447042 0.11408 0.664063 0.33984 0.225688 0.21695 0.339844 0.53747 0.339844 0.96289v0.15625c0 0.44271-0.130208 0.82032-0.390625 1.13281-0.251742 0.30383-0.642369 0.45508-1.171875 0.45508h-0.208985l-0.404297-0.0527c-0.234381 0-0.458776-0.10728-0.675781-0.32422-0.21702-0.21695-0.326172-0.54247-0.326172-0.97656v-0.15625l0.06445-0.46875c0-0.18218 0.109152-0.40853 0.326172-0.67774 0.225688-0.2691 0.512148-0.40429 0.859375-0.40429zm7.890625 1.66601h0.208985c0.373263 0 0.638673 0.14323 0.794922 0.42969 0.06077 0.11288 0.151913 0.51956 0.273437 1.22266 0.130217 0.69442 0.276483 1.14213 0.441406 1.34179 0.164939 0.19956 0.57857 0.42092 1.238282 0.66406 0.668402 0.23434 1.001953 0.48671 1.001953 0.75586v0.14258c0 0.34724-0.382597 0.64172-1.146485 0.88477-0.75521 0.23433-1.24002 0.61194-1.457031 1.13281-0.42535 1.05036-0.638672 2.76107-0.638672 5.13086 0 1.11111 0.190317 1.86631 0.572266 2.26562 0.234381 0.24315 0.703132 0.41245 1.40625 0.50782 0.703126 0.0955 1.054687 0.34289 1.054687 0.74218 0 0.34724-0.21137 0.65973-0.636718 0.9375-0.416668 0.26911-0.986545 0.4043-1.707032 0.4043-1.345484 0-2.291015-0.49977-2.83789-1.49804-0.338543-0.62499-0.507813-2.08833-0.507813-4.38868 0-2.30034-0.03905-3.6365-0.117187-4.00976-0.07814-0.37327-0.294498-0.73785-0.650391-1.09375-0.3559-0.35591-0.535156-0.62935-0.535156-0.82031 0-0.0695 0.421659-0.52526 1.263672-1.36719 0.182299-0.18218 0.364591-0.58583 0.546875-1.21094 0.190967-0.62501 0.326164-1.03669 0.404297-1.23633 0.260414-0.62501 0.601995-0.9375 1.027343-0.9375zm-8.398437 3.9707h0.46875c0.442709 0 0.729168 0.11724 0.859375 0.35157 0.130217 0.22576 0.195312 0.51221 0.195312 0.85937l-0.142578 3.50196-0.02539 0.35156-0.03906 1.06836v0.50781c0 1.24999 0.03407 2.07031 0.103516 2.46094 0.07814 0.39062 0.221365 0.77322 0.429687 1.14648 0.208328 0.3646 0.3125 0.62806 0.3125 0.79297v0.11719c0 0.42535-0.216365 0.76388-0.65039 1.01562-0.434029 0.25172-1.024958 0.37891-1.771485 0.37891h-0.326172c-0.434028 0-0.762588-0.0961-0.988281-0.28711-0.225688-0.19956-0.339844-0.41288-0.339844-0.63867v-0.28516c0-0.11288 0.101122-0.51348 0.300782-1.19922 0.199659-0.69445 0.298828-1.635 0.298828-2.82422 0.02603-0.33854 0.03906-0.5729 0.03906-0.70312l0.03906-0.7168 0.02539-0.35156c0.04339-0.60762 0.06641-1.08138 0.06641-1.41992l0.01172-0.51953c0-0.65104-0.107198-1.22897-0.324218-1.73243-0.208328-0.50347-0.3125-0.81597-0.3125-0.9375 0-0.62499 0.588978-0.93749 1.769531-0.9375zm-10.80664 0.11719h0.337891c0.442709 0 1.012588 0.12209 1.707031 0.36524 0.703126 0.23433 1.132812 0.35156 1.289063 0.35156 0.347222-0.0695 0.615668-0.10547 0.80664-0.10547 0.755208 0 1.132813 0.54688 1.132813 1.64063 0 0.28646-0.117182 1.48437-0.351563 3.59375-0.234381 2.10935-0.351562 3.9032-0.351562 5.3789 0 1.49307-0.09917 2.61284-0.298828 3.35938-0.425348 1.60589-1.411893 2.74176-2.957032 3.41015-0.807292 0.34722-1.700737 0.52149-2.68164 0.52149-0.972221 0-1.839625-0.17427-2.603516-0.52149-0.755207-0.34721-1.132812-0.76387-1.132812-1.25 0-0.55556 0.372613-0.83203 1.11914-0.83203 0.147578 0 0.546232 0.0551 1.197266 0.16797 0.651041 0.11288 1.119792 0.16992 1.40625 0.16992 1.050348 0 1.909723-0.3305 2.578125-0.99023 0.677085-0.65104 1.015625-1.48742 1.015625-2.51172 0-0.53821-0.198349-0.80859-0.597656-0.80859-0.06944 0-0.235677 0.0279-0.496094 0.0801-0.73785 0.14766-1.409941 0.22071-2.017578 0.22071-1.545139 0-2.708984-0.46875-3.490235-1.40625-0.364583-0.43404-0.677083-1.01197-0.9375-1.73242-0.251741-0.72918-0.376953-1.49741-0.376953-2.30469v-0.36328c0-0.8507 0.138238-1.68901 0.416016-2.51368 0.286458-0.83333 0.664063-1.53147 1.132812-2.0957 0.46875-0.5729 1.08073-1.02061 1.835938-1.3418 0.75521-0.32118 1.52843-0.48242 2.318359-0.48242zm0.13086 1.67969c-1.024305 0-1.875653 0.4297-2.552735 1.28906-0.668404 0.85937-1.001953 2.03623-1.001953 3.5293v0.40234c0 1.16319 0.221354 2.07465 0.664063 2.73438 0.442708 0.65973 0.997613 0.99023 1.666015 0.99023h0.455078c0.963541 0 1.715712-0.40365 2.253907-1.21093 0.538194-0.81598 0.80664-1.95682 0.80664-3.42383 0.01739-0.17361 0.02539-0.3088 0.02539-0.4043l0.02734-0.5332v-0.78125c-0.01739-0.17361-0.02734-0.30382-0.02734-0.39063 0-0.68578-0.164281-1.22461-0.494141-1.61523-0.329861-0.3906-0.816622-0.58594-1.458983-0.58594z" fill="#ff5e87" style="paint-order:fill markers stroke"/>
  </g>
</svg>
