<svg width="70" height="32" version="1.1" viewBox="0 0 18.52083 8.466667" xmlns="http://www.w3.org/2000/svg">
  <g transform="translate(-28.63152 -187.9509)">
    <path transform="matrix(.2645833 0 0 .2645833 31.32696 187.9509)" d="m-2.021484 0c-4.524333 0-8.166016 3.122-8.166016 7v18c0 3.878 3.641682 7 8.166016 7h53.66797c4.524334 0 8.166016-3.122 8.166016-7v-18c0-3.878-3.641682-7-8.166016-7zm4.359375 6.683594h0.4570313c1.71007 0 2.907988 0.2263579 3.59375 0.6777343 0.6944453 0.4427087 1.041016 1.049705 1.041016 1.822266 0 0.4079871-0.091138 0.7285107-0.2734375 0.9628902-0.1822992 0.234331-0.3435394 0.351563-0.4824219 0.351563-0.1302173 0-0.8203219-0.377587-2.070312-1.132813-0.7638878-0.4600693-1.566187-0.6894532-2.408203-0.6894532-0.8333329 0-1.544489 0.2133239-2.134766 0.6386719-0.5815987 0.4166803-0.8730469 1.002613-0.8730469 1.757813 0 0.755225 0.3174912 1.422312 0.9511719 2.003906 0.3211817 0.295131 1.297743 0.833981 2.929688 1.615234 1.631944 0.772561 2.759765 1.4757 3.384766 2.109375 0.8680542 0.885418 1.302734 1.896044 1.302734 3.033203v0.44336c-0.00857 0.685782-0.1778396 1.357874-0.5078125 2.017578-0.6336807 1.250016-1.706379 2.127401-3.216797 2.630859-0.781251 0.260435-1.648656 0.390625-2.603516 0.390625-2.960071 0-4.753906-0.633014-5.378906-1.90039-0.2170204-0.442709-0.3242187-0.846365-0.3242187-1.210938 0-0.347212 0.094189-0.633661 0.2851562-0.859375 0.190967-0.234331 0.4092824-0.351562 0.6523438-0.351562 0.2430488 0 0.6367112 0.234388 1.183594 0.703125 0.5555553 0.468762 1.125435 0.846374 1.707031 1.132812 0.5815987 0.277795 1.313804 0.416016 2.199219 0.416016 0.8854173 0 1.632595-0.234363 2.240234-0.703125 0.6163175-0.468737 0.9238281-1.137803 0.9238281-2.00586 0-0.868056-0.4377186-1.636265-1.314453-2.304687-0.3906243-0.295131-1.323132-0.789925-2.798828-1.484375-1.467014-0.703118-2.505642-1.380214-3.113281-2.03125-0.8072894-0.859389-1.210938-1.89108-1.210938-3.097656 0-1.527786 0.5648882-2.730698 1.693359-3.607422 1.128471-0.8854174 2.516708-1.328125 4.166016-1.328125zm31.35547 0h0.455079c1.710066 0 2.907984 0.2263579 3.59375 0.6777343 0.694444 0.4427087 1.041015 1.049705 1.041015 1.822266 0 0.4079873-0.09114 0.7285099-0.273437 0.9628902-0.1823 0.234331-0.341587 0.351563-0.480469 0.351563-0.130217 0-0.820322-0.377587-2.070313-1.132813-0.76389-0.4600693-1.568143-0.6894532-2.410156-0.6894532-0.833333 0-1.544489 0.2133239-2.134766 0.6386719-0.581597 0.4166803-0.873046 1.002613-0.873046 1.757813 0 0.755225 0.317491 1.422312 0.951172 2.003906 0.32118 0.295131 1.297742 0.833981 2.929687 1.615234 1.631945 0.772561 2.759768 1.4757 3.384766 2.109375 0.868056 0.885418 1.302734 1.896044 1.302734 3.033203v0.44336c-0.0086 0.685782-0.177837 1.357874-0.507813 2.017578-0.633679 1.250016-1.706381 2.127401-3.216796 2.630859-0.781251 0.260435-1.648656 0.390625-2.603516 0.390625-2.960071 0-4.751953-0.633014-5.376953-1.90039-0.217021-0.442709-0.326172-0.846365-0.326172-1.210938 0-0.347212 0.09614-0.633661 0.287109-0.859375 0.190967-0.234331 0.40733-0.351562 0.650391-0.351562 0.243049 0 0.638667 0.234388 1.185547 0.703125 0.555555 0.468762 1.123479 0.846374 1.705078 1.132812 0.581596 0.277795 1.315755 0.416016 2.201172 0.416016s1.630644-0.234363 2.238281-0.703125c0.61632-0.468737 0.925781-1.137803 0.925781-2.00586 0-0.868056-0.439671-1.636265-1.316406-2.304687-0.390627-0.295131-1.323134-0.789925-2.798828-1.484375-1.467014-0.703118-2.503688-1.380214-3.111328-2.03125-0.807292-0.859389-1.210938-1.89108-1.210938-3.097656 0-1.527786 0.562933-2.730698 1.691407-3.607422 1.128471-0.8854174 2.518663-1.328125 4.167968-1.328125zm14.79102 0h0.455078c1.71007 0 2.907985 0.2263579 3.59375 0.6777343 0.694443 0.4427087 1.042969 1.049705 1.042969 1.822266 0 0.4079874-0.09114 0.7285095-0.273438 0.9628902-0.182299 0.234331-0.343541 0.351563-0.482422 0.351563-0.130217 0-0.820319-0.377587-2.070312-1.132813-0.763888-0.4600693-1.56619-0.6894532-2.408203-0.6894532-0.833333 0-1.54644 0.2133239-2.136719 0.6386719-0.581596 0.4166803-0.871094 1.002613-0.871094 1.757813 0 0.755225 0.315538 1.422312 0.949219 2.003906 0.321179 0.295131 1.297743 0.833981 2.929688 1.615234 1.631944 0.772561 2.761718 1.4757 3.386718 2.109375 0.868057 0.885418 1.300782 1.896044 1.300782 3.033203v0.44336c-0.0086 0.685782-0.177837 1.357874-0.507813 2.017578-0.633681 1.250016-1.704426 2.127401-3.214844 2.630859-0.781248 0.260435-1.650606 0.390625-2.605468 0.390625-2.960068 0-4.751953-0.633014-5.376954-1.90039-0.21702-0.442709-0.326171-0.846365-0.326171-1.210938 0-0.347212 0.09614-0.633661 0.287109-0.859375 0.190967-0.234331 0.407332-0.351562 0.650391-0.351562 0.243048 0 0.638664 0.234388 1.185547 0.703125 0.555555 0.468762 1.123481 0.846374 1.705078 1.132812 0.581598 0.277795 1.315754 0.416016 2.201172 0.416016 0.885414 0 1.632594-0.234363 2.240234-0.703125 0.61632-0.468737 0.923828-1.137803 0.923828-2.00586 0-0.868056-0.437716-1.636265-1.314453-2.304687-0.390624-0.295131-1.325088-0.789925-2.800781-1.484375-1.467014-0.703118-2.503689-1.380214-3.111328-2.03125-0.807292-0.859389-1.210938-1.89108-1.210938-3.097656 0-1.527786 0.564888-2.730698 1.693359-3.607422 1.128474-0.8854174 2.516711-1.328125 4.166016-1.328125zm-29.51758 0.1035156h0.402344c1.814236 0 3.103297 0.2654102 3.867187 0.7949218 0.763888 0.5295119 1.146485 1.198578 1.146484 2.005859 0 0.4861224-0.09614 0.8116494-0.287109 0.9765624-0.190967 0.165039-0.376297 0.246094-0.558594 0.246094-0.173606 0-0.551211-0.198362-1.132812-0.597656-0.572919-0.3993209-1.129774-0.7087612-1.667969-0.9257816-0.538195-0.2257638-1.210289-0.3378906-2.017578-0.3378906-0.807292 0-1.541448 0.2002896-2.201172 0.5996093-1.979165 1.206577-2.971788 3.683572-2.980469 7.433594 0 0.97222 0.130211 1.849631 0.390625 2.630859 0.789932 2.361122 2.365452 3.541016 4.726563 3.541016 1.145834 0 2.463977-0.416665 3.957031-1.25 0.46875-0.26041 0.817273-0.390625 1.042969-0.390625 0.373263 0 0.558594 0.213324 0.558594 0.638672 0 0.269102-0.120233 0.568585-0.363282 0.898437-0.425348 0.590287-0.982206 1.054033-1.667968 1.392578-1.163195 0.581594-2.455295 0.873047-3.878907 0.873047h-0.417968c-2.222221 0-4.009115-0.742191-5.363282-2.226562-0.642361-0.703144-1.137152-1.588559-1.484375-2.65625-0.338539-1.067717-0.507812-2.192499-0.507812-3.373047v-0.416016c0-1.380208 0.216365-2.713335 0.650391-3.998047 0.81597-2.40451 2.253254-4.092232 4.310546-5.064453 1.119791-0.5295116 2.278647-0.7949218 3.476563-0.7949218z" fill="#474bc9" style="paint-order:fill markers stroke"/>
  </g>
</svg>
