<svg width="556.0134" height="382.5" enable-background="new" version="1.1" viewBox="0 0 147.1119 101.2031" xmlns="http://www.w3.org/2000/svg">
  <g transform="translate(-132.4339 -123.0364)">
    <path d="m183.3087 125.0208 2.50617 1.44694 2.50618 1.44694 5.01234 2.89388 2.50618 1.44694 2.50617 1.44694 2.50618 1.44694 5.01234 2.89388 2.50618 1.44694 2.50617 1.44694 2.50618 1.44694 5.01234 2.89388 2.50618 1.44694 2.50617 1.44694 40.09878 23.15103v52.91667s-77.9062-44.97917-80.19756-46.30208v-49.60937z" fill="#474bc9"/>
    <path d="m185.6001 128.9896 75.61484 43.65625v47.625l-75.61484-43.65625z" fill="#b0b7ff"/>
    <path d="m183.3087 125.0208 2.29136-1.32292 80.19757 46.30209-2.29137 1.32291z" fill="#8f98f7"/>
    <path d="m263.5063 171.3229 2.29137-1.32291v52.91666l-2.29137 1.32292z" fill="#6974e0"/>
    <path d="m279.5458 222.9167" fill="none" stroke="#000" stroke-width=".2645833px"/>
    <g transform="matrix(1.002802 0 0 1 -.5392943 0)" fill="#b6d4ee" stroke-width=".998602">
      <path transform="matrix(.2645833 0 0 .2645833 0 86.99999)" d="m789.904 469.2511c-32.04492-18.34148-58.91487-33.79222-59.71102-34.33498-1.39669-0.95219-1.07182-1.20931 9.25033-7.32131 23.415-13.86459 30.54618-21.22595 31.89994-32.92964l0.50844-4.39567 59.53948 34.37905 59.53947 34.37905 0.20387 2.41264c0.31766 3.75919-1.65156 10.30591-4.2352 14.08003-2.45265 3.58278-8.10143 8.4981-15.37656 13.38003-5.19358 3.48511-22.42873 13.79472-22.96817 13.73895-0.21291-0.022-26.60566-15.04667-58.65058-33.38815z" stroke-width=".998602" style="paint-order:fill markers stroke"/>
      <path transform="matrix(.2645833 0 0 .2645833 0 86.99999)" d="m789.904 469.2511c-32.04492-18.34148-58.91487-33.79222-59.71102-34.33498-1.39669-0.95219-1.07182-1.20931 9.25033-7.32131 23.415-13.86459 30.54618-21.22595 31.89994-32.92964l0.50844-4.39567 59.53948 34.37905 59.53947 34.37905 0.20387 2.41264c0.31766 3.75919-1.65156 10.30591-4.2352 14.08003-2.45265 3.58278-8.10143 8.4981-15.37656 13.38003-5.19358 3.48511-22.42873 13.79472-22.96817 13.73895-0.21291-0.022-26.60566-15.04667-58.65058-33.38815z" stroke-width=".998602" style="paint-order:fill markers stroke"/>
      <g fill="#6974e0">
        <path transform="matrix(.2645833 0 0 .2645833 0 86.99999)" d="m789.904 469.2511c-32.04492-18.34148-58.91487-33.79222-59.71102-34.33498-1.39669-0.95219-1.07182-1.20931 9.25033-7.32131 23.415-13.86459 30.54618-21.22595 31.89994-32.92964l0.50844-4.39567 59.53948 34.37905 59.53947 34.37905 1.72843 3.02247c0.31766 3.75919-1.65156 10.30591-4.2352 14.08003-2.45265 3.58278-6.46306 7.68881-13.73819 12.57074-5.19358 3.48511-25.98076 15-25.98076 15s-26.756-16.10826-58.80092-34.44974z" stroke-width=".9972059" style="paint-order:fill markers stroke"/>
        <g stroke-width=".998602">
          <path transform="translate(1.753813e-6)" d="m203.9309 189.8438c0 1.76362 0 3.52751-1.9096 5.51209-1.90959 1.98458-5.72795 4.18911-9.5472 6.39416l16.03952 9.26041c16.03951 9.26042 5.34658 3.08686 16.03951 9.26042l3.43703-3.30729c3.43704-3.30729 1.14596-1.10269 3.05541-3.08708s3.43703-3.74828 4.96435-5.51188"/>
          <path transform="translate(2.291357,1.322913)" d="m203.9309 189.8438c0 1.76362 0 3.52751-1.52765 5.29157-1.52764 1.76406-4.58233 3.52769-7.63779 5.29176"/>
          <path transform="translate(27.49631,15.875)" d="m203.9309 189.8438c0 1.76362 0 3.52751-1.52765 5.29157-1.52764 1.76406-4.58233 3.52769-7.63779 5.29176"/>
        </g>
      </g>
      <path d="m203.9309 189.8438c9.16552 5.29172 18.33095 10.58338 27.4963 15.875" stroke-width=".998602"/>
      <path d="m194.7655 200.4271c9.16552 5.29171 18.33096 10.58338 27.49631 15.875" stroke-width=".998602"/>
    </g>
    <path d="m224.5532 220.2708v2.64583l-32.07903-18.52083v-2.64583l32.07903 18.52083" fill="#8f98f7"/>
    <path transform="matrix(1 0 0 1.000007 .0001902496 -.00161859)" d="m237.9193 209.908c0.38185 0.6613 0.38192 1.54321 0 2.6458-0.38191 1.10259-1.1395 2.41468-3.44891 4.19258-2.3094 1.7779-6.09808 3.96531-9.91726 6.17033v-1.32305c0-1.32278 0-1.32278 1.90959-2.42529 1.90959-1.1025 5.72789-3.30701 7.63748-5.29172 1.90959-1.98472 1.90966-3.7481 1.90972-5.51202 0.76381 0.44106 1.52753 0.88207 1.90938 1.54337z" fill="#838dfb"/>
    <g transform="matrix(.5804222 .3525996 .01630718 1.026289 93.89749 -66.22017)" stroke-width="1.301965">
      <rect x="132.8988" y="138.25" width="29.78767" height="27.78125" rx="1.750565" ry="1.735495" fill="#474bc9" style="paint-order:fill markers stroke"/>
      <rect x="135.1902" y="139.5729" width="25.20495" height="2.645829" rx="1.750565" ry="1.156995" fill="#3987a6" style="paint-order:fill markers stroke"/>
      <g transform="translate(-3.437025,1.984382)" stroke-width="1.301965">
        <path d="m141.1737 157.8445a7.9375 7.9375 0 0 1 0.29931-9.18368 7.9375 7.9375 0 0 1 8.76809-2.74776 7.9375 7.9375 0 0 1 5.48703 7.37036l-7.93546 0.18008z" fill="#fcfef7" style="paint-order:fill markers stroke"/>
        <path d="m145.4322 145.8851a7.9375 7.9375 0 0 1 8.45866 2.49754 7.9375 7.9375 0 0 1 0.92956 8.77056l-7.02781-3.68969z" fill="#282f39" style="paint-order:fill markers stroke"/>
        <path d="m155.7301 153.4635a7.9375 7.9375 0 0 1-5.64331 7.59872 7.9375 7.9375 0 0 1-8.9055-3.20617l6.61131-4.39255z" fill="#ff5e87" style="paint-order:fill markers stroke"/>
      </g>
      <rect x="155.8124" y="143.5417" width="2.291359" height="19.84375" rx="1.750565" ry="1.156994" fill="#fcfef7" style="paint-order:fill markers stroke"/>
    </g>
    <g transform="matrix(1.000209 -.02634662 -.01625397 1.00022 2.502822 2.662422)" stroke="#000" stroke-width="0">
      <rect transform="matrix(.8546566 .5191937 .01588745 .9998738 0 0)" x="226.5265" y="19.46782" width="20.22968" height="28.5152" rx="1.18886" ry="1.781344" fill="#ff5e87" style="paint-order:fill markers stroke"/>
      <rect transform="matrix(.8546566 .5191937 .01588745 .9998738 0 0)" x="228.0826" y="20.82569" width="17.11741" height="2.715729" rx="1.18886" ry="1.187561" fill="#282f39" fill-opacity=".9411765" style="paint-order:fill markers stroke"/>
      <path transform="matrix(.8546566 .5191937 .01588745 .9998738 0 0)" d="m229.812 41.61683a5.390588 8.1472 0 0 1 0.20327-9.426305 5.390588 8.1472 0 0 1 5.95466-2.820346 5.390588 8.1472 0 0 1 3.7264 7.565072l-5.3892 0.184839z" fill="#fcfef7" style="paint-order:fill markers stroke"/>
      <path transform="matrix(.8546566 .5191937 .01588745 .9998738 0 0)" d="m232.7041 29.34146a5.390588 8.1472 0 0 1 5.74452 2.563525 5.390588 8.1472 0 0 1 0.6313 9.002263l-4.7728-3.787161z" fill="#474bc9" style="paint-order:fill markers stroke"/>
      <path transform="matrix(.8546566 .5191937 .01588745 .9998738 0 0)" d="m239.6977 37.12009a5.390588 8.1472 0 0 1-3.83254 7.799473 5.390588 8.1472 0 0 1-6.04798-3.290882l4.48993-4.508591z" fill="#4191ff" style="paint-order:fill markers stroke"/>
      <rect transform="matrix(.8546566 .5191937 .01588745 .9998738 0 0)" x="242.0877" y="24.89928" width="1.556129" height="20.368" rx="1.18886" ry="1.18756" fill="#fcfef7" style="paint-order:fill markers stroke"/>
    </g>
    <g transform="matrix(.5653315 .3314932 -.00409974 .7002872 146.003 -15.75542)">
      <path d="m171.8519 179.2604" fill="none" stroke="#000" stroke-width=".4197866px"/>
      <rect x="126.0247" y="176.6146" width="73.32348" height="18.52083" rx="1.18886" ry="1.187561" fill="#474bc9" stroke-width="1.586595" style="paint-order:fill markers stroke"/>
      <g fill="#f9fced" stroke-width="1.586595">
        <rect x="130.6074" y="182.5677" width="6.614584" height="6.614583" rx="1.18886" ry="1.187561" style="paint-order:fill markers stroke"/>
        <rect x="169.82" y="182.5677" width="6.614584" height="6.614583" rx="1.18886" ry="1.187561" style="paint-order:fill markers stroke"/>
        <rect x="160.3951" y="182.5677" width="6.614584" height="6.614583" rx="1.18886" ry="1.187561" style="paint-order:fill markers stroke"/>
        <rect x="151.4892" y="182.5677" width="6.614584" height="6.614583" rx="1.18886" ry="1.187561" style="paint-order:fill markers stroke"/>
        <rect x="140.0324" y="182.5677" width="6.614584" height="6.614583" rx="1.18886" ry="1.187561" style="paint-order:fill markers stroke"/>
        <rect x="190.4423" y="182.5677" width="6.614584" height="6.614583" rx="1.18886" ry="1.187561" style="paint-order:fill markers stroke"/>
        <rect x="181.2768" y="182.5677" width="6.614584" height="6.614583" rx="1.18886" ry="1.187561" style="paint-order:fill markers stroke"/>
      </g>
    </g>
    <g transform="matrix(.9313064 .5421368 .00860843 .7813338 103.9308 -33.73038)">
      <rect x="128.3161" y="172.6458" width="36.66174" height="29.10417" rx="1.18886" ry="1.187561" fill="#fcfef7" stroke-width="1.176068" style="paint-order:fill markers stroke"/>
      <g transform="translate(-.6139657 .661458)" fill="#282f39" stroke-width="1.176068">
        <rect x="131.2214" y="192.4896" width="3.96875" height="3.96875" rx="1.18886" ry="1.187561" style="paint-order:fill markers stroke"/>
        <rect x="131.2214" y="176.6146" width="3.96875" height="3.96875" rx="1.18886" ry="1.187561" style="paint-order:fill markers stroke"/>
        <rect x="131.2214" y="184.5521" width="3.96875" height="3.96875" rx="1.18886" ry="1.187561" style="paint-order:fill markers stroke"/>
      </g>
      <g transform="translate(0,-2.645834)" fill-opacity="0" stroke="#4191ff" stroke-width=".9335042">
        <path d="m137.4815 180.5833h22.91359"/>
        <path d="m137.4815 199.1042h22.91359"/>
        <path d="m137.4815 195.4h22.91359"/>
        <path d="m137.4815 191.6958h22.91359"/>
        <path d="m137.4815 187.9917h22.91359"/>
        <path d="m137.4815 184.2875h22.91359"/>
      </g>
    </g>
    <rect transform="matrix(.8660259 .4999992 2.640621e-7 1 0 0)" x="246.0624" y="41.67736" width="10.58334" height="25.13542" rx="1.830371" ry="1.187562" fill="#ff5e87" style="paint-order:fill markers stroke"/>
    <g fill="none" stroke="#0a2b39" stroke-width=".2645833px">
      <path d="m215.3877 170 4.58272 2.64583"/>
      <path d="m215.3877 175.2917 4.58272 2.64583"/>
      <path d="m215.3877 180.5833 4.58272 2.64583"/>
      <path d="m215.3877 185.875 4.58272 2.64583"/>
      <path d="m215.3877 183.2292 4.58272 2.64583"/>
      <path d="m215.3877 188.5208 4.58272 2.64583"/>
      <path d="m215.3877 177.9375 4.58272 2.64583"/>
      <path d="m215.3877 175.2917 4.58272 2.64583"/>
      <path d="m215.3877 172.6458 4.58272 2.64583"/>
    </g>
    <g transform="matrix(1 .5561747 0 .826522 64.37904 -58.40624)" stroke-width="1.09995">
      <rect x="123.7334" y="183.2292" width="18.33087" height="18.52083" rx="1.830372" ry="1.187561" fill="#fcfef7" stroke-width="1.09995" style="paint-order:fill markers stroke"/>
    </g>
  </g>
  <g transform="translate(-118.9031 -32.32935)">
    <ellipse cx="139.5172" cy="124.9402" rx="9.456994" ry="5.472306" fill="#a9afd3" fill-opacity=".1210762" style="paint-order:fill markers stroke"/>
    <path d="m146.8994 90.77811c3.66871-1.770971 3.66871-1.912649 3.66871-1.912649l-1.83436-0.850067-2.52223 1.20426 1.26111 0.495875z" fill="#f6a7b0"/>
    <g fill="#282f39">
      <path d="m146.5303 74.83936 9.24447 5.525436-2.0189 6.800535-9.457-5.737952z"/>
      <path d="m153.9684 86.95282-4.67537 2.5502-9.03196-5.631693 4.14407-2.5502z"/>
    </g>
    <path d="m143.0322 99.5823 0.0865 3.33882s0.69939 3.21028 0.43742 10.41428c-0.26196 7.204-0.78589 11.5264-0.78589 11.5264l3.92946 1.04786s1.17883 1.04784-0.39295 1.83374c-0.78589 0.39294-2.44793 0.15334-3.92945-0.0982-1.73551-0.29471-2.75062-0.68766-2.75062-0.68766s-0.43498-21.19682-1.48283-22.76861c-1.04786-1.57178-1.48283-1.48283-1.48283-1.48283s0.34602 6.17595 0.21504 7.74773-1.57178 7.98989-1.30982 9.69266c0.26197 1.70276 0 0.52392 0 0.52392l2.75062-0.91687s1.17884-0.39295 1.17884 1.17884c0 1.57178-5.37026 3.66749-5.37026 3.66749s-1.79392 0.33738-1.83374-2.22669c-0.0316-2.03104-0.47088-4.02252 0.0819-7.31861 0.11483-0.55483 0.37256-1.94121 0.49573-3.75862s0.11179-4.06584-0.3116-6.34478c-0.16599-0.89343 0.17231-3.12021-0.42755-4.973386-0.67111-2.073262-0.32717-3.689158-0.62434-3.800971-0.78589-0.261964 4.71535 3.53651 6.02517 3.667492s3.53651 1.440795 4.06044 1.047845c0.52392-0.39294 1.4408-1.30981 1.4408-1.30981z" fill="#474bc9"/>
    <path d="m130.9818 95.27509c0.32908 1.799636 2.34848 2.938333 4.40426 3.759173 2.25914 0.902036 4.24726 2.549647 6.33624 1.854527 0.94656-0.31497 1.04794-0.905515 1.3099-1.306494 0.26197-0.400979-0.39302-9.920903 0.26189-9.920903s0.78589 2.53953 1.4408 2.138551 1.17883-3.475144 1.70276-3.475144-1.83374-2.138553-2.09571-3.608805c-0.26196-1.470256 0.32845-3.938743-0.52392-5.613697-0.58068-1.141059-1.57179-2.27221-2.8816-2.539529-1.30982-0.267319-2.67408 0.998274-3.79848 0.400979-0.83955-0.445978-1.4707-1.181098-1.33971-2.517691 0.0733-0.747862-1.29977-0.254813-2.5958 0.37372-1.02026 0.494795-1.55311 1.050964-1.9043 1.867804-2.44758 5.692878-1.26375 13.40632-0.31633 18.58751z" fill="#4191ff"/>
    <path d="m135.2669 73.88303s0.60374 4.264394 2.77721 3.717677c2.17347-0.546716 2.5357-0.765403 2.5357-0.765403z" fill="#ff5e87"/>
    <path d="m146.0239 88.22792s-1.6752 3.612785-1.93292 3.93156 1.41747 1.062583 2.3195 0.318775c0.90202-0.74381 0.90202-1.168842 1.03089-1.700133 0.12886-0.531294 1.4949-1.072334 0.25772-1.700136z" fill="#ff5e87"/>
    <path d="m142.7172 65.18829s1.681 1.88802 0.8405 3.220738c-0.8405 1.332721-1.57592 0.111061-1.57592 0.111061l-0.21013 2.332262-0.94556-0.555303s-1.05061 0.666361-1.15568 0.88848c-0.10506 0.222122 0.10507 2.110143 0.52532 2.110143 0.42024 0-2.66375 1.042636-3.81943 0.598399-1.15568-0.444242-1.45769-1.155711-1.74885-2.375362-0.34233-1.433986 0.73543-5.441939 1.05062-5.553 0.31518-0.111059 0.53819-0.779463 2.62654-1.110599 2.10124-0.333181 4.41259 0.333181 4.41259 0.333181z" fill="#282f39"/>
    <path d="m136.3763 73.89407-0.57807 0.551991 3.584 1.98717 0.11561-1.545576s1.15613 1.214382 1.96542 0.662391c0.80929-0.551992 1.27174-2.649562 1.27174-2.870357 0-0.220796 0.46245-0.110399 0.46245-0.110399l-0.23123-2.097567s0.57807-2.539161 0.69368-2.539161c0.11562 0-0.34683 0.551993-0.80929 0.662389-0.46245 0.1104-0.9249-0.441592-0.9249-0.441592l-0.34684 2.097568s-0.46244-0.441595-1.04052-0.331196c-0.57806 0.1104-1.50296 1.214383-1.38735 1.32478 0.11562 0.110398 0.34684 1.655973 0.57807 1.876772 0.23122 0.220796-2.89032 1.324778-3.35277 0.772787z" fill="#f6a7b0"/>
    <g fill="none">
      <path d="m141.3236 70.48277" stroke="#000" stroke-width=".2645833px"/>
      <path d="m120.1782 77.38956" stroke="#000" stroke-width=".2645833px"/>
      <path d="m141.3236 70.16399c3.29401 0.743808 3.18775 0.531292 3.18775 0.531292" stroke="#0a2b39" stroke-width=".396875"/>
      <path d="m118.9031 77.17704" stroke="#000" stroke-width=".2645833px"/>
      <path d="m143.3903 69.68165 1.09005 0.495472-0.0991 1.090046-0.99096 0.495469-0.0991 0.09909" stroke="#000" stroke-width=".2645833px"/>
    </g>
    <path d="m146.8491 75.90195 8.28815 4.887883-1.80639 5.525437-8.60693-5.206661z" fill="#b0b7ff"/>
  </g>
  <path d="m55.67854 54.12554 5.074071-8.788551 1.48957 5.559147h5.967992l0.751375 2.804166 4.591505-1.230289-0.152977-0.200205" fill="none" stroke="#4191ff" stroke-width=".2645834px"/>
</svg>
