<svg width="80" height="32" version="1.1" viewBox="0 0 21.16667 8.466667" xmlns="http://www.w3.org/2000/svg">
  <g transform="translate(-28.63152 -187.9509)">
    <g fill="#474bc9">
      <path transform="matrix(.2645833 0 0 .2645833 28.63152 187.9509)" d="m7 0c-3.878 0-7 3.122-7 7v18c0 3.878 3.122 7 7 7h66c3.878 0 7-3.122 7-7v-18c0-3.878-3.122-7-7-7zm13.28711 4.255859h0.351563c0.694445 0 1.041016 0.3415863 1.041016 1.027344 0 0.3819591-0.229384 0.9158051-0.689454 1.601562-0.190967 0.2777701-1.138449 2.462239-2.839843 6.550781-1.701387 4.079874-2.712022 6.439688-3.033203 7.082031-0.312504 0.642369-0.611978 1.108068-0.898438 1.394531-0.277778 0.286463-0.668404 0.429688-1.171875 0.429688-0.685765 0-1.258681-0.517786-1.71875-1.550781-0.04339-0.0955-0.595256-1.866327-1.654297-5.3125-1.059029-3.454866-1.73915-5.598306-2.042969-6.431641-0.3038186-0.8420031-0.6343314-1.527129-0.9902344-2.056641-0.3472227-0.5382047-0.5214844-1.016939-0.5214844-1.433594 0-0.425348 0.1271645-0.711797 0.3789063-0.859375 0.260417-0.1562204 0.6640625-0.234375 1.210938-0.234375 1.154512 0 1.8967 0.3825915 2.226562 1.146484 0.069442 0.1476535 0.1475721 0.5122319 0.2343751 1.09375 0.0868 0.5729008 0.207035 1.145824 0.363281 1.71875l0.222656 0.7558594c0.06944 0.2517165 0.124555 0.4550824 0.167969 0.6113281 0.04341 0.1476535 0.243712 0.8637765 0.59961 2.148438 1.197916 4.357619 1.914063 6.537109 2.148437 6.537109 0.321182 0 1.485026-2.812504 3.490234-8.4375 0.407985-1.137157 0.655382-1.897363 0.742188-2.279296 0.0955-0.3819339 0.189685-0.8636936 0.285156-1.445312 0.0955-0.5902614 0.173626-0.946835 0.234375-1.068359 0.312502-0.6597291 0.934462-0.9882812 1.863281-0.9882812zm40.08984 0.011719h0.195313c0.399307 0 0.698785 0.1301904 0.898437 0.390625 0.208328 0.2517166 0.3125 0.5542508 0.3125 0.9101563v0.392575c-0.02605 0.104063-0.03906 0.1953273-0.03906 0.2734375 0 0.3645984-0.156249 0.6770906-0.46875 0.9375-0.303819 0.2517165-0.694445 0.3769531-1.171875 0.3769531h-0.15625c-0.355903 0-0.655381-0.094164-0.898438-0.2851562-0.243051-0.1995563-0.363283-0.5250574-0.363283-0.9765597v-0.4570313c0-0.4340409 0.143229-0.7936151 0.429687-1.080078 0.286461-0.286463 0.588977-0.4296875 0.910157-0.4296875 0.05208-0.017638 0.101117-0.027344 0.144531-0.027344zm9.154297 5.105469h0.337891c1.137151 0 2.04058 0.1592845 2.708984 0.4804687 0.677082 0.3211841 1.015625 0.8029441 1.015625 1.445312 0 0.633676-0.281468 0.951172-0.845703 0.951172-0.147578 0-0.564245-0.174247-1.25-0.521484-0.685765-0.355906-1.333769-0.533204-1.941406-0.533204-0.60764 0-1.09744 0.138221-1.470703 0.416016-0.364584 0.269102-0.546876 0.643664-0.546876 1.121094s0.255427 0.894094 0.767579 1.25c0.29514 0.208378 0.990234 0.536955 2.083984 0.988281 1.10243 0.451402 1.888672 0.886079 2.357422 1.302735 0.755207 0.668396 1.132812 1.522764 1.132812 2.564453 0 1.041663-0.44271 1.937061-1.328125 2.683593-0.885417 0.73784-2.03624 1.105469-3.451172 1.105469h-0.33789c-1.423612 0-2.491319-0.203341-3.203125-0.611328-0.711804-0.41668-1.068359-0.95553-1.068359-1.615234 0-0.668397 0.278429-1.001953 0.833984-1.001953 0.182299 0 0.654088 0.234387 1.417969 0.703124 0.772568 0.468763 1.527775 0.703126 2.265625 0.703126 0.746527 0 1.306424-0.156234 1.679687-0.46875 0.373264-0.321185 0.560547-0.719836 0.560547-1.197266 0-0.486098-0.234375-0.912745-0.703125-1.277344-0.251742-0.199559-0.972879-0.559158-2.162109-1.080078-1.189236-0.529512-2.051649-1.058379-2.589844-1.587891-0.529514-0.538204-0.794922-1.293404-0.794922-2.265625 0-0.97222 0.434678-1.805549 1.302734-2.5 0.868055-0.7031177 1.943794-1.054687 3.228516-1.054687zm-26.30273 0.1816403h0.560546c1.137158 0 2.095705 0.3825912 2.876954 1.146484 0.789931 0.7552 1.185549 1.731754 1.185546 2.929687v0.259766c0 0.850696-0.33854 1.454641-1.015624 1.810547-0.468753 0.251716-1.5625 0.502164-3.28125 0.753906-1.718751 0.251717-2.65625 0.404924-2.8125 0.457031-0.520838 0.182426-0.78125 0.528991-0.78125 1.041016 0 0.711811 0.304469 1.318807 0.912109 1.822266 0.607637 0.503483 1.422958 0.755859 2.447265 0.755859 0.477433 0 1.12847-0.130216 1.953126-0.390625 0.824652-0.260435 1.30143-0.390625 1.43164-0.390625 0.442706 0 0.664063 0.190307 0.664063 0.572266 0 0.512151-0.49783 1.024958-1.496094 1.537109s-2.039933 0.767578-3.125 0.767578h-0.287109c-1.657989 0-2.978082-0.523863-3.958985-1.574219-0.980901-1.059023-1.470703-2.470277-1.470703-4.232422v-0.572265c0-0.842003 0.164281-1.69835 0.494141-2.566406 0.668404-1.736114 1.759116-2.934021 3.269531-3.59375 0.798612-0.3559071 1.608941-0.5332035 2.433594-0.5332035zm16.58984 0.2597656h0.220703c0.529516 0 0.902128 0.2313369 1.119141 0.6914059 0.138885 0.286463 0.208983 0.776253 0.208985 1.470703v1.171876l-0.05273 1.445312c-0.01739 0.329877-0.02539 0.57227-0.02539 0.728516l-0.02539 0.482422c-0.01739 0.321184-0.02734 0.560551-0.02734 0.716796l-0.07813 1.691407c0 3.333341-0.346573 5.695108-1.041015 7.083984-0.347224 0.69445-0.855036 1.275378-1.523438 1.744141-0.659724 0.468737-1.370878 0.703125-2.134766 0.703125h-0.429687c-0.755208 0-1.132813-0.263457-1.132813-0.792969 0-0.407988 0.14323-0.725484 0.429688-0.951172 0.121524-0.0955 0.324868-0.191613 0.611328-0.287109l0.78125-0.259766c0.451389-0.199559 0.797959-0.577171 1.041016-1.132813 0.555555-1.293404 0.833984-3.598106 0.833984-6.914062l0.06445-1.210938c0.02605-0.486097 0.03906-1.111106 0.03906-1.875 0-0.772585-0.03407-1.298401-0.103516-1.576171-0.06077-0.27777-0.169926-0.624336-0.326172-1.041016-0.147577-0.416655-0.220702-0.747186-0.220702-0.990234 0-0.24315 0.1352-0.45147 0.404297-0.625 0.269097-0.182426 0.724826-0.2734379 1.367187-0.2734379zm-35.69141 0.1171875h0.300781c0.572919 0 0.958547 0.2313374 1.158204 0.6914064 0.199659 0.460069 0.298828 1.319441 0.298828 2.578125l-0.15625 4.347656c0 2.022576 0.726128 3.035156 2.175781 3.035156 0.529514 0 1.037327-0.18728 1.523437-0.560546 0.486111-0.373271 0.845702-0.820953 1.080078-1.341797 0.512156-1.145827 0.767579-3.198128 0.767579-6.158203l-0.025391-0.572266v-0.507813c0-0.460069 0.104172-0.795578 0.3125-1.003906 0.208328-0.208378 0.572911-0.3125 1.09375-0.3125 0.520831 0 0.864366 0.12719 1.029297 0.378906 0.164938 0.251717 0.246094 0.658398 0.246094 1.222657l-0.02539 0.691406-0.05273 3.072266c0 0.49479 0.03102 1.254994 0.0918 2.279296 0.06078 1.024303 0.12587 1.77452 0.195313 2.251954 0.06944 0.468737 0.103516 0.747156 0.103516 0.833984 0 0.77256-0.567923 1.158203-1.705079 1.158203-0.390626 0-0.78125-0.143225-1.171874-0.429687-0.381948-0.295135-0.655382-0.44336-0.820313-0.44336-0.156246 0-0.424692 0.09611-0.806641 0.28711-1.085078 0.546872-2.009558 0.820312-2.773446 0.820312h-0.326172c-1.241318 0-2.152776-0.382591-2.734375-1.146484-0.581596-0.763893-0.873047-2.13912-0.873047-4.126954l0.130859-3.945312c0-0.494791-0.0701-0.968546-0.208984-1.419922-0.138885-0.451401-0.207031-0.73785-0.207031-0.859375 0-0.546872 0.458768-0.8203124 1.378906-0.8203124zm19.02344 1.277343-0.07813 0.01172c-0.842014 0-1.57921 0.356574-2.212891 1.068359-0.633681 0.711815-0.951172 1.462032-0.951172 2.251954v0.208983c0 0.260409 0.239367 0.390625 0.716797 0.390625h0.3125l0.07813-0.01172 0.638672-0.05273c0.668402-0.0955 1.101129-0.142578 1.300781-0.142578 0.94618 0 1.659286-0.177298 2.136719-0.533203 0.225688-0.173607 0.337888-0.483073 0.337891-0.925782v-0.142578c0-0.651036-0.216363-1.166869-0.650391-1.548828-0.425346-0.381934-0.93815-0.574219-1.537109-0.574219zm9.128906 8.111328h0.351562c0.94618 0 1.417969 0.494767 1.417969 1.484376v0.18164l-0.05078 0.44336c0 0.399294-0.153213 0.706807-0.457031 0.923828-0.295141 0.208378-0.63672 0.3125-1.027344 0.3125h-0.404297c-0.434028 0-0.772571-0.09927-1.015625-0.298828-0.234381-0.199562-0.351564-0.46497-0.351562-0.794922-0.01739-0.06954-0.02539-0.124631-0.02539-0.167969l-0.02734-0.222656v-0.234375l0.01367-0.05078v-0.117187c0.01739-0.06954 0.02539-0.126583 0.02539-0.169922 0-0.390627 0.130208-0.695089 0.390625-0.912109 0.269097-0.225764 0.565539-0.337891 0.886718-0.337891z" fill="#474bc9" style="paint-order:fill markers stroke"/>
    </g>
  </g>
</svg>
