<svg width="40.09303" height="42.88702" version="1.1" viewBox="0 0 10.60795 11.34719" xmlns="http://www.w3.org/2000/svg">
  <g transform="translate(-5.598196 -97.3766)">
    <path d="m8.976692 106.0334c1.857344 1.43028 4.599412 0.96268 6.02567-0.88228 1.57975-2.04351 1.092136-5.01789-0.925943-6.53942-2.216695-1.671275-5.463143-1.105955-7.137214 1.097778-1.825852 2.403532-1.24526 5.879092 1.130855 7.643352 2.247265 1.66859 5.469917 1.40844 7.523014-0.50539" fill="none" stroke="#474bc9" stroke-linecap="round" stroke-width=".5291667"/>
    <g fill="#474bc9" fill-opacity=".9411765" aria-label="В">
      <path d="m12.50649 102.5687q0 0.062 0.33073 0.21498 0.367936 0.17363 0.541569 0.33072 0.177766 0.15297 0.289388 0.41342 0.115755 0.25631 0.115755 0.61598 0 0.33073-0.446485 0.90124-0.44235 0.56637-1.149283 0.95084-0.7028 0.38034-1.467611 0.38034-0.144694 0-0.405143-0.0868-0.256315-0.0868-0.256315-0.1819 0-0.52089 0.735872-0.52089 0.227376 4e-3 0.446484-4e-3 0.219109-0.0124 0.558106-0.14469 0.343131-0.13643 0.644922-0.38034 0.30179-0.24391 0.434082-0.47542 0.132291-0.23565 0.132291-0.45062 0-0.38034-0.318326-0.67386-0.318327-0.29353-0.868164-0.29353-0.08268 0-0.392741 0.1323-0.310059 0.13642-0.405143 0.13642-0.322461 0-0.405144-0.0827-0.07855-0.0827-0.07855-0.29352 0-0.1447 0.694531-0.41755 0.682129-0.26872 1.227832-0.82269 0.549838-0.55397 0.549838-0.8847 0-0.22324-0.231511-0.39274-0.227376-0.17363-0.624251-0.17363-0.51263 0-1.190625 0.14056-0.677995 0.13642-0.744141 0.26872-0.06201 0.13229-0.3472653 2.01331-0.2852539 1.87689-0.2852539 2.17041 0 0.1571 0.016537 0.30179 0.012402 0.14883 0.012402 0.28112 0 0.56637-0.5498372 0.56637-0.1529622 0-0.252181-0.2191-0.099219-0.21911-0.099219-0.40101 0-0.0785 0.1364258-0.63252 0.1653645-0.75241 0.3307291-2.05879 0.1653646-1.31052 0.1653646-1.39733 0-0.17364-0.049609-0.25632-0.045475-0.0827-0.2149739-0.0827-0.066146 0-0.1322917 4e-3 -0.062012 4e-3 -0.1281575-0.0785-0.062012-0.0827-0.062012-0.19844 0-0.3266 1.083138-0.69453 1.083138-0.372073 2.583821-0.372073 0.549838 0 0.975651 0.372073 0.429948 0.37207 0.429948 0.76481 0 0.28112-0.376204 0.79788-0.37207 0.51263-0.954981 0.91364z" fill="#474bc9" fill-opacity=".9411765"/>
    </g>
  </g>
</svg>
