<svg width="171.7754" height="194.2028" version="1.1" viewBox="0 0 45.4489 51.38283" xmlns="http://www.w3.org/2000/svg">
  <g transform="translate(-172.2213 -178.1275)">
    <g transform="translate(107.8883 -54.10711)">
      <g transform="translate(-5.560084 28.95076)">
        <g transform="translate(-.1917271)">
          <ellipse cx="85.95987" cy="249.375" rx="15.875" ry="5.291666" fill="#282f39" stroke-width="0" style="paint-order:fill markers stroke"/>
          <path d="m70.08488 238.7917h31.74998v10.58333h-31.74998" fill="#282f39"/>
          <ellipse cx="85.95987" cy="238.7916" rx="15.875" ry="5.291666" fill="#b0b7ff" stroke-width="0" style="paint-order:fill markers stroke"/>
        </g>
        <g transform="translate(-.1917271 6.058575)">
          <path d="m85.95987 222.0347" fill="none" stroke="#000" stroke-width=".2645833px"/>
          <g>
            <ellipse cx="85.95987" cy="228.2083" rx="15.875" ry="5.291666" fill="#4191ff" stroke-width="0" style="paint-order:fill markers stroke"/>
            <path d="m70.08488 217.625h31.74998v10.58333h-31.74998" fill="#4191ff"/>
            <ellipse cx="85.95987" cy="217.625" rx="15.875" ry="5.291666" fill="#b0b7ff" stroke-width="0" style="paint-order:fill markers stroke"/>
          </g>
        </g>
        <g transform="translate(1.72554 26.49668)">
          <ellipse cx="84.0426" cy="192.6621" rx="15.875" ry="5.291666" fill="#474bc9" stroke-width="0" style="paint-order:fill markers stroke"/>
          <path d="m68.16761 182.0788h31.74998v10.58333h-31.74998" fill="#474bc9"/>
          <ellipse cx="84.0426" cy="182.0788" rx="15.875" ry="5.291666" fill="#b0b7ff" stroke-width="0" style="paint-order:fill markers stroke"/>
        </g>
      </g>
      <g transform="translate(-36.84216 32.20574)">
        <g>
          <path transform="matrix(.2645833 0 0 .2645833 0 86.99999)" d="m494.4707 509.9219a6.2327 6.232664 0 0 0-6.20312 5.65039l-1.55078 16.5664-3.70118 1.52149-12.80664-10.59571a6.2327 6.232664 0 0 0-8.38281 0.38477l-5.60547 5.60351a6.2327 6.232664 0 0 0-0.38281 8.38477l10.59375 12.80469-1.51953 3.70117-16.56836 1.55078a6.2327 6.232664 0 0 0-5.65039 6.20313v7.92382a6.2327 6.232664 0 0 0 5.65039 6.20313l16.56836 1.55078 1.51953 3.70117-10.59375 12.80469a6.2327 6.232664 0 0 0 0.38281 8.38476l5.60547 5.60352a6.2327 6.232664 0 0 0 8.38281 0.38477l12.80664-10.59571 3.70118 1.52149 1.55078 16.56836a6.2327 6.232664 0 0 0 6.20312 5.65039h7.92383a6.2327 6.232664 0 0 0 6.20313-5.65039l1.55078-16.56836 3.69922-1.52149 12.80664 10.59571a6.2327 6.232664 0 0 0 8.38476-0.38477l5.60352-5.60352a6.2327 6.232664 0 0 0 0.38476-8.38476l-10.5957-12.80469 1.52148-3.70117 16.56641-1.55078a6.2327 6.232664 0 0 0 5.65039-6.20313v-7.92382a6.2327 6.232664 0 0 0-5.65039-6.20313l-16.56641-1.55078-1.52148-3.70117 10.5957-12.80469a6.2327 6.232664 0 0 0-0.38476-8.38477l-5.60352-5.60351a6.2327 6.232664 0 0 0-8.38476-0.38477l-12.80664 10.59571-3.69922-1.52149-1.55078-16.5664a6.2327 6.232664 0 0 0-6.20313-5.65039zm3.96094 35.23828a20.5 20.5 0 0 1 20.5 20.5 20.5 20.5 0 0 1-20.5 20.5 20.5 20.5 0 0 1-20.5-20.5 20.5 20.5 0 0 1 20.5-20.5z" fill="#ff5e87"/>
          <g transform="translate(21.43707 -30.37201)" fill="#b0b7ff">
            <path transform="matrix(.2645833 0 0 .2645833 0 86.99999)" d="m417.4102 655.9512a24.5 24.5 0 0 0-24.5 24.5 24.5 24.5 0 0 0 24.5 24.5 24.5 24.5 0 0 0 24.5-24.5 24.5 24.5 0 0 0-24.5-24.5zm0 4.15625a21.04586 20.34433 0 0 1 21.04492 20.34375 21.04586 20.34433 0 0 1-21.04492 20.34375 21.04586 20.34433 0 0 1-21.04688-20.34375 21.04586 20.34433 0 0 1 21.04688-20.34375z" style="paint-order:fill markers stroke"/>
            <path transform="matrix(.2645833 0 0 .2645833 0 86.99999)" d="m417.4102 655.9512a24.5 24.5 0 0 0-24.5 24.5 24.5 24.5 0 0 0 24.5 24.5 24.5 24.5 0 0 0 24.5-24.5 24.5 24.5 0 0 0-24.5-24.5zm0 4.15625a21.04586 20.34433 0 0 1 21.04492 20.34375 21.04586 20.34433 0 0 1-21.04492 20.34375 21.04586 20.34433 0 0 1-21.04688-20.34375 21.04586 20.34433 0 0 1 21.04688-20.34375z" style="paint-order:fill markers stroke"/>
          </g>
        </g>
      </g>
      <ellipse cx="96.05461" cy="256.9076" rx="5.289964" ry="5.011545" fill-opacity="0" style="paint-order:fill markers stroke"/>
    </g>
  </g>
</svg>
