<svg width="55" height="31.99998" version="1.1" viewBox="0 0 14.55208 8.46666" xmlns="http://www.w3.org/2000/svg">
  <g transform="translate(-31.32696 -187.9509)">
    <path d="m32.60027 187.9509c-0.705412 0-1.273307 0.82603-1.273307 1.85208v4.7625c0 1.02605 0.567895 1.85208 1.273307 1.85208h12.00547c0.705412 0 1.273307-0.82603 1.273307-1.85208v-4.7625c0-1.02605-0.567895-1.85208-1.273307-1.85208zm6.393925 1.76836h0.120406c0.452456 0 0.769405 0.0599 0.950846 0.17932 0.183739 0.11713 0.275436 0.27773 0.275436 0.48214 0 0.10794-0.02411 0.19275-0.07235 0.25477-0.04823 0.062-0.09038 0.093-0.127124 0.093-0.03445 0-0.217044-0.0999-0.54777-0.29972-0.202112-0.12173-0.414905-0.18242-0.637688-0.18242-0.220486 0-0.408646 0.0564-0.564823 0.16899-0.153881 0.11024-0.230994 0.26527-0.230994 0.46508 0 0.19982 0.084 0.37632 0.251665 0.5302 0.08498 0.0781 0.343361 0.22066 0.775146 0.42737 0.431785 0.2044 0.730188 0.39044 0.895553 0.5581 0.229672 0.23427 0.344681 0.50167 0.344681 0.80254v0.1173c-0.0023 0.18144-0.04705 0.35927-0.134358 0.53382-0.167662 0.33073-0.45148 0.56287-0.851111 0.69608-0.206706 0.0689-0.436207 0.10336-0.688847 0.10336-0.783185 0-1.257288-0.16749-1.422652-0.50282-0.05742-0.11713-0.0863-0.22393-0.0863-0.32039 0-0.0919 0.02544-0.16766 0.07597-0.22738 0.05053-0.062 0.107772-0.093 0.172082-0.093s0.16898 0.062 0.313676 0.18603c0.146991 0.12403 0.297255 0.22393 0.451135 0.29972 0.153882 0.0735 0.348128 0.11008 0.582394 0.11008s0.43144-0.062 0.592211-0.18604c0.163068-0.12402 0.244947-0.30104 0.244947-0.53072 0-0.22967-0.116329-0.43293-0.348299-0.60978-0.103353-0.0781-0.350079-0.20901-0.740524-0.39274-0.388147-0.18604-0.662435-0.36518-0.823205-0.53743-0.213596-0.22738-0.320394-0.50035-0.320394-0.81959 0-0.40423 0.148943-0.7225 0.447518-0.95447 0.298575-0.23426 0.666396-0.3514 1.102775-0.3514zm3.913456 0h0.120406c0.452456 0 0.769404 0.0599 0.950846 0.17932 0.183738 0.11713 0.275953 0.27773 0.275953 0.48214 0 0.10794-0.02411 0.19275-0.07235 0.25477-0.04823 0.062-0.0909 0.093-0.127641 0.093-0.03445 0-0.217044-0.0999-0.54777-0.29972-0.202113-0.12173-0.414388-0.18242-0.637171-0.18242-0.220486 0-0.409163 0.0564-0.56534 0.16899-0.153881 0.11024-0.230477 0.26527-0.230477 0.46508 0 0.19982 0.08349 0.37632 0.251148 0.5302 0.08498 0.0781 0.343361 0.22066 0.775146 0.42737 0.431785 0.2044 0.730705 0.39044 0.89607 0.5581 0.229673 0.23427 0.344165 0.50167 0.344165 0.80254v0.1173c-0.0023 0.18144-0.04705 0.35927-0.134359 0.53382-0.167661 0.33073-0.450964 0.56287-0.850594 0.69608-0.206706 0.0689-0.436724 0.10336-0.689364 0.10336-0.783185 0-1.257287-0.16749-1.422652-0.50282-0.05742-0.11713-0.0863-0.22393-0.0863-0.32039 0-0.0919 0.02544-0.16766 0.07596-0.22738 0.05053-0.062 0.107772-0.093 0.172082-0.093s0.168981 0.062 0.313676 0.18603c0.146991 0.12403 0.297254 0.22393 0.451135 0.29972 0.153881 0.0735 0.348127 0.11008 0.582394 0.11008 0.234266 0 0.431958-0.062 0.592728-0.18604 0.163068-0.12402 0.24443-0.30104 0.24443-0.53072 0-0.22967-0.115812-0.43293-0.347782-0.60978-0.103353-0.0781-0.350596-0.20901-0.74104-0.39274-0.388148-0.18604-0.662435-0.36518-0.823206-0.53743-0.213596-0.22738-0.320394-0.50035-0.320394-0.81959 0-0.40423 0.149459-0.7225 0.448035-0.95447 0.298574-0.23426 0.665879-0.3514 1.102258-0.3514zm-7.809859 0.0274h0.106453c0.480017 0 0.821082 0.0702 1.023194 0.21033 0.202112 0.1401 0.30334 0.31712 0.30334 0.53071 0 0.12862-0.02544 0.21474-0.07596 0.25838-0.05053 0.0436-0.09956 0.0651-0.147794 0.0651-0.04593 0-0.145842-0.0525-0.299724-0.15813-0.151584-0.10566-0.298919-0.18754-0.441317-0.24495-0.142397-0.0597-0.320221-0.0894-0.533817-0.0894s-0.407842 0.053-0.582394 0.15865c-0.523654 0.31924-0.786285 0.97462-0.788582 1.9668 0 0.25724 0.03445 0.48938 0.103353 0.69608 0.209003 0.62471 0.625859 0.9369 1.25057 0.9369 0.303168 0 0.651926-0.11025 1.046964-0.33073 0.124023-0.0689 0.216238-0.10335 0.275952-0.10335 0.09876 0 0.147795 0.0564 0.147795 0.16898 0 0.0712-0.03181 0.15044-0.09612 0.23771-0.11254 0.15618-0.259875 0.27888-0.441317 0.36845-0.307761 0.15388-0.64963 0.231-1.026294 0.231h-0.110587c-0.587963 0-1.060745-0.19638-1.419035-0.58912-0.169958-0.18604-0.300872-0.4203-0.392741-0.7028-0.08957-0.2825-0.134359-0.58009-0.134359-0.89245v-0.11007c0-0.36518 0.05725-0.7179 0.172083-1.05781 0.215892-0.6362 0.596174-1.08274 1.140499-1.33997 0.296278-0.1401 0.602891-0.21033 0.91984-0.21033z" fill="#4191ff" style="paint-order:fill markers stroke"/>
  </g>
</svg>
