<svg width="105" height="32" version="1.1" viewBox="0 0 27.78125 8.466667" xmlns="http://www.w3.org/2000/svg">
  <g transform="translate(-28.63152 -187.9509)">
    <path transform="matrix(.2645833 0 0 .2645833 28.63152 187.9509)" d="m9.1875 0c-5.089875 0-9.1875 3.122-9.1875 7v18c0 3.878 4.097625 7 9.1875 7h86.625c5.08988 0 9.1875-3.122 9.1875-7v-18c0-3.878-4.09762-7-9.1875-7zm42.55078 6.474609h0.259766c0.703123 0 1.150822 0.1692676 1.341797 0.5078125 0.190967 0.3298519 0.287109 0.9468317 0.287109 1.849609l-0.06641 2.070313-0.02539 0.585937v0.767578c0 0.329878 0.05209 0.577249 0.15625 0.742188 0.112857 0.164787 0.404305 0.248047 0.873047 0.248047 0.0086 0 0.290035-0.06504 0.845703-0.195313 0.564236-0.130267 1.145182-0.195312 1.744141-0.195312 1.293402 0 2.374133 0.512807 3.242187 1.537109 0.868057 1.024302 1.302735 2.274296 1.302735 3.75v0.9375c0 0.729172-0.14323 1.500432-0.429688 2.316406-0.295141 0.815975-0.711808 1.524093-1.25 2.123047-1.102433 1.215295-2.46159 1.822266-4.076172 1.822266h-0.285156c-0.451389 0-1.034288-0.08616-1.746094-0.259766s-1.175565-0.259765-1.392578-0.259765l-0.873047 0.07813c-0.894097 0-1.339843-0.447712-1.339843-1.341797v-0.533203c0-0.529512 0.104172-2.461581 0.3125-5.794922 0.21702-3.333342 0.324218-5.460721 0.324218-6.38086 0-0.920137-0.07312-1.683394-0.220703-2.291015-0.147578-0.6076473-0.220703-0.9381525-0.220703-0.9902344 0-0.7291717 0.411676-1.09375 1.236328-1.09375zm-37.75976 0.546875h0.80664c0.642361 0 1.103082 0.088112 1.38086 0.2617187 0.286458 0.1736063 0.429687 0.4991326 0.429687 0.9765625v0.3125c0 0.6336756-0.296442 0.9492188-0.886719 0.9492188-0.130217 0-0.398663-0.052187-0.80664-0.15625-0.407988-0.104063-0.790582-0.1853694-1.146485-0.2460938-0.347222-0.0695433-1.089411-0.1035156-2.226562-0.1035156-1.128471 0-1.865668 0.2634569-2.212891 0.7929688-0.3385416 0.5295122-0.5078124 1.571186-0.5078124 3.125 0 0.798614 0.1252113 1.33246 0.3769531 1.601562 0.260417 0.26041 0.8593761 0.390625 1.796875 0.390625 0.234381 0 0.585943-0.04708 1.054687-0.142578 0.46875-0.0955 0.872396-0.144531 1.210938-0.144531 0.33854 0 0.63802 0.148229 0.898437 0.443359 0.269098 0.295131 0.404297 0.711796 0.404297 1.25 0 0.772561-0.398654 1.158203-1.197265 1.158203l-1.511719-0.128906c-0.659722 0-1.248697 0.112127-1.769531 0.337891-0.5208347 0.216945-0.8773853 0.482329-1.06836 0.794922-0.4687489 0.763867-0.7031247 2.039929-0.703125 3.828125l0.064453 1.537109c0 0.338545-0.1562486 0.61999-0.46875 0.845703-0.3038186 0.216945-0.7756078 0.324219-1.417969 0.324219-0.6423609 0-1.108073-0.120132-1.394531-0.363281-0.286458-0.251717-0.4296875-0.577243-0.4296875-0.976563v-0.300781c0-0.156221 0.1041724-0.489777 0.3125-1.001953 0.2170204-0.520844 0.3472284-1.036677 0.390625-1.548828 0.3038186-3.524309 0.4570312-6.141503 0.4570312-7.851563s-0.018014-2.709631-0.052734-2.996094c-0.0347214-0.286463-0.1178297-0.6280493-0.248047-1.027344-0.1215244-0.3993197-0.1816407-0.6076393-0.1816407-0.625 0-0.4600693 0.2944891-0.7434924 0.8847657-0.8476562 1.770832-0.3124914 4.358939-0.46875 7.761719-0.46875zm7.460937 0.052734h0.259766l0.365234 0.052734c0.225688 0 0.447042 0.1121269 0.664063 0.3378907 0.225303 0.2165746 0.337506 0.5385465 0.33789 0.9628906v0.1562469c0 0.4427086-0.130208 0.8203211-0.390625 1.132812-0.251741 0.3038229-0.642365 0.4570309-1.171875 0.4570309h-0.208984l-0.402344-0.05273c-0.234381 0-0.460726-0.109227-0.677734-0.3261719-0.217021-0.2169451-0.326172-0.5424714-0.326172-0.9765627v-0.15625l0.06641-0.46875c0-0.1824252 0.107198-0.4068049 0.324219-0.6757813 0.225688-0.2691023 0.512147-0.4042969 0.859375-0.4042969zm47.7207 5.13086h0.650391c0.876737 0 1.649957 0.164264 2.318359 0.494141 0.668402 0.321184 1.176215 0.758913 1.523438 1.314453 0.355903 0.555565 0.572265 1.281696 0.65039 2.175781 0.01739 0.208378 0.02734 1.219005 0.02734 3.033203 0 1.814249 0.02104 2.860902 0.06445 3.138672 0.05208 0.269102 0.19032 0.597655 0.416016 0.988281 0.234381 0.390627 0.351562 0.713128 0.351562 0.964844 0 0.251717-0.120232 0.468066-0.363281 0.650391-0.234381 0.173606-0.577915 0.259765-1.029297 0.259765-0.451389 0-0.941189-0.107273-1.470703-0.324218-0.529514-0.225764-0.917102-0.339844-1.160156-0.339844-0.02605 0-0.458778 0.156259-1.300781 0.46875-0.842014 0.303823-1.55512 0.457031-2.136719 0.457031h-0.285156c-0.972221 0-1.802517-0.309466-2.488282-0.925781-0.677082-0.616315-1.015625-1.491747-1.015625-2.628906s0.374567-2.022575 1.121094-2.65625c0.746527-0.642369 1.652994-1.082051 2.720703-1.316407 0.321179-0.06954 0.855033-0.160555 1.601563-0.273437 0.746527-0.112882 1.25434-0.230114 1.523437-0.351563 0.46875-0.216945 0.703125-0.623626 0.703125-1.222656 0-0.607622-0.200305-1.081377-0.599609-1.419922-0.399307-0.347238-0.876085-0.521484-1.431641-0.521484-0.546875 0-1.268011 0.205294-2.162109 0.613281-0.894098 0.407988-1.462024 0.611328-1.705078 0.611328-0.581599 0-0.873047-0.372608-0.873047-1.11914 0-0.555541 0.468748-1.037325 1.40625-1.445313 0.946179-0.41668 1.927735-0.625 2.943359-0.625zm13.67188 0.06445h0.337891c1.137154 0 2.040582 0.161238 2.708984 0.482422 0.677085 0.321184 1.015625 0.802969 1.015625 1.445313 0 0.6337-0.281465 0.949218-0.845703 0.949218-0.147578 0-0.564245-0.172293-1.25-0.519531-0.685762-0.355905-1.333766-0.535156-1.941406-0.535156s-1.09744 0.140173-1.470703 0.417969c-0.364584 0.269077-0.546875 0.64171-0.546875 1.11914s0.255424 0.894095 0.767578 1.25c0.295138 0.208378 0.990234 0.538883 2.083984 0.990235 1.10243 0.451401 1.888673 0.884126 2.357422 1.300781 0.75521 0.668397 1.132813 1.524743 1.132813 2.566406 0 1.041688-0.442708 1.935134-1.328125 2.681641-0.885418 0.737864-2.036243 1.107422-3.451172 1.107422h-0.337891c-1.423609 0-2.491319-0.205294-3.203125-0.613282-0.711806-0.41668-1.068359-0.953577-1.068359-1.613281 0-0.668422 0.278429-1.003906 0.833984-1.003906 0.182299 0 0.654089 0.234363 1.417969 0.703125 0.772571 0.468737 1.527778 0.703125 2.265625 0.703125 0.746527 0 1.306424-0.156259 1.679687-0.46875 0.373264-0.321184 0.560547-0.719836 0.560547-1.197266 0-0.486097-0.234375-0.910792-0.703125-1.27539-0.251741-0.199559-0.972878-0.561112-2.162109-1.082032-1.189236-0.529511-2.051649-1.058378-2.589844-1.58789-0.529512-0.538205-0.794922-1.293405-0.794922-2.265625 0-0.972221 0.43468-1.80555 1.302735-2.5 0.868056-0.703118 1.943793-1.054688 3.228515-1.054688zm-40.20898 0.181641h0.560547c1.137154 0 2.095704 0.382591 2.876953 1.146484 0.789931 0.7552 1.185547 1.731754 1.185547 2.929688v0.259765c0 0.850696-0.338543 1.454642-1.015625 1.810547-0.468752 0.251717-1.562503 0.504118-3.28125 0.75586-1.71875 0.251716-2.65625 0.402971-2.8125 0.455078-0.520834 0.182425-0.78125 0.52899-0.78125 1.041015 0 0.711811 0.304469 1.320761 0.912109 1.824219 0.60764 0.503484 1.422961 0.753906 2.447266 0.753906 0.47743 0 1.128472-0.13019 1.953125-0.390625 0.824652-0.260409 1.301431-0.390625 1.43164-0.390625 0.442709 0 0.664063 0.19226 0.664063 0.574219 0 0.512151-0.49783 1.023005-1.496094 1.535156-0.998264 0.512152-2.03993 0.769532-3.125 0.769532h-0.287109c-1.657988 0-2.978084-0.525816-3.958985-1.576172-0.980903-1.059024-1.470703-2.470255-1.470703-4.232422v-0.572266c0-0.842003 0.164281-1.696396 0.494141-2.564453 0.668404-1.736113 1.759116-2.934021 3.269531-3.59375 0.798612-0.355905 1.608941-0.535156 2.433594-0.535156zm53.09961 0h0.560547c1.137154 0 2.095705 0.382591 2.876953 1.146484 0.789932 0.7552 1.185544 1.731754 1.185544 2.929688v0.259765c0 0.850696-0.33854 1.454642-1.015622 1.810547-0.468752 0.251717-1.562502 0.504118-3.28125 0.75586-1.71875 0.251716-2.656249 0.402971-2.8125 0.455078-0.520834 0.182425-0.78125 0.52899-0.78125 1.041015 0 0.711811 0.302517 1.320761 0.910156 1.824219 0.60764 0.503484 1.424914 0.753906 2.449219 0.753906 0.47743 0 1.128473-0.13019 1.953125-0.390625 0.824653-0.260409 1.301431-0.390625 1.431641-0.390625 0.442706 0 0.664062 0.19226 0.664062 0.574219 0 0.512151-0.499785 1.023005-1.498047 1.535156-0.998264 0.512152-2.03993 0.769532-3.125 0.769532h-0.285156c-1.657988 0-2.978083-0.525816-3.958984-1.576172-0.980904-1.059024-1.470703-2.470255-1.470703-4.232422v-0.572266c0-0.842003 0.164281-1.696396 0.49414-2.564453 0.668405-1.736113 1.757163-2.934021 3.267578-3.59375 0.798612-0.355905 1.610895-0.535156 2.435547-0.535156zm-74.79102 0.261719h0.46875c0.442708 0 0.729165 0.117231 0.859375 0.351562 0.130217 0.225764 0.195312 0.512213 0.195312 0.859375l-0.144531 3.501953-0.02539 0.351563-0.03906 1.068359v0.507813c0 1.250015 0.03407 2.070336 0.103515 2.460937 0.07814 0.390627 0.221365 0.771265 0.429688 1.144531 0.208327 0.364599 0.3125 0.630009 0.3125 0.794922v0.117188c0 0.425348-0.216362 0.763883-0.650391 1.015625-0.434028 0.251716-1.024957 0.376953-1.771484 0.376953h-0.324219c-0.434028 0-0.764539-0.09416-0.990234-0.285156-0.225688-0.199559-0.337891-0.412883-0.337891-0.638672v-0.28711c0-0.112882 0.09917-0.511533 0.298828-1.197265 0.19966-0.694451 0.298828-1.636956 0.298828-2.826172 0.02605-0.338545 0.03906-0.572908 0.03906-0.703125l0.03906-0.714844 0.02734-0.351562c0.04341-0.607622 0.06445-1.081377 0.06445-1.419922l0.01367-0.521485c0-0.651036-0.109151-1.22701-0.326172-1.730468-0.208327-0.503484-0.3125-0.815976-0.3125-0.9375 0-0.625008 0.590929-0.9375 1.771485-0.9375zm12.4082 0.142578h0.195312c0.425348 0 0.763889 0.104122 1.015625 0.3125 0.251742 0.199559 0.376953 0.446956 0.376953 0.742187v0.169922c0 0.355906-0.125211 0.611333-0.376953 0.767578-0.243049 0.156221-0.633673 0.234375-1.171875 0.234375-1.223957 0-2.117402 0.429699-2.68164 1.289063-0.555556 0.859389-0.833985 2.379771-0.833985 4.558594 0 0.312486 0.05209 0.792323 0.15625 1.443359 0.112857 0.651061 0.169922 1.142804 0.169922 1.472656s-0.179253 0.645395-0.535156 0.949219c-0.355903 0.303823-0.806641 0.457031-1.353516 0.457031h-0.443359c-0.477433 0-0.845052-0.11408-1.105469-0.339844-0.251742-0.23433-0.378906-0.5158-0.378906-0.845703 0-0.338545 0.06207-0.682059 0.183594-1.029297 0.329862-0.937499 0.49414-1.96919 0.49414-3.097656 0.03472-0.625008 0.05273-1.077699 0.05273-1.355469v-1.001953c0-1.206601-0.0651-2.087013-0.195313-2.642578-0.130217-0.564233-0.195312-0.959859-0.195312-1.185547 0-0.529512 0.385632-0.794922 1.158203-0.794922 0.772568 0 1.332465 0.143225 1.679687 0.429688 0.0955 0.07811 0.217682 0.231318 0.365235 0.457031 0.156245 0.225764 0.294483 0.337891 0.416015 0.337891 0.02603 0 0.403634-0.221354 1.132813-0.664063 0.729166-0.442708 1.354166-0.664062 1.875-0.664062zm9.205078 1.251953-0.07813 0.01172c-0.842013 0-1.57921 0.354595-2.212891 1.066406-0.63368 0.711811-0.951172 1.463985-0.951172 2.253906v0.207031c0 0.260435 0.239367 0.390625 0.716797 0.390625h0.3125l0.07813-0.0098 0.638672-0.05273c0.668402-0.0955 1.101129-0.142578 1.300781-0.142578 0.946182 0 1.659289-0.17925 2.136719-0.535156 0.225688-0.173606 0.337891-0.481094 0.337891-0.923828v-0.144531c0-0.651037-0.216365-1.166873-0.650391-1.548828-0.425348-0.381934-0.93815-0.572266-1.537109-0.572266zm53.09961 0-0.07813 0.01172c-0.842013 0-1.57921 0.354595-2.21289 1.066406-0.633681 0.711811-0.951172 1.463985-0.951172 2.253906v0.207031c0 0.260435 0.239367 0.390625 0.716797 0.390625h0.3125l0.07813-0.0098 0.636718-0.05273c0.668402-0.0955 1.103082-0.142578 1.302735-0.142578 0.946182 0 1.657335-0.17925 2.134765-0.535156 0.225689-0.173606 0.339844-0.481094 0.339844-0.923828v-0.144531c0-0.651037-0.218318-1.166869-0.652344-1.548828-0.425348-0.381934-0.936197-0.572266-1.535156-0.572266zm-39.49219 0.05078c-0.425346 0-0.894097 0.146276-1.40625 0.441406-0.503474 0.295156-0.858077 0.643675-1.066406 1.042969-0.46007 0.868057-0.691407 2.238283-0.691407 4.113281v1.199219c0.02603 0.26041 0.03906 0.476784 0.03906 0.650391 0 0.625008 0.192278 1.13281 0.574218 1.523437 0.390246 0.381562 0.936537 0.571894 1.638672 0.572266h0.390671c0.946182 0 1.740452-0.468751 2.382813-1.40625 0.651041-0.946167 0.976562-2.230259 0.976562-3.853516v-0.416015l-0.01172-0.144532-0.01367-0.273437c-0.0086-0.0955-0.01172-0.186508-0.01172-0.273438 0-0.842003-0.234375-1.579215-0.703125-2.21289-0.468752-0.642369-1.041668-0.962891-1.71875-0.962891zm14.16602 4.921875-0.08984 0.0098-0.507813 0.03906c-0.243049 0.03477-0.41731 0.05273-0.521484 0.05273-0.703123 0-1.354166 0.265412-1.953125 0.794921-0.416665 0.373267-0.625 0.902134-0.625 1.587891v0.259766c0 0.581593 0.187283 1.042314 0.560547 1.380859 0.381944 0.338545 0.850694 0.507813 1.40625 0.507813v2e-3h0.33789c0.711806 0 1.336806-0.239367 1.875-0.716797 0.546875-0.486123 0.820313-1.046012 0.820313-1.679688l0.02539-0.167968v-0.169922l0.02734-0.404297v-0.742188c0-0.503483-0.257377-0.753906-0.769531-0.753906z" fill="#474bc9" style="paint-order:fill markers stroke"/>
  </g>
</svg>
