<svg width="110" height="32" version="1.1" viewBox="0 0 29.10417 8.466667" xmlns="http://www.w3.org/2000/svg">
  <g transform="translate(-28.63152 -187.9509)">
    <path transform="matrix(.2645833 0 0 .2645833 28.63152 187.9509)" d="m7 0c-3.877999 0-7 3.122001-7 7v18c0 3.878 3.122001 7 7 7h96c3.878 0 7-3.122 7-7v-18c0-3.877999-3.122-7-7-7zm90.42773 3.779297c0.60764 0 1.008247 0.1562586 1.199219 0.46875 0.19966 0.3125165 0.298828 0.9425049 0.298828 1.888672l-0.169922 5.521484c0 1.579868 0.182292 2.369141 0.546875 2.369141 0.286458 0 0.989586-0.590937 2.109376-1.771485 1.12847-1.180573 1.70638-1.779514 1.73242-1.796875 0.34722-0.243149 0.87305-0.363281 1.57617-0.363281 0.70313 0 1.05469 0.172319 1.05469 0.519531 0 0.173607-0.5599 0.907742-1.67969 2.201172-1.11979 1.29338-1.67968 2.243916-1.67968 2.851563 0 0.329852 0.63802 1.415557 1.91406 3.255859 0.46007 0.659704 0.89279 1.232627 1.30078 1.71875 0.41667 0.47743 0.625 0.819016 0.625 1.027344 0 0.434016-0.40365 0.652344-1.21094 0.652344-0.79861 0-1.41363-0.231337-1.84765-0.691407-0.10417-0.112882-0.34853-0.493545-0.73047-1.144531-0.38195-0.651061-0.65039-1.106778-0.80664-1.367187-0.8941-1.43229-1.50608-2.148438-1.835941-2.148438-0.772568 0-1.158203 1.018657-1.158203 3.058594 0 0.885417-0.182292 1.484384-0.546875 1.796875-0.364584 0.312491-0.804253 0.46875-1.316407 0.46875-0.512151 0-0.876734-0.08616-1.09375-0.259766-0.208327-0.173606-0.3125-0.499132-0.3125-0.976562 0-0.03477 0.04904-0.378311 0.144532-1.029297 0.0955-0.651036 0.215728-2.67229 0.363281-6.066406 0.147578-3.402759 0.222656-5.483056 0.222656-6.238282 0-0.7552-0.02299-1.245015-0.06641-1.470703-0.03472-0.2343307-0.09484-0.5158007-0.181641-0.8457031-0.07814-0.3298771-0.117187-0.5381968-0.117187-0.625 0-0.3819338 0.125211-0.6423649 0.376953-0.78125 0.260417-0.1476535 0.690103-0.2226562 1.289062-0.2226562zm-55.82031 0.013672h0.261719c0.703125 0 1.148871 0.169268 1.339843 0.5078124 0.190967 0.3298772 0.28711 0.9468315 0.28711 1.849609l-0.06445 2.070312-0.02734 0.5859375v0.7675782c0 0.3298515 0.05209 0.5772491 0.15625 0.7421871 0.112857 0.164788 0.404307 0.248047 0.873047 0.248047 0.0086 0 0.290034-0.06504 0.845703-0.195312 0.564235-0.130268 1.147134-0.195313 1.746094-0.195313 1.293402 0 2.37413 0.510854 3.242187 1.535156 0.868054 1.024303 1.300781 2.274296 1.300781 3.75v0.9375c0 0.729147-0.143229 1.502385-0.429687 2.31836-0.295138 0.815975-0.711805 1.524092-1.25 2.123047-1.10243 1.215294-2.459635 1.822265-4.074219 1.822265h-0.287109c-0.451389 0-1.032335-0.08616-1.744141-0.259765-0.711806-0.173607-1.177518-0.261719-1.394531-0.261719l-0.871094 0.07813c-0.894098 0-1.341797-0.445759-1.341797-1.339844v-0.535156c0-0.529512 0.104173-2.459627 0.3125-5.792969 0.217021-3.333316 0.326172-5.460721 0.326172-6.380859 0-0.9201386-0.07508-1.683368-0.222656-2.291016-0.147578-0.6076472-0.220703-0.9381529-0.220703-0.9902343 0-0.7291717 0.411675-1.09375 1.236328-1.09375zm-17.00391 1.353516c0.381944 0 0.572265 0.3565483 0.572265 1.068359 0 0.2343301-0.580945 2.2736-1.74414 6.11914-1.154513 3.845468-1.909722 6.14214-2.265625 6.888672-0.685765 1.440983-1.498048 2.16211-2.435547 2.16211-0.625001 0-1.223959-0.603946-1.796875-1.810547-0.451389-0.963553-1.094402-2.791449-1.927735-5.482422l-0.572265-1.875-0.195313-0.429688c-0.130217 0-0.659079 1.093735-1.58789 3.28125-0.920139 2.18749-1.607205 3.663842-2.058594 4.427735-0.6857632 1.154519-1.318792 1.732422-1.900391 1.732422-0.3645827 0-0.7291666-0.174247-1.09375-0.521485-0.3559023-0.347212-0.6373705-0.771907-0.8457031-1.27539-0.2083275-0.512152-0.7651857-2.683612-1.667969-6.511719-0.8940977-3.828133-1.339844-5.898446-1.339844-6.210938v-0.3769532c0-0.2169442 0.08616-0.4382993 0.2597656-0.6640624 0.1736063-0.2343308 0.4340229-0.3515626 0.78125-0.3515626 0.902778 0 1.584853 0.6560316 2.044922 1.966797 0.086803 0.2343307 0.2510843 0.9014433 0.4941407 2.003906 0.2430482 1.09377 0.6256428 2.66126 1.146484 4.701172 0.5208315 2.039937 0.8854149 3.060547 1.09375 3.060547 0.3124989 0 0.8283419-1.129786 1.548828-3.386719 0.720487-2.256957 1.150173-3.923615 1.289063-5 0.147578-1.085077 0.311859-1.778208 0.49414-2.082031 0.321182-0.5468724 0.969186-0.8203125 1.941407-0.8203125 0.677084 0 1.187933 0.4377035 1.535156 1.314453 0.05208 0.138834 0.156254 0.7037278 0.3125 1.693359 0.156246 0.9809134 0.543834 2.598537 1.160156 4.855469 0.61632 2.256957 1.009983 3.386719 1.183594 3.386719 0.225688 0 0.847649-1.458314 1.863281-4.375 0.321179-0.920139 0.67578-2.083999 1.066406-3.490235 0.390625-1.414928 0.664062-2.308374 0.820313-2.681641 0.373263-0.8767496 0.982205-1.316406 1.824219-1.316406zm49.14062 4.375h0.65039c0.876737 0 1.649958 0.166242 2.31836 0.4960936 0.668402 0.321184 1.176214 0.758913 1.523437 1.314453 0.355903 0.555566 0.572265 1.279718 0.650391 2.173828 0.01739 0.208378 0.02539 1.220983 0.02539 3.035157 0 1.814248 0.02299 2.858948 0.06641 3.136718 0.05208 0.269103 0.19032 0.599608 0.416015 0.990235 0.234381 0.390627 0.351563 0.711174 0.351563 0.96289 0 0.251717-0.122186 0.47002-0.365235 0.652344-0.234381 0.173606-0.575959 0.259766-1.027343 0.259766-0.451389 0-0.943142-0.109227-1.472657-0.326172-0.529511-0.225764-0.915146-0.337891-1.158203-0.337891-0.02603 0-0.460706 0.156234-1.302734 0.46875-0.842013 0.303799-1.55317 0.455078-2.134766 0.455078h-0.287109c-0.972223 0-1.800563-0.307513-2.486328-0.923828-0.677082-0.616315-1.015625-1.4937-1.015625-2.630859s0.372613-2.022575 1.11914-2.65625c0.746528-0.642343 1.654948-1.080072 2.722657-1.314453 0.321181-0.06954 0.855035-0.160556 1.601562-0.273438s1.25434-0.230113 1.523438-0.351562c0.468749-0.216945 0.703125-0.62558 0.703125-1.22461 0-0.607622-0.200305-1.079423-0.59961-1.417968-0.399307-0.347213-0.876085-0.521485-1.43164-0.521485-0.546875 0-1.268012 0.203341-2.16211 0.611328-0.894095 0.407963-1.462021 0.613282-1.705078 0.613282-0.581596 0-0.873047-0.374587-0.873047-1.121094 0-0.555565 0.468751-1.037325 1.40625-1.445313 0.94618-0.4166539 1.927735-0.6249996 2.94336-0.6249996zm14.83008 0.2226562h0.287109c1.032985 0 1.887369 0.2033405 2.564453 0.6113284 0.677082 0.407987 1.015625 0.90776 1.015625 1.498047 0 0.685757-0.330513 1.027343-0.990234 1.027343-0.121525 0-0.546222-0.190331-1.275391-0.572265-0.729169-0.373266-1.328125-0.560547-1.796875-0.560547h-0.02539c-1.024305 0-1.82856 0.442708-2.410157 1.328125-0.572918 0.885417-0.859375 2.041247-0.859375 3.464844 0 1.423622 0.30447 2.478305 0.91211 3.164062 0.61632 0.685758 1.470703 1.027344 2.564453 1.027344 0.451389 0 1.073352-0.125237 1.863281-0.376953 0.789931-0.260435 1.271701-0.390625 1.445313-0.390625 0.355903 0 0.533203 0.18728 0.533203 0.560547 0 0.503483-0.499783 1.011286-1.498047 1.523437s-1.977864 0.767578-2.941406 0.767578c-2.578124 0-4.283855-1.015631-5.117188-3.046875-0.329862-0.807307-0.496094-1.645615-0.496094-2.513672v-0.597656c0-1.093745 0.169271-2.062268 0.507813-2.904297 0.651041-1.631949 1.650607-2.759783 2.996094-3.384765 0.876734-0.4166811 1.783201-0.6250004 2.720703-0.6250004zm-56.08008 0.025391h0.558593c1.137152 0 2.097656 0.3825914 2.878907 1.146484 0.789931 0.7552 1.183593 1.731753 1.183593 2.929687v0.259766c0 0.850696-0.33854 1.454641-1.015625 1.810547-0.468749 0.251716-1.562499 0.502164-3.28125 0.753906-1.71875 0.251716-2.656251 0.404924-2.8125 0.457031-0.520834 0.182425-0.78125 0.528991-0.78125 1.041016 0 0.711811 0.304473 1.318807 0.91211 1.822265 0.607639 0.503484 1.42296 0.75586 2.447265 0.75586 0.477433 0 1.128473-0.130216 1.953125-0.390625 0.824653-0.260435 1.303387-0.390625 1.433594-0.390625 0.442709 0 0.664063 0.190306 0.664063 0.572265 0 0.512152-0.499783 1.024959-1.498047 1.53711s-2.039931 0.767578-3.125 0.767578h-0.28711c-1.657985 0-2.976128-0.523863-3.957031-1.574219-0.980903-1.059023-1.472656-2.47028-1.472656-4.232422v-0.572265c0-0.842004 0.166232-1.69835 0.496094-2.566407 0.668402-1.736113 1.75716-2.93402 3.267578-3.59375 0.798611-0.3559027 1.610894-0.5332024 2.435547-0.5332024zm29.17969 0.052734c1.371528 0 2.481335 0.4817594 3.332031 1.445312 0.850694 0.95486 1.277344 2.243931 1.277344 3.867188v0.324218c0 1.093745-0.182292 2.101346-0.546875 3.021485-0.746527 1.901052-1.99349 3.130006-3.738281 3.685547-0.494793 0.15622-1.158855 0.263494-1.992188 0.324218-0.824652 0.06072-1.410589 0.169952-1.757812 0.326172-0.529514 0.24315-0.792969 0.680879-0.792969 1.314453 0 0.269103 0.04708 0.633681 0.142578 1.09375 0.104164 0.46007 0.15625 0.886717 0.15625 1.277344s-0.221354 0.771265-0.664062 1.144531c-0.442709 0.381934-0.994576 0.574219-1.654297 0.574219h-0.273438c-0.781251 0-1.171875-0.286474-1.171875-0.859375v-0.248047c0-0.121449 0.08311-0.464988 0.248047-1.029297 0.173607-0.555565 0.295792-1.154506 0.365235-1.796875 0.06944-0.633675 0.181645-2.217225 0.33789-4.751953 0.156246-2.534702 0.234375-4.266481 0.234375-5.195312 0-0.937499-0.06012-1.723747-0.18164-2.357422-0.112857-0.633676-0.169922-0.975262-0.169922-1.027344 0-0.460069 0.538845-0.691406 1.615234-0.691406l1.822266 0.3125c0.190967 0 0.638666-0.125237 1.341797-0.376953 0.703125-0.2517174 1.39323-0.3769534 2.070312-0.3769534zm-29.25781 1.603515-0.07813 0.0098c-0.842016 0-1.581163 0.356573-2.214844 1.068359-0.633681 0.711811-0.949219 1.462032-0.949219 2.251953v0.208985c0 0.260409 0.237411 0.390625 0.714844 0.390625h0.3125l0.07813-0.01172 0.638672-0.05078c0.668404-0.0955 1.103082-0.144531 1.302734-0.144531 0.94618 0 1.657336-0.177298 2.134766-0.533204 0.225688-0.173606 0.33789-0.481119 0.33789-0.923828v-0.144531c0-0.651036-0.216362-1.166869-0.65039-1.548828-0.425348-0.381934-0.938153-0.572266-1.53711-0.572266zm28.28125 0.03711c-0.9375 0-1.679688 0.372633-2.226563 1.11914-0.546875 0.737865-0.820312 1.826621-0.820312 3.267578l-0.02734 0.261719-0.05078 1.353516v0.912109c0 0.946192 0.190319 1.61328 0.572265 2.003906 0.390625 0.381934 0.942491 0.574219 1.654297 0.574219h0.246094c0.980903 0 1.801216-0.452691 2.460937-1.355469 0.659724-0.902778 0.990235-1.999564 0.990235-3.292968l0.02539-0.28711v-0.859375c0-1.154519-0.242405-2.057948-0.728515-2.708984-0.477433-0.659704-1.050348-0.988281-1.71875-0.988281zm-14.67383 0.01172c-0.425349 0-0.894101 0.148229-1.40625 0.44336-0.503471 0.295156-0.860027 0.641721-1.06836 1.041015-0.460069 0.868057-0.689453 2.240236-0.689453 4.115235v1.197265c0.02603 0.26041 0.03906 0.478713 0.03906 0.652344-1e-6 0.624983 0.190321 1.132811 0.572265 1.523438 0.390624 0.381959 0.937499 0.572265 1.640625 0.572265h0.390625c0.94618 0 1.740452-0.468751 2.382813-1.40625 0.651043-0.946192 0.976562-2.230259 0.976562-3.853515v-0.417969l-0.01367-0.142578-0.01172-0.273438c-0.0086-0.0955-0.01367-0.186508-0.01367-0.273437 0-0.842003-0.234376-1.579215-0.703125-2.212891-0.46875-0.642368-1.041666-0.964844-1.71875-0.964844zm28.87891 4.921875-0.0918 0.01172-0.507813 0.03906c-0.243045 0.034771-0.415357 0.052734-0.519528 0.052734-0.703126 0-1.354166 0.263457-1.953125 0.792969-0.416665 0.373266-0.625 0.904088-0.625 1.589843v0.259766c0 0.581594 0.18533 1.042315 0.558594 1.38086 0.381944 0.338542 0.850695 0.507812 1.40625 0.507812v2e-3h0.339844c0.711803 0 1.336805-0.239367 1.875-0.716797 0.546875-0.486123 0.820312-1.046012 0.820312-1.679687l0.02539-0.169922v-0.167969l0.02539-0.404297v-0.742187c0-0.503459-0.255424-0.75586-0.767578-0.75586z" fill="#4191ff" style="paint-order:fill markers stroke"/>
  </g>
</svg>
