<svg width="60" height="32" version="1.1" viewBox="0 0 15.875 8.466667" xmlns="http://www.w3.org/2000/svg">
  <g transform="translate(-28.63152 -187.9509)">
    <path transform="matrix(.2645833 0 0 .2645833 28.63152 187.9509)" d="m7 0c-3.878 0-7 3.122-7 7v18c0 3.878 3.122 7 7 7h46c3.878 0 7-3.122 7-7v-18c0-3.878-3.122-7-7-7zm21.22266 6.800781c1.371528 0 2.483291 0.4817598 3.333985 1.445313 0.850696 0.9548597 1.27539 2.243931 1.27539 3.867187v0.326172c0 1.093745-0.182291 2.099393-0.546875 3.019531-0.74653 1.901052-1.991537 3.130007-3.736328 3.685547-0.49479 0.156221-1.158854 0.265448-1.992187 0.326172-0.824653 0.06072-1.41059 0.167998-1.757813 0.324219-0.529514 0.243149-0.794922 0.682831-0.794922 1.316406 0 0.269102 0.04708 0.633681 0.142578 1.09375 0.104164 0.460069 0.15625 0.884764 0.15625 1.275391s-0.221353 0.773218-0.664062 1.146484c-0.442709 0.381934-0.992622 0.572266-1.652344 0.572266h-0.273437c-0.781249 0-1.171875-0.286474-1.171875-0.859375v-0.248047c0-0.121449 0.08116-0.463035 0.246093-1.027344 0.173607-0.555565 0.295792-1.154506 0.365235-1.796875 0.06944-0.633675 0.181645-2.219179 0.33789-4.753906 0.156246-2.534728 0.234375-4.266506 0.234375-5.195313 0-0.937499-0.06012-1.721793-0.18164-2.355468-0.112857-0.6336756-0.169922-0.9771899-0.169922-1.029297 0-0.4600693 0.538847-0.6914063 1.615234-0.6914063v0.00195l1.822266 0.3125c0.190967 0 0.638666-0.1271897 1.341797-0.3789062 0.703123-0.2517166 1.393228-0.3769532 2.070312-0.3769532zm-14.40039 0.3769532h0.33789c1.328126 0 2.260636 0.5989663 2.798828 1.796875 0.260417 0.564233 0.390625 1.780154 0.390625 3.646485v0.0918c0 0.15622-0.0032 0.312454-0.01172 0.46875v1.496093c0 0.668422 0.02104 1.124139 0.06445 1.367188 0.06075 0.329852 0.159918 0.673391 0.298828 1.029297 0.147578 0.390627 0.222656 0.729162 0.222656 1.015625 0 0.642368-0.559897 0.96289-1.679687 0.96289-0.633681 0-1.060331-0.151254-1.277344-0.455078-0.104164-0.147653-0.15625-0.494219-0.15625-1.041015l-0.03906-0.833985c-0.06075-0.911445-0.08984-1.827908-0.08984-2.748047 0-1.987855-0.17426-3.319004-0.521485-3.996093-0.338542-0.6857575-0.91146-1.029297-1.71875-1.029297-0.538197 0-1.03798 0.1612376-1.498047 0.4824218-0.451389 0.3211843-0.797961 0.7669174-1.041015 1.339843-0.5034734 1.171855-0.7558594 3.338312-0.7558594 6.498047 0 0.720479-0.1382382 1.228307-0.4160156 1.523438-0.2690974 0.295156-0.6156702 0.443359-1.041016 0.443359h-0.2617197c-0.972223 0-1.457031-0.38757-1.457031-1.160156v-0.3125c0-0.0955 0.052086-0.303841 0.15625-0.625l0.2070313-0.597656c0.2083275-0.703118 0.3125-2.210492 0.3125-4.519532l0.066406-3.867187c0-0.4947906 0.2684462-0.7421875 0.8066406-0.7421875 0.5381947 0 1.067057 0.1792507 1.587891 0.5351562 0.5295143 0.3559055 0.8650189 0.5332032 1.003906 0.5332032 0.147578 0 0.403003-0.099269 0.767578-0.2988282 1.223957-0.6683968 2.205513-1.003906 2.94336-1.003906zm36.40625 0.027344c0.703125 0 1.279077 0.1462756 1.730468 0.4414063 0.46007 0.286463 0.808596 0.6299772 1.042969 1.029297 0.442709 0.7638678 0.664063 2.461574 0.664063 5.091796 0 1.180548 8e-3 1.857644 0.02539 2.03125 0.02605 0.165039 0.08617 0.464523 0.181641 0.898438 0.104164 0.425348 0.15625 0.776892 0.15625 1.054687 0 0.269077-0.112203 0.550547-0.337891 0.845703-0.225688 0.295131-0.525171 0.44336-0.898437 0.44336-0.73785 0-1.175566-0.299484-1.314453-0.898438-0.104164-0.434041-0.22635-1.702048-0.365235-3.802734-0.130217-2.100687-0.273442-3.332667-0.429687-3.697266-0.312499-0.7638673-0.976566-1.146484-1.992188-1.146484-0.651041 0-1.158854 0.4086345-1.523437 1.224609-0.529517 1.171855-0.794922 2.838539-0.794922 5l0.130859 1.875c0 0.659704-0.242403 1.157549-0.728515 1.496094-0.312499 0.216945-0.729166 0.326172-1.25 0.326172-0.512152 0-0.850694-0.05219-1.015625-0.15625-0.286458-0.173607-0.429688-0.543164-0.429688-1.107422 0-0.104063 0.08116-0.528783 0.246094-1.275391 0.173606-0.755225 0.261719-1.979176 0.261719-3.671875 0-1.701392-0.127165-2.782118-0.378907-3.242187-0.251741-0.4687623-0.689457-0.703125-1.314453-0.703125-0.625 0-1.179905 0.2133238-1.666015 0.6386718-0.47743 0.4253481-0.828992 0.8890941-1.054688 1.392578-0.21702 0.503483-0.412334 1.701391-0.585937 3.59375-0.164939 1.892359-0.28212 2.978089-0.351563 3.255859-0.121524 0.47743-0.473089 0.714844-1.054687 0.714844-0.572919 0-0.968534-0.169268-1.185547-0.507813-0.208328-0.347212-0.3125-0.766928-0.3125-1.261718l0.06445-0.457032 0.248047-0.898437c0.104164-0.41668 0.16428-0.901491 0.18164-1.457031 0.130218-3.446199 0.231339-5.41234 0.300782-5.898438 0.06944-0.4861228 0.381942-0.7304687 0.9375-0.7304687l1.939453 0.3261718c0.416667 0 0.958551-0.1220847 1.626953-0.3652343 0.668404-0.2517166 1.35547-0.3769531 2.058594-0.3769531 0.703125 0 1.432292 0.2083448 2.1875 0.625 0.76389 0.4166803 1.180555 0.625 1.25 0.625 0.06944 0 0.538193-0.2133239 1.40625-0.6386719 0.868056-0.4253481 1.649307-0.6367188 2.34375-0.6367188zm-22.98242 1.236328c-0.937502 0-1.679685 0.3726084-2.226563 1.119141-0.546875 0.7378391-0.820312 1.828548-0.820312 3.269531l-0.02539 0.259766-0.05273 1.353515v0.91211c0 0.946167 0.190321 1.615232 0.572265 2.005859 0.390625 0.381959 0.942489 0.572266 1.654297 0.572266h0.248047c0.980903 0 1.801216-0.450738 2.460938-1.353516 0.659719-0.902778 0.988281-2.001517 0.988281-3.294922l0.02734-0.287109v-0.859375c0-1.15452-0.244356-2.055995-0.730469-2.707031-0.47743-0.6597291-1.050348-0.9902344-1.71875-0.9902344z" fill="#ff5e87" style="paint-order:fill markers stroke"/>
  </g>
</svg>
